<?xml version="1.0" encoding="UTF-8"?><svg id="Layer_1" xmlns="http://www.w3.org/2000/svg" width=".67in" height=".67in" viewBox="0 0 48 48"><defs><style>.cls-1{fill:#fff;}</style></defs><path class="cls-1" d="m39.8,41.95l-13.15-13.15c-1,.87-2.17,1.54-3.5,2.03s-2.75.73-4.25.73c-3.61,0-6.66-1.25-9.15-3.75s-3.75-5.52-3.75-9.05,1.25-6.55,3.75-9.05,5.53-3.75,9.08-3.75,6.57,1.25,9.05,3.75c2.48,2.5,3.73,5.52,3.73,9.06,0,1.43-.23,2.81-.7,4.14-.47,1.33-1.17,2.58-2.1,3.75l13.2,13.1-2.2,2.2Zm-20.95-13.4c2.71,0,5.01-.96,6.91-2.88,1.9-1.92,2.84-4.23,2.84-6.93s-.95-5.01-2.84-6.93c-1.9-1.92-4.2-2.88-6.91-2.88s-5.06.96-6.98,2.88c-1.92,1.92-2.87,4.23-2.87,6.93s.96,5.01,2.87,6.93c1.92,1.92,4.24,2.88,6.98,2.88Z"/></svg>