<svg xmlns="http://www.w3.org/2000/svg" xmlns:xlink="http://www.w3.org/1999/xlink" width="33" height="33" viewBox="0 0 33 33"><defs><clipPath id="b"><rect width="33" height="33"/></clipPath></defs><g id="a" clip-path="url(#b)"><rect width="33" height="33" fill="#fff"/><path d="M31.563,1H3.41A2.4,2.4,0,0,0,1.005,3.38V31.626A2.406,2.406,0,0,0,3.41,34H31.591a2.414,2.414,0,0,0,2.414-2.376V3.382A2.416,2.416,0,0,0,31.59,1h-.031ZM10.792,29.125h-4.9V13.379h4.9Zm-2.449-17.9a2.838,2.838,0,1,1,2.838-2.839h0v0a2.836,2.836,0,0,1-2.835,2.835h0Zm20.776,17.9H24.232V21.468c0-1.826-.037-4.176-2.546-4.176-2.548,0-2.937,1.987-2.937,4.041v7.792H13.863V13.38h4.694v2.147h.064a5.156,5.156,0,0,1,4.444-2.547c.067,0,.133,0,.2,0h-.01c4.951,0,5.867,3.259,5.867,7.5v8.643Z" transform="translate(-1.005 -1.004)" fill="#0277b5"/></g></svg>