<svg xmlns="http://www.w3.org/2000/svg" xmlns:xlink="http://www.w3.org/1999/xlink" width="33" height="33" viewBox="0 0 33 33"><defs><clipPath id="b"><rect width="33" height="33"/></clipPath></defs><g id="a" clip-path="url(#b)"><rect width="33" height="33" fill="#fff"/><g transform="translate(0 -0.001)"><path d="M31.178,0H1.821A1.821,1.821,0,0,0,0,1.822V31.179A1.822,1.822,0,0,0,1.821,33h15.8V20.221h-4.3V15.24h4.3V11.567c0-4.262,2.6-6.583,6.4-6.583a35.668,35.668,0,0,1,3.842.2V9.634H25.235c-2.068,0-2.466.983-2.466,2.425v3.179H27.7l-.645,4.981H22.768V33h8.409A1.823,1.823,0,0,0,33,31.179V1.821A1.822,1.822,0,0,0,31.178,0Z" transform="translate(0)" fill="#1878f2"/></g></g></svg>