<?xml version="1.0" encoding="UTF-8"?><svg id="Layer_1" xmlns="http://www.w3.org/2000/svg" width="30.25in" height="6.86in" xmlns:xlink="http://www.w3.org/1999/xlink" viewBox="0 0 2178.23 493.69"><defs><style>.cls-1,.cls-2{fill:none;}.cls-3{fill:#68a0d6;}.cls-4{fill:#7d9b62;}.cls-5{fill:#849f6a;}.cls-6{fill:#84aedd;}.cls-7{fill:#8ca472;}.cls-8{fill:#328ccc;}.cls-9{fill:#e31e26;}.cls-10{fill:#0a1a3a;}.cls-11{fill:#4391ce;}.cls-12{fill:#1a86c8;}.cls-13{fill:#6d904f;}.cls-14{fill:#95ab7d;}.cls-15{fill:#53823b;}.cls-16{fill:#5a3d84;}.cls-17{fill:#638a46;}.cls-18{fill:#5f9bd3;}.cls-19{fill:#5397d1;}.cls-20{fill:#759559;}.cls-21{fill:#74a6d9;}.cls-2{clip-path:url(#clippath);}</style><clipPath id="clippath"><rect class="cls-1" x="-17.88" y="-17.05" width="2205.94" height="527.98"/></clipPath></defs><g id="layer_1"><g class="cls-2"><path class="cls-15" d="m190.48,40.37c-8.29,7.65-17.43,14.26-26.39,21.08-10.16,7.39-20.91,13.9-31.22,21.05-11.7,7.54-23.54,14.85-35.01,22.72-7.39,5.02-14.87,9.93-21.98,15.33-7.09,5.16-14.14,10.39-20.79,16.11-8.5,7.14-16.83,14.53-24.26,22.78-3.73,4.38-8.04,8.41-10.89,13.44-5.29,13.18-8.43,27.16-9.98,41.25,8.67-17.97,21.24-33.72,35.41-47.65l.21.11c8.03-7.84,16.62-15.08,25.47-21.96,7.31-5.48,14.62-10.96,22.14-16.15,7.5-5.01,14.94-10.11,22.48-15.06,11.71-7.41,23.43-14.86,34.78-22.82l.37.19c10.14-6.87,20.32-13.7,29.87-21.38,1.6-.95,3.17-1.95,4.59-3.17,8.85-7.57,17.95-15.12,24.66-24.74-4.09-2.49-8.53-4.44-13.12-5.81-2.56.81-4.33,3.02-6.34,4.68m-13.05,1.88c18.52-11.05,36.49-24.23,48.54-42.45,1.95,12.97-1.98,26.21-9.1,37.03-10.04,15.35-24.37,27.22-38.88,38.17-29.15,21.5-60.71,39.46-90.19,60.51-20.04,14.31-39.48,29.87-55.36,48.8-11.76,13.99-21.25,30.12-26.17,47.81.39-18.36,2.98-36.78,8.96-54.18,5.73-16.97,14.74-32.8,26.28-46.49,12.82-15.29,28.51-27.91,45.16-38.78,29-19.02,60.98-32.76,90.76-50.42"/><path class="cls-9" d="m272.59,6.85c7.3,18.94,10.59,39.98,6.08,59.98-3.39,15.44-11.78,29.22-21.08,41.78-17.91,23.58-40.72,42.79-63.67,61.25-29.18,23.43-59.95,45.05-86.81,71.24-15.66,15.43-30.02,32.84-38.42,53.38-8.64,18.28-6.33,39.64.33,58.15,10.29,28.47,28.37,53.27,47.43,76.47-13.28-10.54-25.36-22.52-36.86-34.95-9.59-10.73-19.22-21.76-25.49-34.83-7.55-14.97-15.21-30.57-16.4-47.57-1-12.94,2.92-25.77,9.16-36.99,13.82-25.34,34.96-45.62,56.58-64.31,26.34-22.27,53.82-43.16,81.74-63.4,20.12-14.86,40.44-29.92,56.95-48.88,5.9-6.97,11.79-14.19,15.24-22.75,8.91-21.8,12.15-45.37,15.22-68.57"/><path class="cls-17" d="m190.48,40.37c2.01-1.66,3.78-3.87,6.34-4.68,4.59,1.37,9.03,3.32,13.12,5.81-6.71,9.62-15.81,17.17-24.66,24.74-1.42,1.22-2.99,2.22-4.59,3.17-5.02-3.6-10.54-6.55-16.6-7.96,8.96-6.82,18.1-13.43,26.39-21.08"/><path class="cls-10" d="m2113.27,341.97c4.87-.02,9.76-.02,14.65,0,5.55,12.54,11.04,25.1,16.58,37.64,5.68-12.53,11.32-25.08,16.97-37.62,4.78-.05,9.58-.05,14.38.04v61.29c-4.7.09-9.39.07-14.07.05-.03-9.92,0-19.85-.02-29.77-4.45,9.92-8.82,19.87-13.27,29.78-2.7,0-5.38,0-8.04-.01-4.49-9.99-8.94-20.01-13.42-30-.04,10,0,20-.02,30.01-4.59,0-9.17,0-13.74,0,0-20.47,0-40.94,0-61.4m-53.41-.02h44.98c0,4.45.01,8.9,0,13.35-5.16-.01-10.32-.01-15.47,0-.02,16.02,0,32.04-.01,48.07-4.68,0-9.34,0-14,0-.01-16.03,0-32.05-.01-48.07-5.17-.02-10.33-.01-15.48,0-.03-4.45-.02-8.9,0-13.35m-935.48-144.43c-16.32,2.3-30.47,12.75-39.82,26-11.62,16.24-17.9,35.65-21.81,55.06-2.79,14.53-4.49,29.64-1.54,44.28,1.92,9.58,6.7,19.07,15.05,24.56,9.85,6.51,22.37,7.24,33.75,5.5,14.53-2.27,27.5-10.87,36.59-22.25,13.93-17.36,20.88-39.15,24.96-60.73,2.52-14.23,3.79-29.04.46-43.25-2.19-9.33-7.16-18.42-15.37-23.73-9.44-6.19-21.37-7-32.27-5.44m1.02-50.03c23.13-2.32,47.21-1,68.97,7.8,16.08,6.47,30.3,17.9,39.21,32.87,10.95,18.11,14.16,39.89,12.92,60.75-2.35,34.56-13.93,68.87-34.92,96.6-16.57,21.98-39.43,39.19-65.29,48.7-22.42,8.34-46.72,11.12-70.51,9.26-17.56-1.43-35.21-5.91-50.22-15.38-12.63-7.88-22.89-19.45-29.18-32.94-8.29-17.48-10.25-37.3-8.79-56.4,2.85-33.03,14.03-65.69,33.87-92.42,16.01-21.66,38.03-38.89,63.12-48.8,13.05-5.22,26.85-8.52,40.82-10.04m-451.81,5.15c16.26-4.89,33.46-7.31,50.42-5.54,11.88,1.26,23.97,5.38,32.48,14.09,9.34,9.37,13.27,22.72,14.43,35.59,1.67,19.54-1.51,39.09-5.53,58.16-10.2,47.97-20.39,95.95-30.6,143.93-24.26,0-48.52,0-72.78,0,10.32-48.64,20.7-97.26,30.99-145.89,1.67-8.99,2.41-18.99-2.15-27.28-3.35-6.15-10.1-9.64-16.84-10.6-13.12-1.85-26.73,1.15-38.22,7.65-11.41,6.44-20.95,15.94-28.13,26.85-1.04,1.61-2.23,3.21-2.61,5.14-10.22,48.03-20.42,96.08-30.64,144.12-24.26.03-48.52.01-72.77,0,17.47-82.33,35-164.65,52.48-246.98,24.26-.02,48.52,0,72.78-.01-1.77,8.5-3.61,16.98-5.4,25.48,16.28-10.3,33.6-19.15,52.09-24.71m1010.96,63.9c-13.32,7-22.96,19.44-29.19,32.9-6.52,14.23-10.19,29.72-11.23,45.32-.61,11.78.79,24.68,8.59,34.09,7.01,8.5,18.49,11.64,29.14,11.54,17.45-.28,34.78-4.19,50.93-10.74,7.66-36.09,15.38-72.17,22.99-108.27-13.03-6.52-27.48-9.96-41.98-10.87-10.05-.65-20.33,1.29-29.25,6.03m-20.54-64.59c19.48-6.75,40.86-7.79,60.97-3.31,15.6,3.51,30.63,11.01,41.47,22.96,5.22-6.49,9.95-13.48,15.49-19.65,20.24-.19,40.5-.02,60.75-.08-13.55,63.05-27.11,126.11-40.7,189.16-.66,3.21-.36,6.5-.39,9.76,0,16.02,0,32.05,0,48.08-20.14,0-40.28,0-60.41-.01-3.41-6.56-6.8-13.13-10.22-19.69-15.87,11.03-34.18,18.39-53.15,21.93-18.98,3.54-38.99,3.51-57.44-2.67-13.64-4.51-26.08-12.91-34.79-24.39-10.65-13.81-15.74-31.15-17.14-48.35-1.9-23.97,2.41-47.99,9.21-70.91,8.48-28.06,22.26-55.14,43.39-75.81,12.15-11.95,26.82-21.44,42.97-27.02m259.71-.08c7.29-22.18,14.5-44.39,21.76-66.58,21.72-.01,43.45,0,65.18,0-4.69,22.19-9.44,44.38-14.13,66.57,18.44.03,36.89,0,55.33.02-4.24,20-8.49,39.99-12.75,59.99-18.45.02-36.9,0-55.34.01-7.6,35.68-15.18,71.36-22.76,107.05-1.2,5.9-1.55,12.59,1.89,17.86,3.52,5.28,9.99,7.6,16.08,8.2,10.83,1.1,21.68-.75,32.36-2.45-3.9,18.96-7.83,37.92-11.76,56.88-12.63,3.34-25.59,5.7-38.68,6.07-8.04.42-15.99-.96-23.99-1.38-10.32-.87-20.79-2.61-30.13-7.27-7.06-3.49-13.12-9.1-16.75-16.12-4.83-9.14-5.97-19.72-5.84-29.91.33-19.34,5.58-38.07,9.36-56.91,5.8-27.34,11.64-54.68,17.42-82.02-11.97-.02-23.94,0-35.91-.02,4.23-20,8.5-39.99,12.74-59.98,11.97-.02,23.94,0,35.92-.01m-548.44,73.27c-13.3,12.46-20.82,29.83-24.98,47.29-2.87,12.57-4.74,25.69-2.57,38.53,1.44,8.6,5.43,17.16,12.6,22.44,7.82,5.86,17.98,7.34,27.52,6.93,16.9-.89,33.71-4.41,49.44-10.69,7.64-36.08,15.33-72.15,23-108.23-13.83-6.73-29.19-10-44.48-10.94-14.79-.93-29.8,4.45-40.53,14.67m123.39-184.26c24.03-.01,48.07-.02,72.11.01-21.09,98.3-42.15,196.62-63.22,294.93-.7,3.28-1.68,6.55-1.56,9.95.04,17.7.01,35.4.01,53.1-20.12,0-40.23,0-60.35,0-3.42-6.56-6.81-13.14-10.22-19.71-15.66,10.9-33.71,18.2-52.42,21.81-18.86,3.6-38.74,3.71-57.15-2.2-13.7-4.35-26.27-12.54-35.17-23.89-10.83-13.62-16.14-30.87-17.69-48.01-2.13-23.75,2.03-47.6,8.6-70.37,8.27-28.13,21.81-55.32,42.63-76.3,10.9-10.92,23.78-19.97,38.06-25.89,21.18-8.85,45.14-10.66,67.49-5.58,15.47,3.51,30.31,11,41.1,22.8,9.27-43.55,18.5-87.1,27.78-130.65m-1065.2-.01c29.47.01,58.94,0,88.41.01-25.36,119.33-50.71,238.66-76.09,357.99-29.47,0-58.94,0-88.41,0,25.34-119.34,50.72-238.67,76.09-358m476.53,13.02c17.54-11.84,38.9-16.67,59.83-17.24,16.87-.7,33.82,1.78,49.87,7.02-6.87,17.66-13.77,35.31-20.64,52.98-13.57-1.9-28.06-3.48-40.96,2.28-9.25,4.07-15.14,13.28-17.43,22.85-2.29,10-4.29,20.06-6.46,30.09,17.43.01,34.85,0,52.28,0-4.25,20-8.49,40-12.76,60-17.43.01-34.85,0-52.28,0-19.78,93.14-39.56,186.28-59.34,279.42-24.26,0-48.51.03-72.77-.02,19.74-93.14,39.57-186.26,59.31-279.4-11.97,0-23.94.01-35.91,0,4.22-20,8.49-39.99,12.74-59.98,11.98-.02,23.96,0,35.94-.02,4.19-18.25,6.67-37.08,14.09-54.43,7.14-17.32,18.77-33.1,34.49-43.54"/><path class="cls-16" d="m253.84,38.77c-2.49,10.64-5.52,21.2-9.7,31.3-7.47,16.11-19.73,29.37-32.44,41.51-14.68,13.82-30.64,26.18-46.69,38.34-27.33,20.5-54.71,41.01-80.69,63.22-20.68,18.02-40.82,37.55-54.33,61.7-6.54,11.49-10.86,24.64-9.85,38,1.17,17.17,8.97,32.89,16.59,48.01,5.63,11.7,14.06,21.72,22.57,31.43,12.09,13.57,25.19,26.23,39.17,37.84-25.53-17.91-50.02-37.98-69.15-62.8-14.59-18.97-25.57-41.68-26.47-65.93v-8.33c1.53-27.1,14.98-51.88,31.72-72.63,19.94-24.68,44.29-45.34,69.27-64.74,35.82-27.78,73.96-52.39,109.8-80.14,14.3-11.21,28.29-22.99,40.2-36.78"/><path class="cls-13" d="m132.87,82.5c10.31-7.15,21.06-13.66,31.22-21.05,6.06,1.41,11.58,4.36,16.6,7.96-9.55,7.68-19.73,14.51-29.87,21.38l-.37-.19c-5.76-2.92-11.45-6.01-17.58-8.1"/><path class="cls-20" d="m97.86,105.22c11.47-7.87,23.31-15.18,35.01-22.72,6.13,2.09,11.82,5.18,17.58,8.1-11.35,7.96-23.07,15.41-34.78,22.82-5.26-4.03-11.35-6.79-17.81-8.2"/><path class="cls-4" d="m75.88,120.55c7.11-5.4,14.59-10.31,21.98-15.33,6.46,1.41,12.55,4.17,17.81,8.2-7.54,4.95-14.98,10.05-22.48,15.06-5.71-2.78-11.49-5.4-17.31-7.93"/><path class="cls-5" d="m55.09,136.66c6.65-5.72,13.7-10.95,20.79-16.11,5.82,2.53,11.6,5.15,17.31,7.93-7.52,5.19-14.83,10.67-22.14,16.15-5.46-2.36-10.81-4.98-15.96-7.97"/><path class="cls-12" d="m236.97,174.88c-3.44,6.86-7.63,13.24-11.96,19.55-8.69,10.74-19.46,19.45-30.05,28.21-10.9,8.54-22.34,16.36-33.26,24.86-7.26,5.52-14.55,11.03-21.25,17.23-7.35,6.36-14.29,13.26-20.35,20.87-7.9,9.93-14.53,21.04-18.25,33.24-3.82,12.59-4.93,25.94-3.51,39.01.48,3.77,2.28,7.18,3.67,10.66,4.72,10.76,10.39,21.14,17.16,30.75-1.57-5.31-3.57-10.48-4.93-15.85-5.02-18.53-6.34-38.51-.81-57.08,3.79-12.91,10.51-24.82,18.94-35.28,7.13-8.68,15.32-16.38,23.61-23.93,6.87-5.08,13.46-10.86,20.43-15.95,10.22-7.39,20.36-14.91,30.28-22.71,11.25-8.27,21.61-17.89,30.38-28.78,3.94-4.15,6.67-9.27,9.3-14.3.67-1.8,2.13-3.99.89-5.84-3.18-2.05-6.76-3.35-10.29-4.66m15.32-41.48c3.84,13.2,4.98,27.48,1.21,40.84-3.88,14.32-12.83,26.67-23.12,37.13-22.74,22.7-50.87,38.88-74.96,60-17.44,15.11-33.29,33.58-39.62,56.21-6.83,23.55-2.47,48.77,6.14,71.24,2.81,7.48,6.18,14.73,9.71,21.88-11.58-14.48-22.13-29.91-30.11-46.68-9.64-20.11-15.1-43.16-10.31-65.33,4.71-22.75,19.29-41.97,35.75-57.75,26.49-25.36,58.15-44.36,86.16-67.89,16.12-13.67,31.8-29.37,39.15-49.65"/><path class="cls-7" d="m30.83,159.44c7.43-8.25,15.76-15.64,24.26-22.78,5.15,2.99,10.5,5.61,15.96,7.97-8.85,6.88-17.44,14.12-25.47,21.96l-.21-.11c-4.8-2.44-9.62-4.84-14.54-7.04"/><path class="cls-14" d="m19.94,172.88c2.85-5.03,7.16-9.06,10.89-13.44,4.92,2.2,9.74,4.6,14.54,7.04-14.17,13.93-26.74,29.68-35.41,47.65,1.55-14.09,4.69-28.07,9.98-41.25"/><path class="cls-8" d="m236.97,174.88c3.53,1.31,7.11,2.61,10.29,4.66,1.24,1.85-.22,4.04-.89,5.84-2.63,5.03-5.36,10.15-9.3,14.3-3.98-1.84-8-3.59-12.06-5.25,4.33-6.31,8.52-12.69,11.96-19.55"/><path class="cls-11" d="m194.96,222.64c10.59-8.76,21.36-17.47,30.05-28.21,4.06,1.66,8.08,3.41,12.06,5.25-8.77,10.89-19.13,20.51-30.38,28.78-3.75-2.25-7.66-4.22-11.73-5.82"/><path class="cls-19" d="m161.7,247.5c10.92-8.5,22.36-16.32,33.26-24.86,4.07,1.6,7.98,3.57,11.73,5.82-9.92,7.8-20.06,15.32-30.28,22.71-4.7-1.93-9.66-3.14-14.71-3.67"/><path class="cls-18" d="m140.45,264.73c6.7-6.2,13.99-11.71,21.25-17.23,5.05.53,10.01,1.74,14.71,3.67-6.97,5.09-13.56,10.87-20.43,15.95-5.12-1.16-10.32-1.88-15.53-2.39"/><path class="cls-3" d="m120.1,285.6c6.06-7.61,13-14.51,20.35-20.87,5.21.51,10.41,1.23,15.53,2.39-8.29,7.55-16.48,15.25-23.61,23.93-4-2.02-8.08-3.85-12.27-5.45"/><path class="cls-21" d="m120.1,285.6c4.19,1.6,8.27,3.43,12.27,5.45-8.43,10.46-15.15,22.37-18.94,35.28-2.7-4-7.43-5.51-11.58-7.49,3.72-12.2,10.35-23.31,18.25-33.24"/><path class="cls-6" d="m101.85,318.84c4.15,1.98,8.88,3.49,11.58,7.49-5.53,18.57-4.21,38.55.81,57.08,1.36,5.37,3.36,10.54,4.93,15.85-6.77-9.61-12.44-19.99-17.16-30.75-1.39-3.48-3.19-6.89-3.67-10.66-1.42-13.07-.31-26.42,3.51-39.01"/></g></g></svg>