<?xml version="1.0" encoding="UTF-8"?>
<svg xmlns="http://www.w3.org/2000/svg" id="arrow-right-circle" width="15.219" height="15.219" viewBox="0 0 15.219 15.219">
  <g id="Group_978" data-name="Group 978" transform="translate(0 0)">
    <path id="Path_17463" data-name="Path 17463" d="M.951,7.61A6.659,6.659,0,1,0,7.61.951,6.659,6.659,0,0,0,.951,7.61Zm14.268,0A7.61,7.61,0,1,1,7.61,0a7.61,7.61,0,0,1,7.61,7.61ZM4.28,7.134a.476.476,0,0,0,0,.951h5.51L7.749,10.127a.476.476,0,1,0,.673.673l2.854-2.854a.476.476,0,0,0,0-.673L8.422,4.419a.476.476,0,0,0-.673.673L9.791,7.134Z" transform="translate(0 0)" fill="#fff" fill-rule="evenodd"></path>
  </g>
</svg>
