<svg xmlns="http://www.w3.org/2000/svg" width="45.384" height="45.384" viewBox="0 0 45.384 45.384">
  <g id="americasglobe" transform="translate(-1.308 -1.402)">
    <path id="Path_17479" data-name="Path 17479" d="M15.744,2.952a22.459,22.459,0,0,1,5.848-1.424A5.4,5.4,0,0,1,21.477,4.3,10.565,10.565,0,0,0,20.778,3c-.482-.672-1.136-.547-1.469.241a1.775,1.775,0,0,1-1.731,1.115c-.156-.018-.414-.143-.43-.249-.144-.957-.762-1.075-1.4-1.15ZM29.5,4.339,29.459,4.3l.044.042a13.06,13.06,0,0,1-.828-1.067c-.318-.5-.6-1.032-.886-1.554q-.746-.126-1.5-.2C26.514,3.171,27.445,3.988,29.5,4.339Zm-6.374,8.609a5.6,5.6,0,0,0,.824-.339c.353-.117.974.3,1.021-.325.023-.3-.429-.692-.744-.945a6.022,6.022,0,0,0-1.244-.7c-.06-.028-.347.273-.341.28.439.586.1,1.123-.189,1.808.254.091.478.252.673.223ZM46.692,24.094A22.692,22.692,0,1,1,6.1,10.145c.505.363,1.012.724,1.544,1.041a1.5,1.5,0,0,1,.771,1.51,6.327,6.327,0,0,0,.018,1.632,4.649,4.649,0,0,0,.779,2.149,37.506,37.506,0,0,1,3.513,4.587c.408.584.629.385.765-.21.042-.186.247-.334.377-.5.122.113.294.2.36.344a6.215,6.215,0,0,0,4.656,3.618,1.153,1.153,0,0,1,.792.553c.243.841.819.964,1.54.918a1.249,1.249,0,0,1,1.439.828,1.959,1.959,0,0,0,2.034,1.446c.763,0,.865.333.619,1.095-.092.286-.2.567-.287.855-.608,2.081-.438,3.952,1.443,5.37.289.218.544.482.814.726a3.52,3.52,0,0,1,1.187,2.74,9.716,9.716,0,0,1-.584,3.734c-.276.684-.57,1.5.087,2,.632.481,1.394.059,2.028-.321a8.978,8.978,0,0,0,.717-.557c.92-.689,1.814-1.416,2.772-2.048a6.265,6.265,0,0,0,2.277-2.517,5.218,5.218,0,0,1,2.587-2.689,4.708,4.708,0,0,0,2.3-2.91,1.613,1.613,0,0,0-.594-2.095,8.4,8.4,0,0,0-2.079-1.013,2.58,2.58,0,0,1-1.617-1.237,5.7,5.7,0,0,0-5.2-3.046,3.317,3.317,0,0,1-1.262-.055,3.077,3.077,0,0,0-3.046.423c-1.234.768-2,.274-2.1-1.2-.035-.509-.047-1.086-.581-1.212-1.118-.264-1.679-.673-.95-1.859.068-.11-.229-.641-.392-.66a2.728,2.728,0,0,0-1.35.149c-.365.159-.606.582-.94.84a1.36,1.36,0,0,1-1.6-.315A2.978,2.978,0,0,1,19.48,18.6a5.1,5.1,0,0,1,3.171-.48c.65.018.881.525,1.2.971.365.508.652,1.343,1.464,1.069.709-.239.74-1.031.812-1.7a.786.786,0,0,0,0-.182c-.166-1.283.559-2.147,1.33-3.042.823-.957,1.625-1.763,3.056-1.5.311.056.7-.324,1.053-.5-.176-.281-.29-.654-.542-.822-.531-.356-.279-.63.081-.723a1.635,1.635,0,0,1,1.678.226c.717.613,1.318.486,1.643-.109a1.268,1.268,0,0,0-.518-1.818q-3.015-1.828-6.02-3.673a1.078,1.078,0,0,0-1.311.319,3.26,3.26,0,0,0-.358,1.153,7.048,7.048,0,0,0,.005.722c-.045.477-.537.787-.879.479a3.166,3.166,0,0,0-2.967-.832.856.856,0,0,1-.951-.88c-.006-.635.235-1.091.922-1.079.824.014,1.336-.2,1.514-1.127.089-.465,1.347-.714,1.748-.26.7.794,1.694.786,2.5,1.233a10.01,10.01,0,0,0,1.254.121c.826-.02.912-.216.583-1.169-.038-.111-.084-.219-.127-.329l0,0,.039.039h0L29.853,4.7l-.029-.03c1.994.84,4.121,1.364,5.607,3.2,1.1,1.352,2.8,1.161,3.936-.2-.31-.35-.582-.748-.921-1.062a22.642,22.642,0,0,1,8.246,17.5Z" fill="#e31e26"/>
    <path id="Path_17480" data-name="Path 17480" d="M28.675,3.272c-.318-.5-.6-1.032-.886-1.554A22.523,22.523,0,0,1,37.11,5.571q.395.284.78.579.282.218.556.445c.339.314.611.712.921,1.062-1.141,1.366-2.84,1.557-3.936.2-1.485-1.832-3.613-2.356-5.607-3.2h0L29.5,4.339h0L29.459,4.3l.044.042a13.09,13.09,0,0,1-.828-1.067ZM30.6,21.905a1.216,1.216,0,0,0-.708-.06,2.448,2.448,0,0,1-2.118-.744,1.927,1.927,0,0,0-.977-.351c-.547,0-.73-.016-.909,0-1.071.109-1.833.6-1.826,1.165s.726.94,1.933.883a2.824,2.824,0,0,1,2.29.694,2.006,2.006,0,0,0,2.657-.075.991.991,0,0,0,.321-.767A1.612,1.612,0,0,0,30.6,21.905Zm15.784-1.651c-.765-.765-2.2-.971-2.7,1.247s.709,6.16,2.811,5.382A25.934,25.934,0,0,0,46.385,20.254ZM7.646,11.187c-.532-.317-1.038-.679-1.544-1.041a22.7,22.7,0,0,1,9.642-7.193c.642.074,1.26.193,1.4,1.15.016.105.273.231.43.249a1.775,1.775,0,0,0,1.731-1.115c.333-.787.987-.912,1.469-.241a10.559,10.559,0,0,1,.7,1.308,5.4,5.4,0,0,0,.114-2.775q.209-.022.418-.041a22.952,22.952,0,0,1,4.28.028c.224,1.655,1.156,2.472,3.21,2.822l.325.328c.043.109.089.218.127.329.329.952.243,1.149-.583,1.169a10.011,10.011,0,0,1-1.254-.121c-.81-.447-1.8-.439-2.5-1.233-.4-.454-1.659-.2-1.748.26-.179.928-.69,1.141-1.514,1.127-.687-.012-.927.445-.922,1.079a.856.856,0,0,0,.951.88,3.166,3.166,0,0,1,2.967.832c.342.308.835,0,.879-.479a7.02,7.02,0,0,1-.005-.722,3.26,3.26,0,0,1,.358-1.153,1.078,1.078,0,0,1,1.311-.319q3.009,1.837,6.02,3.673a1.268,1.268,0,0,1,.518,1.818c-.325.595-.926.723-1.643.109a1.635,1.635,0,0,0-1.678-.226c-.359.093-.611.367-.081.723.251.168.365.542.542.822-.353.179-.743.56-1.053.5-1.432-.259-2.233.547-3.056,1.5-.771.9-1.5,1.759-1.33,3.042a.785.785,0,0,1,0,.182c-.071.667-.1,1.46-.812,1.7-.811.273-1.1-.561-1.464-1.069-.322-.447-.552-.954-1.2-.971a5.1,5.1,0,0,0-3.171.48,2.978,2.978,0,0,0-.535,3.654,1.36,1.36,0,0,0,1.6.315c.334-.257.575-.681.94-.84a2.728,2.728,0,0,1,1.35-.149c.163.019.46.549.392.66-.729,1.186-.168,1.595.95,1.859.534.126.546.7.581,1.212.1,1.474.867,1.968,2.1,1.2A3.077,3.077,0,0,1,29.9,26.09a3.317,3.317,0,0,0,1.262.055,5.7,5.7,0,0,1,5.2,3.046,2.58,2.58,0,0,0,1.617,1.237,8.4,8.4,0,0,1,2.079,1.013,1.613,1.613,0,0,1,.594,2.095,4.709,4.709,0,0,1-2.3,2.91,5.217,5.217,0,0,0-2.587,2.689,6.265,6.265,0,0,1-2.277,2.517c-.958.632-1.852,1.359-2.772,2.048a8.96,8.96,0,0,1-.717.557c-.634.38-1.4.8-2.028.321-.657-.5-.364-1.316-.087-2a9.719,9.719,0,0,0,.584-3.734,3.52,3.52,0,0,0-1.187-2.74c-.27-.244-.524-.508-.814-.726-1.881-1.417-2.051-3.288-1.443-5.37.084-.288.194-.569.287-.855.246-.762.144-1.095-.619-1.095a1.96,1.96,0,0,1-2.034-1.446,1.249,1.249,0,0,0-1.439-.828c-.722.047-1.3-.077-1.54-.918a1.153,1.153,0,0,0-.792-.553A6.215,6.215,0,0,1,14.228,20.7c-.065-.14-.237-.23-.36-.344-.13.166-.335.314-.377.5-.136.6-.357.794-.765.21a37.514,37.514,0,0,0-3.513-4.587,4.65,4.65,0,0,1-.779-2.149A6.331,6.331,0,0,1,8.417,12.7a1.5,1.5,0,0,0-.771-1.511Z" fill="#fff"/>
  </g>
</svg>
