<svg xmlns="http://www.w3.org/2000/svg" width="47.407" height="47.407" viewBox="0 0 47.407 47.407">
  <g id="chart-cluster-bar" transform="translate(-2.25 -2.25)">
    <path id="Path_10" data-name="Path 10" d="M49.657,49.657H5.636A3.386,3.386,0,0,1,2.25,46.271V2.25H5.636V46.271H49.657Z" transform="translate(0 0)" fill="#e31e26"/>
    <path id="Path_11" data-name="Path 11" d="M11.25,18h3.386V34.931H11.25Z" transform="translate(4.545 7.953)" fill="#e31e26"/>
    <path id="Path_12" data-name="Path 12" d="M7.875,24.75h3.386v6.772H7.875Z" transform="translate(2.84 11.362)" fill="#e31e26"/>
    <path id="Path_13" data-name="Path 13" d="M29.25,9h3.386V39.476H29.25Z" transform="translate(13.634 3.409)" fill="#e31e26"/>
    <path id="Path_14" data-name="Path 14" d="M25.875,15.75h3.386V36.067H25.875Z" transform="translate(11.93 6.817)" fill="#e31e26"/>
    <path id="Path_15" data-name="Path 15" d="M20.261,37.2H16.875V13.5h3.386Z" transform="translate(7.385 5.681)" fill="#e31e26"/>
    <path id="Path_16" data-name="Path 16" d="M23.636,33.795H20.25V20.25h3.386Z" transform="translate(9.09 9.09)" fill="#e31e26"/>
  </g>
</svg>
