<svg xmlns="http://www.w3.org/2000/svg" width="44.942" height="48" viewBox="0 0 44.942 48">
  <g id="progress" transform="translate(-1.528 0)">
    <path id="Path_17475" data-name="Path 17475" d="M46.47,13.65V37.644a1.848,1.848,0,0,1-.838,1.45l-.786.47c-3.922,2.27-7.374,4.268-10.862,6.28V19.9L11.518,6.908C15.406,4.676,19.28,2.422,23.172.2a1.854,1.854,0,0,1,1.674,0l21.62,12.486v.964ZM28.988,22.774Q21.3,18.329,13.6,13.887a1.88,1.88,0,0,0-1.675,0q-5.2,3-10.4,6.008l16.226,9.368V48c3.464-2,6.92-4.012,10.394-5.99a1.854,1.854,0,0,0,.838-1.448ZM1.53,38.634l11.226,6.482V32.14Z" fill="#53823b"/>
  </g>
</svg>
