<svg xmlns="http://www.w3.org/2000/svg" width="48.002" height="47.995" viewBox="0 0 48.002 47.995">
  <g id="projectsend" transform="translate(0 -0.01)">
    <path id="Path_17476" data-name="Path 17476" d="M5.719,13.173,27.753.469A3.42,3.42,0,0,1,30.4.141a3.317,3.317,0,0,1,2.086,1.594L47.536,27.753A3.373,3.373,0,0,1,47.958,30a68.3,68.3,0,0,1-25.925-4.688Q10.5,20.627,5.719,13.173ZM45.427,32.957,20.205,47.536a3.474,3.474,0,0,1-4.735-1.266L0,21q6.657,5.391,18.869,8.626A106.229,106.229,0,0,0,45.427,32.957Z" fill="#5a3d84"/>
  </g>
</svg>
