<svg xmlns="http://www.w3.org/2000/svg" xmlns:xlink="http://www.w3.org/1999/xlink" width="64.693" height="42.465" viewBox="0 0 64.693 42.465">
  <defs>
    <clipPath id="clip-path">
      <rect id="Rectangle_1294" data-name="Rectangle 1294" width="64.693" height="42.465" fill="none"/>
    </clipPath>
  </defs>
  <g id="Group_1007" data-name="Group 1007" transform="translate(0 0)">
    <g id="Group_1006" data-name="Group 1006" transform="translate(0 0)" clip-path="url(#clip-path)">
      <path id="Path_17723" data-name="Path 17723" d="M5.377,14.08c-.005-.2-.013-.4-.013-.6V.508c0-.482,0-.474.479-.485,1.944-.034,3.888.058,5.83.1Q14,.175,16.336.25c1.931.066,3.862.134,5.793.124a7.793,7.793,0,0,1,3.377.925,13.82,13.82,0,0,1,6.86,7.049,13.062,13.062,0,0,1,1.151,5.161c.153,8.459.04,16.918.05,25.379,0,1.027-.066,2.057,0,3.087.024.369-.074.45-.443.45q-6.635,0-13.266,0c-.427,0-.474-.063-.443-.487.018-.253.011-.508.011-.764l.008-25.613c0-1.291-.116-1.407-1.4-1.409l-11.5,0a6.121,6.121,0,0,1-1.162-.071Z" transform="translate(8.766 0.027)" fill="#29a870"/>
      <path id="Path_17724" data-name="Path 17724" d="M19.165,14.623V.487c0-.414.066-.487.482-.487q6.469,0,12.934.005c.638,0,.788.155.788.793,0,4.389.034,8.78-.018,13.172q-.087,6.982-.021,13.967c.042,4.568.005,9.136.045,13.7,0,.066,0,.132,0,.2-.026.519-.234.7-.756.6-.577-.108-1.159-.211-1.728-.364a16.867,16.867,0,0,1-6.973-3.812,14.433,14.433,0,0,1-4.181-6.341,10.889,10.889,0,0,1-.566-3.4c-.013-4.634-.005-9.27-.005-13.9Z" transform="translate(31.314 0.001)" fill="#29a870"/>
      <path id="Path_17725" data-name="Path 17725" d="M14.14,5.39q0,3.825.008,7.65,0,9.875.005,19.755a3.626,3.626,0,0,0,.032.561c.045.269-.079.377-.321.379-.379.005-.756,0-1.135,0l-11.7,0c-.066,0-.132,0-.2,0C.186,33.73.012,33.567.009,32.9,0,31.43,0,29.968.012,28.506c.053-4.657.079-9.312.037-13.967C.025,11.647.02,8.754,0,5.862,0,5.374,0,5.377.492,5.377q6.417,0,12.832.008c.271,0,.548-.126.819.011l0-.005" transform="translate(0.001 8.714)" fill="#29a870"/>
    </g>
  </g>
</svg>
