<svg id="Group_1030" data-name="Group 1030" xmlns="http://www.w3.org/2000/svg" xmlns:xlink="http://www.w3.org/1999/xlink" width="34.026" height="47.494" viewBox="0 0 34.026 47.494">
  <defs>
    <clipPath id="clip-path">
      <rect id="Rectangle_215" data-name="Rectangle 215" width="34.026" height="47.494" fill="#5a3d84"/>
    </clipPath>
  </defs>
  <g id="Group_3" data-name="Group 3" clip-path="url(#clip-path)">
    <path id="Path_18" data-name="Path 18" d="M34.047,161.372v.388c0,3.066-.012,6.132.009,9.2a2.188,2.188,0,0,1-.737,1.694,7.7,7.7,0,0,1-2.237,1.4,25.4,25.4,0,0,1-6.127,1.728,48.609,48.609,0,0,1-14.252.237,27.065,27.065,0,0,1-7.376-1.844A13.982,13.982,0,0,1,1.086,172.9,2.329,2.329,0,0,1,.037,170.78c.046-2.991.017-5.983.017-8.974v-.374c.041-.006.068-.019.079-.01a16.213,16.213,0,0,0,5.9,2.564,42.729,42.729,0,0,0,8.52,1.2,50.115,50.115,0,0,0,8.289-.265,29.414,29.414,0,0,0,8.857-2.177,23.985,23.985,0,0,0,2.124-1.224c.06-.035.117-.075.223-.143" transform="translate(-0.032 -140.756)" fill="#5a3d84"/>
    <path id="Path_19" data-name="Path 19" d="M34.106,62.181v.572c0,3.024-.01,6.048.006,9.072a2.081,2.081,0,0,1-.637,1.543,6.99,6.99,0,0,1-2.094,1.381,23.528,23.528,0,0,1-6.012,1.776,47.657,47.657,0,0,1-17.462-.183A19.955,19.955,0,0,1,2.7,74.669a11.711,11.711,0,0,1-1.88-1.245A1.935,1.935,0,0,1,.1,71.792c.02-3.066.009-6.133.009-9.2v-.36c.043,0,.08-.005.1.009a15.539,15.539,0,0,0,5.562,2.475,40.868,40.868,0,0,0,7.778,1.218,50.585,50.585,0,0,0,8.676-.131,33.614,33.614,0,0,0,8.618-1.856A11.786,11.786,0,0,0,33.9,62.315c.048-.037.1-.067.2-.133" transform="translate(-0.09 -54.237)" fill="#5a3d84"/>
    <path id="Path_20" data-name="Path 20" d="M34.088,260.541v.38c0,2.822-.007,5.644.006,8.466a1.958,1.958,0,0,1-.541,1.388,6.983,6.983,0,0,1-2.41,1.587,24.913,24.913,0,0,1-6.094,1.728,48.32,48.32,0,0,1-15.581.056,23.319,23.319,0,0,1-6.9-2.018,10.023,10.023,0,0,1-1.676-1.1,2.1,2.1,0,0,1-.814-1.783c.029-2.768.012-5.537.012-8.306v-.36c.046.007.081,0,.1.017a15.6,15.6,0,0,0,5.688,2.5,45.474,45.474,0,0,0,12.6,1.283A40.675,40.675,0,0,0,29.6,262.729a13.609,13.609,0,0,0,4.345-2.1c.031-.023.067-.04.147-.086" transform="translate(-0.071 -227.256)" fill="#5a3d84"/>
    <path id="Path_21" data-name="Path 21" d="M17,10.382A45.049,45.049,0,0,1,5.788,8.945,14.374,14.374,0,0,1,1.62,7.216,5.892,5.892,0,0,1,.37,6.1,1.357,1.357,0,0,1,.357,4.25a5.442,5.442,0,0,1,1.19-1.091,14.7,14.7,0,0,1,4.342-1.8A38.789,38.789,0,0,1,14.106.086,48.614,48.614,0,0,1,24.168.521a25.9,25.9,0,0,1,6.73,1.8,10.752,10.752,0,0,1,2.116,1.227c1.351,1.025,1.339,2.161.025,3.236a11.293,11.293,0,0,1-3.726,1.842,32.731,32.731,0,0,1-7.436,1.462c-1.621.141-3.249.2-4.874.3M7.744,2.7c-.412.039-.829.054-1.236.124A4.083,4.083,0,0,0,4.1,3.962a1.633,1.633,0,0,0,.011,2.4,3.865,3.865,0,0,0,1.181.787,6.494,6.494,0,0,0,3.976.289,3.949,3.949,0,0,0,2-.988,1.678,1.678,0,0,0-.007-2.563,3.891,3.891,0,0,0-.917-.622,6.1,6.1,0,0,0-2.6-.559" transform="translate(0 0)" fill="#5a3d84"/>
    <path id="Path_22" data-name="Path 22" d="M32.188,21.165a6.1,6.1,0,0,1,2.6.559,3.9,3.9,0,0,1,.917.622,1.678,1.678,0,0,1,.007,2.563,3.949,3.949,0,0,1-2,.988,6.494,6.494,0,0,1-3.976-.289,3.866,3.866,0,0,1-1.181-.787,1.633,1.633,0,0,1-.011-2.4,4.084,4.084,0,0,1,2.408-1.135c.407-.07.824-.084,1.236-.124m.026,3.46s1.212-.193,1.828-.341c.346-.083.752-.233.741-.673-.01-.416-.409-.541-.739-.651a5.7,5.7,0,0,0-2.582-.227,7.181,7.181,0,0,0-1.5.386.7.7,0,0,0-.393.506c0,.175.224.377.392.516a1.116,1.116,0,0,0,.5.2c.562.1,1.128-.1,1.756,0" transform="translate(-24.444 -18.461)" fill="#5a3d84"/>
    <path id="Path_23" data-name="Path 23" d="M42.759,34.948c-.628-.1-1.194-.18-1.756-.283a1.115,1.115,0,0,1-.5-.2c-.168-.139-.393-.341-.392-.516a.7.7,0,0,1,.393-.506,7.181,7.181,0,0,1,1.5-.386,5.7,5.7,0,0,1,2.582.227c.33.11.729.235.739.651.01.44-.4.59-.741.673-.615.148-1.245.236-1.828.341" transform="translate(-34.989 -28.784)" fill="#5a3d84"/>
  </g>
</svg>
