<svg xmlns="http://www.w3.org/2000/svg" xmlns:xlink="http://www.w3.org/1999/xlink" width="619.144" height="309.639" viewBox="0 0 619.144 309.639">
  <defs>
    <clipPath id="clip-path">
      <rect id="Rectangle_1267" data-name="Rectangle 1267" width="619.144" height="309.639" fill="none"/>
    </clipPath>
  </defs>
  <g id="Group_992" data-name="Group 992" opacity="0.4" style="mix-blend-mode: overlay;isolation: isolate">
    <g id="Group_991" data-name="Group 991" clip-path="url(#clip-path)">
      <path id="Path_17547" data-name="Path 17547" d="M0,135.119a3.639,3.639,0,0,0,.5.089c.344.015.688.008,1.032.008q14.757,0,29.515,0c.378,0,.755.02,1.132.04a.45.45,0,0,1,.344.341c.01.1.02.206.021.309,0,.275,0,.55,0,.825q0,19.866,0,39.732c0,.378-.01.756-.024,1.134a.45.45,0,0,1-.338.346,2.84,2.84,0,0,1-.307.025c-.344,0-.688,0-1.032,0q-14.758,0-29.515,0A4.307,4.307,0,0,0,0,178.056V135.119m11.272,12.717q-3.819,0-7.638,0c-1.18,0-1.2.02-1.2,1.216q-.005,7.535,0,15.068c0,1.166.106,1.2,1.24,1.2q3.354-.005,6.709,0,4.129,0,8.256,0c1.294,0,1.283-.015,1.282-1.233q0-7.535,0-15.068c0-1.19,0-1.183-1.212-1.183H11.272" transform="translate(0 -18.902)" fill="#5a3d84"/>
      <path id="Path_17548" data-name="Path 17548" d="M0,35.28c.482.006.963.017,1.444.017l29.512,0c.412,0,.824.022,1.235.044a.408.408,0,0,1,.331.347c.01.1.022.2.022.308,0,.274,0,.55,0,.825q0,19.813,0,39.624c0,.378-.011.756-.025,1.134a.4.4,0,0,1-.335.342c-.136.014-.274.027-.41.028-.344,0-.688,0-1.032,0q-14.652,0-29.306,0c-.48,0-.961.034-1.441.052V35.28M19.915,56.556q0-3.711,0-7.422c0-.308-.016-.617-.035-.925a.417.417,0,0,0-.341-.34c-.308-.025-.616-.051-.924-.051q-7.421-.005-14.843,0c-.274,0-.55.009-.823.027a.5.5,0,0,0-.483.45c-.023.308-.034.618-.034.926q0,7.318,0,14.636c0,.275,0,.55.015.824a1.209,1.209,0,0,0,.058.3.353.353,0,0,0,.281.268,8.474,8.474,0,0,0,.922.054q7.473.005,14.946,0c.274,0,.55-.008.824-.022a.414.414,0,0,0,.409-.381c.017-.343.028-.686.029-1.03q0-3.659,0-7.319" transform="translate(0 -4.935)" fill="#5a3d84"/>
      <path id="Path_17549" data-name="Path 17549" d="M0,235.2c.446.02.891.058,1.337.058q14.861.005,29.722,0c.378,0,.755.014,1.133.03a.394.394,0,0,1,.333.342c.014.309.024.618.024.928q0,4.334,0,8.668,0,15.584,0,31.167c0,.378-.013.755-.028,1.133a.422.422,0,0,1-.325.356,2.309,2.309,0,0,1-.306.04c-.275.009-.55.012-.826.012H.826c-.275,0-.55-.006-.826-.009V235.2m19.915,21.344q0-3.66,0-7.32c0-.309,0-.618-.022-.927a.389.389,0,0,0-.371-.421A8.009,8.009,0,0,0,18.5,247.8q-7.32-.006-14.641,0c-.206,0-.412,0-.618.013a2.286,2.286,0,0,0-.306.037c-.328.06-.444.219-.467.467-.026.274-.033.549-.033.823q0,7.424,0,14.847c0,.241,0,.482.013.722.022.417.212.6.658.627.342.018.686.017,1.03.017H15.679c1,0,1.994,0,2.99,0a8.16,8.16,0,0,0,.821-.053.444.444,0,0,0,.4-.406c.016-.308.026-.618.027-.926q0-3.712,0-7.424" transform="translate(0 -32.903)" fill="#5a3d84"/>
      <path id="Path_17550" data-name="Path 17550" d="M281.017,0a3.74,3.74,0,0,0-.089.5c-.016.343-.009.687-.009,1.031q0,13.512,0,27.024c0,.377-.023.753-.047,1.13a.457.457,0,0,1-.346.341c-.1.011-.2.022-.308.023-.275,0-.55,0-.825,0h-39.71c-.378,0-.756-.01-1.134-.023a.493.493,0,0,1-.353-.338,3.077,3.077,0,0,1-.026-.307c0-.31,0-.619,0-.929q0-13.563,0-27.127A4.2,4.2,0,0,0,238.08,0h12.8a3.546,3.546,0,0,0-.075,1.127q-.005,5.313,0,10.627c0,1.479,0,2.958,0,4.436,0,.274.02.549.04.822a.4.4,0,0,0,.341.338c.377.024.753.047,1.131.047q5.984.005,11.968,0c.963,0,1.927,0,2.889,0,.24,0,.48-.022.718-.046a.425.425,0,0,0,.345-.338c.022-.274.045-.548.045-.821q0-7.635,0-15.27c0-.308-.04-.615-.063-.923Z" transform="translate(-33.306)" fill="#5a3d84"/>
      <path id="Path_17551" data-name="Path 17551" d="M180.969,0c-.022.41-.063.821-.064,1.232q-.006,8.1,0,16.194,0,5.623,0,11.243c0,.343-.014.687-.029,1.03a.448.448,0,0,1-.351.335c-.1.01-.206.018-.308.019-.275,0-.55,0-.826,0q-19.8,0-39.609,0c-.378,0-.755-.013-1.133-.028a.46.46,0,0,1-.362-.323,2.641,2.641,0,0,1-.04-.306c-.009-.24-.011-.481-.011-.722q0-14.08,0-28.159c0-.172,0-.344.006-.516h12.592c-.016.446-.046.892-.046,1.338q-.005,7.171,0,14.341c0,.31,0,.619.008.928a3.092,3.092,0,0,0,.051.407.456.456,0,0,0,.348.341c.342.022.686.043,1.029.043q6.5.005,13,0c.688,0,1.375,0,2.063,0,.206,0,.411-.025.615-.047a.414.414,0,0,0,.336-.342c.018-.343.034-.686.034-1.03q0-7.377,0-14.754c0-.275,0-.55-.011-.825a2.527,2.527,0,0,0-.087-.4Z" transform="translate(-19.338)" fill="#5a3d84"/>
      <path id="Path_17552" data-name="Path 17552" d="M80.89,0c-.007.481-.019.962-.019,1.443q0,13.46,0,26.921,0,.618-.028,1.236a.454.454,0,0,1-.474.442c-.1.007-.206.011-.309.012-.241,0-.482,0-.722,0H39.729c-.378,0-.756-.01-1.134-.024a.438.438,0,0,1-.353-.33c-.015-.136-.028-.274-.031-.41,0-.344,0-.688,0-1.031q0-13.409,0-26.818c0-.48-.03-.96-.046-1.441H50.752c0,.446.007.893.007,1.339q0,7.107,0,14.215c0,.343,0,.687.015,1.03a2.238,2.238,0,0,0,.094.5.354.354,0,0,0,.289.263,6.888,6.888,0,0,0,.821.048q7.572,0,15.142,0c.172,0,.344,0,.515-.009.49-.022.654-.188.68-.705.014-.274.013-.55.013-.824q0-7.416,0-14.833c0-.342-.019-.686-.029-1.029Z" transform="translate(-5.338)" fill="#5a3d84"/>
      <path id="Path_17553" data-name="Path 17553" d="M88.08,356.545a4.434,4.434,0,0,0,.077-.506c.013-.343.007-.687.007-1.031q0-9.076,0-18.153c0-.344,0-.688.013-1.031.011-.324.184-.484.526-.507.137-.009.275-.012.412-.014.206,0,.413,0,.619,0h39.607c.378,0,.756.012,1.134.03a.436.436,0,0,1,.41.394q.031.462.032.926,0,5.105,0,10.211,0,4.279,0,8.561a2.717,2.717,0,0,0,.095,1.121h-12.8a2.878,2.878,0,0,0,.058-.407q.006-3.762,0-7.526a2.836,2.836,0,0,0-.042-.408.438.438,0,0,0-.35-.335c-.377-.024-.753-.047-1.13-.048q-7.217,0-14.434,0c-.24,0-.481,0-.722.005-.658.021-.775.14-.8.79q0,.1,0,.206,0,3.505,0,7.011a6.9,6.9,0,0,0,.073.713Z" transform="translate(-12.322 -46.906)" fill="#5a3d84"/>
      <path id="Path_17554" data-name="Path 17554" d="M288.239,356.545q0-2.011-.007-4.022v-15.78c0-1.469-.024-1.443,1.4-1.442h39.4c.344,0,.687,0,1.031,0,.138,0,.274.014.411.027a.434.434,0,0,1,.413.387c.011.137.017.274.019.412,0,.31,0,.618,0,.928q0,9.076,0,18.152a5.421,5.421,0,0,0,.064,1.335h-12.8a2.844,2.844,0,0,0,.089-.5q.01-3.712,0-7.423a3.664,3.664,0,0,0-.033-.41.421.421,0,0,0-.342-.337c-.377-.025-.753-.051-1.13-.052q-5.928-.005-11.856,0c-1,0-1.993,0-2.99,0-.239,0-.479.021-.718.044a.446.446,0,0,0-.35.337c-.03.306-.059.614-.06.922q-.008,3.247,0,6.495c0,.308.029.617.046.925Z" transform="translate(-40.322 -46.906)" fill="#5a3d84"/>
      <path id="Path_17555" data-name="Path 17555" d="M188.16,356.545c.016-.446.046-.892.046-1.337q0-9.18,0-18.357c0-.344,0-.688.016-1.031s.175-.484.526-.5.687-.017,1.03-.017h39.292c.378,0,.757,0,1.134.011.483.018.629.156.649.607.014.309.012.618.012.928q0,4.692,0,9.385,0,4.589,0,9.179c0,.378.012.756.019,1.134H218.3c.01-.378.028-.756.029-1.134q0-2.992,0-5.983c0-.275,0-.551-.01-.825a2.6,2.6,0,0,0-.061-.405.479.479,0,0,0-.354-.337c-.308-.02-.618-.04-.926-.04q-7.426,0-14.854,0c-.274,0-.55.009-.824.026a.488.488,0,0,0-.482.45c-.034.375-.054.753-.055,1.131q-.01,3.558-.009,7.117Z" transform="translate(-26.322 -46.906)" fill="#5a3d84"/>
      <path id="Path_17556" data-name="Path 17556" d="M356.952,328.057a4.62,4.62,0,0,0-.506-.075c-.309-.014-.618-.008-.928-.008q-7.99,0-15.98,0c-1.355,0-1.324.044-1.324-1.273q0-20.1,0-40.207c0-.309.019-.618.035-.925a.411.411,0,0,1,.267-.287,1.672,1.672,0,0,1,.3-.058c.309-.009.618-.008.928-.008q7.99,0,15.979,0a3.162,3.162,0,0,0,1.224-.094v12.8a6.425,6.425,0,0,0-.71-.077c-1.509-.008-3.017,0-4.527,0-.1,0-.206,0-.308.008-.069,0-.137.013-.2.021a.4.4,0,0,0-.351.324,7.324,7.324,0,0,0-.081.918q-.008,7.458,0,14.917c0,.1,0,.206,0,.308.03.932.192.985,1.042.985,1.51,0,3.018,0,4.527,0,.2,0,.409-.037.612-.057Z" transform="translate(-47.314 -39.886)" fill="#5a3d84"/>
      <path id="Path_17557" data-name="Path 17557" d="M356.953,228.01c-.446-.018-.892-.052-1.337-.052q-8-.006-16,0c-.344,0-.687-.014-1.03-.03a.4.4,0,0,1-.339-.336c-.014-.137-.026-.274-.028-.411-.005-.275,0-.55,0-.826q0-19.714,0-39.427c0-.412.016-.825.034-1.237a.407.407,0,0,1,.333-.345,4.079,4.079,0,0,1,.41-.038c.309-.006.619-.005.929-.005h15.688c.447,0,.895-.011,1.342-.017v12.592a3.462,3.462,0,0,0-.408-.047q-2.469-.006-4.94,0a3.276,3.276,0,0,0-.409.038.492.492,0,0,0-.348.34,4.458,4.458,0,0,0-.081,1.227q0,7.153,0,14.3c0,.308,0,.618.024.925a1.07,1.07,0,0,0,.1.393.414.414,0,0,0,.214.2,1.243,1.243,0,0,0,.4.055q2.469.005,4.94,0a2.909,2.909,0,0,0,.5-.089Z" transform="translate(-47.314 -25.919)" fill="#5a3d84"/>
      <path id="Path_17558" data-name="Path 17558" d="M356.953,127.93c-.31,0-.618.009-.928.009q-8.143,0-16.289,0c-.377,0-.754-.023-1.131-.046a.414.414,0,0,1-.347-.333,4.091,4.091,0,0,1-.038-.409c-.006-.274,0-.55,0-.824q0-19.743,0-39.485c0-.378.005-.756.021-1.134a.425.425,0,0,1,.472-.432c.343-.011.686-.014,1.03-.014q7.99,0,15.979,0c.411,0,.821-.038,1.233-.058V97.792c-1.543,0-3.087,0-4.63.011-.342,0-.686.017-1.026.044a.481.481,0,0,0-.477.452c-.03.375-.05.753-.05,1.128q-.005,7.151,0,14.3c0,.206,0,.411,0,.618.028.874.142,1,1.037,1,1.715.007,3.429-.007,5.144-.012Z" transform="translate(-47.314 -11.919)" fill="#5a3d84"/>
      <path id="Path_17559" data-name="Path 17559" d="M0,335.28c.481.006.962.017,1.442.017q14.732,0,29.464,0c.411,0,.823.014,1.234.034a.418.418,0,0,1,.39.4q.019.515.019,1.03,0,9.221,0,18.441a5.41,5.41,0,0,0,.064,1.333h-12.8a2.843,2.843,0,0,0,.089-.5q.01-3.712,0-7.423a3.662,3.662,0,0,0-.033-.41.422.422,0,0,0-.342-.337c-.377-.025-.753-.051-1.13-.052q-5.928-.005-11.856,0c-1,0-1.993,0-2.99,0-.239,0-.479.022-.718.044a.446.446,0,0,0-.35.337c-.03.306-.059.614-.06.922q-.008,3.247,0,6.495c0,.308.029.617.046.925H0V335.28" transform="translate(0 -46.903)" fill="#5a3d84"/>
      <path id="Path_17560" data-name="Path 17560" d="M356.945,30.138a4.612,4.612,0,0,0-.507-.075c-.309-.014-.618-.008-.928-.008q-7.994,0-15.988,0c-1.354,0-1.315.037-1.314-1.282q0-13.667,0-27.334c0-.48-.03-.961-.046-1.441h12.592c0,.447.007.894.007,1.341V15.469c0,.31,0,.619.006.928.027.947.181,1,1.029,1q2.268,0,4.537,0c.2,0,.409-.037.614-.057Z" transform="translate(-47.306)" fill="#5a3d84"/>
      <path id="Path_17561" data-name="Path 17561" d="M220.173,0a4.039,4.039,0,0,0-.075,1.228q-.005,6.908,0,13.814c0,.412,0,.825,0,1.237,0,.138-.007.275-.018.412a.439.439,0,0,1-.415.386c-.1.009-.206.02-.308.022-.206,0-.413,0-.619,0q-7.113,0-14.225,0c-.343,0-.686-.016-1.027-.049a.344.344,0,0,1-.278-.272,1.258,1.258,0,0,1-.058-.3c-.009-.309-.008-.618-.008-.927q0-7.164,0-14.329A3.142,3.142,0,0,0,203.04,0Z" transform="translate(-28.404)" fill="#5a3d84"/>
      <path id="Path_17562" data-name="Path 17562" d="M320.047,0q0,7.936.005,15.871c0,.274-.02.549-.044.822a.444.444,0,0,1-.421.382c-.274.017-.549.028-.823.028q-7.163,0-14.325,0c-.308,0-.616-.027-.924-.049a.362.362,0,0,1-.281-.266,2.146,2.146,0,0,1-.041-.3c-.007-.309-.007-.618-.007-.927q0-7.163,0-14.325c0-.41-.041-.821-.064-1.231Z" transform="translate(-42.404)" fill="#5a3d84"/>
      <path id="Path_17563" data-name="Path 17563" d="M120.127,0c-.016.446-.046.891-.046,1.337q-.005,7.162,0,14.323c0,.343-.009.686-.025,1.03a.42.42,0,0,1-.409.387c-.274.017-.549.028-.823.028q-7.16,0-14.323,0c-.308,0-.616-.028-.923-.051a.366.366,0,0,1-.284-.263,3.259,3.259,0,0,1-.053-.406c-.009-.309-.007-.618-.007-.927q0-7.058,0-14.117c0-.446-.019-.892-.029-1.338Z" transform="translate(-14.437)" fill="#5a3d84"/>
      <path id="Path_17564" data-name="Path 17564" d="M20.047,0q0,7.936.005,15.871c0,.274-.02.549-.044.822a.444.444,0,0,1-.421.382c-.274.017-.549.028-.823.028q-7.163,0-14.325,0c-.308,0-.616-.027-.924-.049a.362.362,0,0,1-.281-.266,2.141,2.141,0,0,1-.041-.3c-.007-.309-.007-.618-.007-.927q0-7.163,0-14.325C3.183.821,3.142.41,3.12,0Z" transform="translate(-0.436)" fill="#5a3d84"/>
      <path id="Path_17565" data-name="Path 17565" d="M53.04,358.635a2.442,2.442,0,0,0,.1-1.018c.005-1.994,0-3.987,0-5.98,0-.241,0-.482.006-.722a2.307,2.307,0,0,1,.037-.306.475.475,0,0,1,.346-.341c.206-.012.412-.021.618-.021q7.476,0,14.952,0c.909,0,1.005.06,1,.975q-.013,3.144,0,6.29a3.542,3.542,0,0,0,.075,1.126Z" transform="translate(-7.42 -48.997)" fill="#5a3d84"/>
      <path id="Path_17566" data-name="Path 17566" d="M153.12,358.635c.022-.376.062-.752.063-1.128.007-1.958,0-3.917,0-5.876,0-.274,0-.55.008-.824.013-.4.161-.543.575-.556.24-.007.481-.005.722-.005h14.433c1.109.007,1.127.017,1.128,1.173,0,2.4,0,4.811,0,7.216Z" transform="translate(-21.42 -48.997)" fill="#5a3d84"/>
      <path id="Path_17567" data-name="Path 17567" d="M253.2,358.635c.01-.412.028-.824.029-1.236q0-2.835,0-5.668c0-.31,0-.619.013-.928.018-.4.166-.538.582-.552.24-.008.481-.005.721-.005q7.113,0,14.224,0c1.346,0,1.309-.063,1.308,1.282q0,2.989,0,5.978c0,.378.03.754.046,1.131Z" transform="translate(-35.421 -48.997)" fill="#5a3d84"/>
      <path id="Path_17568" data-name="Path 17568" d="M359.042,167.167q-2.165-.014-4.331-.03-.566,0-1.133-.03a.441.441,0,0,1-.4-.407c-.017-.206-.027-.412-.027-.618q0-7.373,0-14.747c0-.206.009-.412.027-.618a.438.438,0,0,1,.4-.4q.412-.023.824-.025c1.168,0,2.337,0,3.506,0,.378,0,.754-.03,1.132-.046Z" transform="translate(-49.404 -21.017)" fill="#5a3d84"/>
      <path id="Path_17569" data-name="Path 17569" d="M359.042,267.244c-.342-.021-.684-.06-1.026-.063-1.239-.008-2.477,0-3.716,0-.24,0-.481-.007-.722-.02a.454.454,0,0,1-.4-.407c-.011-.1-.021-.206-.023-.308,0-.206,0-.413,0-.619q0-7.07,0-14.139c0-.309.009-.618.029-.927a.471.471,0,0,1,.392-.421,3.14,3.14,0,0,1,.409-.04q2.529.006,5.057.02Z" transform="translate(-49.404 -35.015)" fill="#5a3d84"/>
      <path id="Path_17570" data-name="Path 17570" d="M359.042,67.087c-.274.013-.55.037-.824.038q-1.909.006-3.819,0c-.24,0-.482-.007-.722-.025a.533.533,0,0,1-.507-.548c-.008-.1-.013-.206-.015-.309,0-.172,0-.344,0-.516q0-7.07,0-14.139c0-.31.009-.619.028-.927a.451.451,0,0,1,.4-.409c.24-.013.481-.018.722-.018,1.238,0,2.477,0,3.716,0a3.336,3.336,0,0,0,1.024-.072Z" transform="translate(-49.404 -7.017)" fill="#5a3d84"/>
      <path id="Path_17571" data-name="Path 17571" d="M353.04,358.623a2.435,2.435,0,0,0,.1-1.013c0-2.053,0-4.107,0-6.16,0-.273.011-.548.032-.82a.447.447,0,0,1,.421-.38c.273-.011.548-.015.821-.016,1.2,0,2.4,0,3.594,0a3.331,3.331,0,0,0,1.019-.072v8.463Z" transform="translate(-49.388 -48.985)" fill="#5a3d84"/>
      <path id="Path_17572" data-name="Path 17572" d="M238.178,306.6q0-9.907,0-19.813c0-.344,0-.688.012-1.031a.5.5,0,0,1,.528-.513c.241-.014.482-.015.722-.015q20.123,0,40.245,0c.274,0,.55.013.823.034a.474.474,0,0,1,.395.416,3.068,3.068,0,0,1,.026.308c0,.241,0,.482,0,.722q0,19.916,0,39.832c0,.343-.014.687-.035,1.03a.444.444,0,0,1-.414.392q-.516.021-1.031.021H254.684q-7.533,0-15.066,0-.516,0-1.031-.022a.453.453,0,0,1-.391-.415c-.013-.343-.018-.687-.018-1.031q0-9.957,0-19.916m30.12,0q0-3.659,0-7.318c0-.309,0-.618-.022-.927s-.189-.475-.537-.493c-.24-.012-.48-.015-.721-.015H252.074c-.275,0-.55.01-.824.026a.438.438,0,0,0-.405.394c-.017.378-.028.755-.028,1.133q0,7.163,0,14.327c0,.309,0,.618.009.927a2.3,2.3,0,0,0,.039.305.421.421,0,0,0,.353.327c.377.021.754.041,1.131.041q5.979.005,11.956,0c.962,0,1.923,0,2.886,0,.239,0,.479-.022.717-.045a.421.421,0,0,0,.344-.337c.023-.342.046-.685.046-1.027q.005-3.659,0-7.318" transform="translate(-33.319 -39.902)" fill="#5a3d84"/>
      <path id="Path_17573" data-name="Path 17573" d="M88.177,156.606q0-9.907,0-19.813c0-.344,0-.688.011-1.031a.5.5,0,0,1,.528-.513c.24-.014.481-.015.722-.015q20.123,0,40.245,0c.274,0,.55.013.823.033a.477.477,0,0,1,.4.416c.011.1.023.2.025.308,0,.275,0,.55,0,.826q0,19.813,0,39.626c0,.378-.013.756-.035,1.133a.441.441,0,0,1-.413.393q-.515.021-1.031.021H89.619q-.516,0-1.031-.021a.452.452,0,0,1-.391-.415c-.013-.343-.018-.687-.018-1.031q0-9.957,0-19.916m12.638-.112q0,3.71,0,7.421c0,.342.019.686.04,1.028a.4.4,0,0,0,.337.341c.341.025.684.048,1.026.049q5.154.005,10.307,0h4.329c.275,0,.55,0,.825-.013.4-.018.581-.184.6-.552.015-.308.017-.618.017-.927q0-7.266,0-14.532c0-.274,0-.55-.01-.824a2.164,2.164,0,0,0-.048-.3.386.386,0,0,0-.276-.273c-.273-.024-.546-.055-.819-.055q-7.576-.005-15.151,0c-1.171,0-1.176.008-1.177,1.22q-.005,3.71,0,7.421" transform="translate(-12.335 -18.918)" fill="#5a3d84"/>
      <path id="Path_17574" data-name="Path 17574" d="M259.459,227.958q-9.908,0-19.817,0c-.378,0-.754-.021-1.132-.04a.378.378,0,0,1-.282-.27,2.143,2.143,0,0,1-.044-.3c-.008-.275-.006-.55-.006-.826q0-19.868,0-39.737c0-.377.024-.753.045-1.13a.384.384,0,0,1,.265-.287,2.031,2.031,0,0,1,.3-.049c.274-.01.55-.012.825-.012q19.92,0,39.84,0c.343,0,.687.012,1.03.029a.452.452,0,0,1,.414.394,2.833,2.833,0,0,1,.026.308c.005.24,0,.482,0,.722q0,19.868,0,39.737,0,.516-.026,1.031a.437.437,0,0,1-.392.41c-.344.015-.688.023-1.031.023H259.459m0-12.646h7.216c.31,0,.619,0,.928-.007.54-.016.665-.141.687-.67.007-.171.007-.343.007-.515q0-7.577,0-15.155c0-.206-.007-.412-.021-.618a.506.506,0,0,0-.536-.5c-.309-.017-.618-.021-.927-.021H252.277c-.274,0-.55,0-.824.012a1.361,1.361,0,0,0-.3.056.341.341,0,0,0-.272.276,6.348,6.348,0,0,0-.06.818q-.005,7.577,0,15.154c0,1.187.012,1.175,1.221,1.175h7.423" transform="translate(-33.319 -25.922)" fill="#5a3d84"/>
      <path id="Path_17575" data-name="Path 17575" d="M180.9,306.663v19.91c0,1.48.108,1.418-1.38,1.418q-19.91,0-39.82,0c-.344,0-.688-.006-1.031-.021a.455.455,0,0,1-.4-.407c-.016-.137-.03-.274-.034-.411-.007-.24-.005-.481-.005-.722q0-19.807,0-39.614c0-.378.015-.755.034-1.133a.462.462,0,0,1,.393-.415,2.627,2.627,0,0,1,.307-.029c.275-.005.55,0,.825,0q19.808,0,39.614,0c.377,0,.754.019,1.131.041a.432.432,0,0,1,.34.342c.013.343.024.687.024,1.03q0,6.655,0,13.308Zm-21.3-8.811h-2.167c-1.789,0-3.578,0-5.367,0a8.711,8.711,0,0,0-.923.055.327.327,0,0,0-.28.267,3.253,3.253,0,0,0-.073.611c-.008.895-.005,1.789-.005,2.684q0,6.141,0,12.282c0,.378.015.756.038,1.134a.483.483,0,0,0,.4.413c.378.021.755.034,1.134.035q7.173,0,14.346,0c.31,0,.619,0,.929-.011a2.075,2.075,0,0,0,.3-.049.382.382,0,0,0,.274-.275c.024-.341.055-.684.055-1.025q.005-5.883,0-11.766c0-1.067,0-2.133,0-3.2,0-.274-.027-.548-.048-.821a.349.349,0,0,0-.264-.279c-.342-.023-.685-.052-1.027-.053q-3.664-.006-7.328,0" transform="translate(-19.338 -39.902)" fill="#5a3d84"/>
      <path id="Path_17576" data-name="Path 17576" d="M330.9,156.708v19.7c0,.275,0,.551,0,.825-.012.655-.107.742-.8.753-.1,0-.206,0-.31,0h-.413q-19.807,0-39.613,0c-.378,0-.755-.015-1.132-.034a.436.436,0,0,1-.348-.335,3.854,3.854,0,0,1-.042-.409c-.008-.24-.007-.481-.007-.722q0-19.911,0-39.82c0-.343.021-.686.043-1.029a.424.424,0,0,1,.329-.353,3.421,3.421,0,0,1,.408-.049c.274-.007.55,0,.825,0q19.755,0,39.51,0,.568,0,1.134.028a.432.432,0,0,1,.4.4c.013.343.019.688.019,1.031q0,10.006,0,20.014m-21.277-8.857q-3.819,0-7.638,0c-1.18,0-1.2.02-1.2,1.216q-.005,7.535,0,15.068c0,1.166.106,1.2,1.24,1.2q3.354-.005,6.709,0,4.129,0,8.257,0c1.293,0,1.282-.015,1.282-1.233q0-7.535,0-15.068c0-1.19,0-1.183-1.212-1.183h-7.431" transform="translate(-40.322 -18.918)" fill="#5a3d84"/>
      <path id="Path_17577" data-name="Path 17577" d="M88.177,56.648q0-9.96,0-19.92c0-.343.012-.686.028-1.03a.455.455,0,0,1,.329-.355,2.652,2.652,0,0,1,.308-.033c.241-.007.482-.009.722-.009q19.972,0,39.943,0c.344,0,.687.019,1.03.038a.43.43,0,0,1,.345.337,2.154,2.154,0,0,1,.041.3c.007.275.006.55.006.826q0,19.817,0,39.634c0,.344,0,.688-.02,1.031a.457.457,0,0,1-.451.467c-.274.013-.55.017-.825.017H89.486c-1.329,0-1.312.064-1.311-1.287q.006-10.012,0-20.023m21.388,8.664h4.227c1.238,0,2.475,0,3.711-.005.673-.005.769-.111.79-.778,0-.1,0-.206,0-.309V48.961c0-.172,0-.344-.01-.515-.022-.427-.194-.593-.653-.614-.274-.013-.55-.011-.825-.011H102.272c-.274,0-.55,0-.824.012a1.345,1.345,0,0,0-.3.057.337.337,0,0,0-.269.279c-.034.374-.06.751-.06,1.128q-.005,7.267,0,14.536c0,.241,0,.482.005.722.018.634.112.735.7.753.274.008.55.006.825.006h7.216" transform="translate(-12.335 -4.938)" fill="#5a3d84"/>
      <path id="Path_17578" data-name="Path 17578" d="M209.426,177.99H189.62c-.343,0-.686-.013-1.03-.029a.443.443,0,0,1-.344-.338c-.011-.1-.022-.206-.024-.309,0-.274-.005-.55-.005-.825q0-19.91,0-39.82c0-.343.012-.687.027-1.03a.422.422,0,0,1,.323-.357,2.027,2.027,0,0,1,.3-.042c.309-.007.618-.006.928-.006q19.755,0,39.51,0c.378,0,.756.009,1.133.028a.444.444,0,0,1,.405.4c.014.137.026.273.028.411.005.309,0,.618,0,.928v39.2c0,.378,0,.757-.01,1.134-.017.513-.157.637-.707.649-.309.006-.618,0-.928,0H209.426m.077-30.138q-3.663,0-7.325,0c-.31,0-.618.009-.927.024a.428.428,0,0,0-.415.383c-.035.375-.065.753-.065,1.129q-.006,7.169,0,14.34c0,.275,0,.55.017.825a2.628,2.628,0,0,0,.069.405.432.432,0,0,0,.348.335c.308.021.617.04.925.04q7.429,0,14.856,0c.275,0,.55-.005.825-.024a.463.463,0,0,0,.483-.446,10.8,10.8,0,0,0,.044-1.132q0-7.119,0-14.236c0-.31,0-.619-.014-.929a1.64,1.64,0,0,0-.076-.4.353.353,0,0,0-.289-.263,9.2,9.2,0,0,0-.924-.047q-3.766-.005-7.531,0" transform="translate(-26.33 -18.918)" fill="#5a3d84"/>
      <path id="Path_17579" data-name="Path 17579" d="M38.216,306.577q0-9.9,0-19.807c0-.378.012-.755.027-1.134a.423.423,0,0,1,.323-.356,2.273,2.273,0,0,1,.3-.042c.309-.007.618-.006.928-.006q19.755,0,39.51,0,.566,0,1.134.027a.442.442,0,0,1,.4.4c.014.137.026.273.028.411,0,.31,0,.619,0,.929v39.2c0,.309,0,.618,0,.928-.015.751-.106.844-.818.856-.172,0-.344,0-.516,0q-20.012,0-40.025,0c-.309,0-.618-.013-.926-.028a.432.432,0,0,1-.342-.34c-.015-.377-.029-.755-.029-1.134q0-8.3,0-16.607v-3.3m21.249,8.757q3.714,0,7.428,0c.31,0,.618-.007.927-.024a.47.47,0,0,0,.472-.459c.037-.375.042-.753.042-1.132q0-7.119,0-14.236c0-.275,0-.55-.009-.825a2.241,2.241,0,0,0-.052-.408.434.434,0,0,0-.43-.373c-.274-.016-.55-.023-.824-.023q-7.48,0-14.959,0c-.275,0-.55.01-.824.026a.429.429,0,0,0-.406.394c-.034.375-.062.753-.063,1.129q-.005,7.171,0,14.34c0,.242,0,.482.009.723.034.713.169.849.847.866.275.007.55,0,.826,0h7.015" transform="translate(-5.346 -39.902)" fill="#5a3d84"/>
      <path id="Path_17580" data-name="Path 17580" d="M259.455,85.271h20.014q.516,0,1.031.022a.442.442,0,0,1,.405.4c.012.1.022.206.024.308,0,.241,0,.483,0,.722q0,19.859,0,39.718c0,.377-.026.753-.052,1.129a.424.424,0,0,1-.346.337,4.093,4.093,0,0,1-.409.039c-.31.008-.619.006-.929.006q-19.653,0-39.305,0c-.446,0-.892-.027-1.338-.05a.441.441,0,0,1-.338-.345,2.869,2.869,0,0,1-.03-.308c-.005-.308,0-.618,0-.928q0-19.756,0-39.511c0-.345,0-.689.012-1.031.011-.327.181-.485.53-.5s.687-.008,1.031-.008h19.7m8.843,21.41q0-3.713,0-7.425c0-.309,0-.619-.023-.927-.018-.269-.135-.408-.457-.47a1.748,1.748,0,0,0-.306-.034c-.275-.009-.55-.011-.825-.011q-7.117,0-14.233,0c-.309,0-.618,0-.927.017a1.8,1.8,0,0,0-.4.081.35.35,0,0,0-.265.286,7.72,7.72,0,0,0-.041.822q0,7.582,0,15.161c0,.24.011.481.028.722a.448.448,0,0,0,.4.408c.376.03.753.053,1.13.054q7.168.005,14.336,0c.274,0,.551,0,.825-.011.587-.027.741-.176.759-.732.009-.275.006-.55.006-.824v-7.117" transform="translate(-33.319 -11.929)" fill="#5a3d84"/>
      <path id="Path_17581" data-name="Path 17581" d="M109.563,235.27h19.911q.515,0,1.03.022a.443.443,0,0,1,.4.4c.011.1.022.2.023.308,0,.275,0,.55,0,.825q0,19.756,0,39.512c0,.378-.006.757-.026,1.134a.485.485,0,0,1-.478.452c-.137.012-.274.02-.412.022-.241,0-.482,0-.722,0q-19.755,0-39.512,0c-.411,0-.823-.026-1.234-.05a.444.444,0,0,1-.335-.349,3.048,3.048,0,0,1-.029-.306c-.005-.241,0-.482,0-.722V236.7c0-.206,0-.413,0-.619.011-.717.094-.8.854-.807.275,0,.55,0,.826,0h19.7m-8.748,21.289q0,3.662,0,7.323c0,.309,0,.618.016.927a.473.473,0,0,0,.419.5,8.987,8.987,0,0,0,.925.052q7.375,0,14.748,0c.274,0,.55-.009.824-.031a.512.512,0,0,0,.531-.516c.015-.274.019-.55.019-.824q0-7.426,0-14.851c0-.241,0-.482-.012-.722-.023-.368-.125-.534-.581-.577-.341-.032-.686-.031-1.03-.031q-7.117,0-14.232,0c-.31,0-.619,0-.928.018a1.622,1.622,0,0,0-.4.084.343.343,0,0,0-.256.292c-.028.342-.04.686-.04,1.03q-.005,3.66,0,7.322" transform="translate(-12.335 -32.912)" fill="#5a3d84"/>
      <path id="Path_17582" data-name="Path 17582" d="M330.9,56.626q0,9.956,0,19.911c0,1.5.115,1.421-1.372,1.421q-19.963,0-39.924,0c-.342,0-.686-.028-1.027-.048a.372.372,0,0,1-.279-.272,2.961,2.961,0,0,1-.059-.406c-.01-.309-.009-.618-.009-.928V37c0-.344,0-.688.015-1.031.021-.47.173-.632.614-.649.378-.015.756-.014,1.134-.014h29.3q5.108,0,10.214,0c.343,0,.686.02,1.03.04a.4.4,0,0,1,.335.342c.016.309.029.618.029.926q0,4.695,0,9.388Zm-21.409,8.686q3.71,0,7.422,0c.341,0,.685-.027,1.026-.048a.343.343,0,0,0,.274-.267c.022-.342.05-.685.051-1.027q.005-4.638,0-9.276,0-2.783,0-5.567c0-.308-.019-.617-.04-.924a.4.4,0,0,0-.348-.331c-.377-.024-.753-.047-1.13-.047q-7.216-.005-14.431,0c-.275,0-.55,0-.824.009a2.307,2.307,0,0,0-.306.038.464.464,0,0,0-.345.343c-.028.376-.057.753-.058,1.128q-.005,7.216,0,14.431c0,.31.005.618.017.927a1.092,1.092,0,0,0,.06.3.36.36,0,0,0,.29.261,9.173,9.173,0,0,0,.922.05q3.712.005,7.422,0" transform="translate(-40.321 -4.938)" fill="#5a3d84"/>
      <path id="Path_17583" data-name="Path 17583" d="M180.9,206.759q0,9.9,0,19.807c0,.343-.013.686-.028,1.03a.406.406,0,0,1-.341.335c-.1.01-.206.021-.308.021-.31,0-.619.005-.929.005q-19.7,0-39.409,0c-.412,0-.824-.013-1.236-.028a.425.425,0,0,1-.36-.319,3.266,3.266,0,0,1-.049-.409c-.009-.274-.008-.55-.008-.825q0-19.756,0-39.512c0-.378.019-.755.042-1.132a.444.444,0,0,1,.409-.4c.343-.02.686-.034,1.03-.034q3.558,0,7.118,0h32.29c.344,0,.688,0,1.032.007a3.3,3.3,0,0,1,.409.045.426.426,0,0,1,.317.361c.009.1.016.206.017.309,0,.31,0,.618,0,.928v19.808m-21.294,8.553q3.71,0,7.422,0c.307,0,.615-.029.923-.051a.345.345,0,0,0,.265-.276c.021-.307.047-.616.047-.924q.005-7.473,0-14.946c0-.24,0-.481-.013-.721-.019-.378-.184-.536-.592-.556-.309-.015-.618-.015-.927-.015H152.305c-.274,0-.55,0-.824.01a2.168,2.168,0,0,0-.305.041.468.468,0,0,0-.338.351c-.027.376-.052.753-.053,1.128q-.005,7.164,0,14.328c0,.206,0,.413,0,.619,0,.137.005.274.015.411.028.4.19.574.563.589.309.013.618.012.927.013h7.319" transform="translate(-19.338 -25.922)" fill="#5a3d84"/>
      <path id="Path_17584" data-name="Path 17584" d="M59.5,227.958h-19.7c-.343,0-.687,0-1.031-.011-.362-.012-.515-.153-.528-.489-.014-.378-.015-.756-.015-1.134q0-13.926,0-27.854,0-5.881,0-11.761c0-.342.017-.686.036-1.029a.406.406,0,0,1,.34-.339,4.1,4.1,0,0,1,.41-.034c.31-.006.619-.005.928-.005q19.6,0,39.2,0c.446,0,.893.018,1.339.038a.412.412,0,0,1,.354.326,3.469,3.469,0,0,1,.045.409c.008.31.006.619.006.929q0,19.652,0,39.305c0,.412-.014.825-.034,1.236a.418.418,0,0,1-.405.39q-.566.021-1.134.022H59.5m.058-12.646q3.714,0,7.43,0c.309,0,.618-.014.927-.03a.416.416,0,0,0,.352-.329c.034-.341.07-.684.07-1.025q.006-7.377,0-14.755c0-.241,0-.482-.019-.722a1.1,1.1,0,0,0-.071-.3.378.378,0,0,0-.287-.268,6.224,6.224,0,0,0-.819-.061q-7.585-.005-15.168,0c-.24,0-.481.015-.721.034a.453.453,0,0,0-.412.4c-.036.376-.068.753-.069,1.129q-.006,7.224,0,14.446c0,.138,0,.275,0,.412.019,1.055.153,1.073,1.048,1.072h7.738" transform="translate(-5.346 -25.922)" fill="#5a3d84"/>
      <path id="Path_17585" data-name="Path 17585" d="M159.608,85.271q9.906,0,19.811,0c.378,0,.755.015,1.133.032a.394.394,0,0,1,.329.347c.013.343.022.687.022,1.031q0,5.158,0,10.318,0,14.7,0,29.405c0,.378-.012.756-.028,1.134a.42.42,0,0,1-.324.356,3.473,3.473,0,0,1-.409.047c-.274.009-.55.007-.825.007q-19.707,0-39.414,0c-.378,0-.757-.009-1.134-.03a.512.512,0,0,1-.512-.535c-.012-.137-.019-.274-.021-.412,0-.241,0-.482,0-.722q0-19.706,0-39.414c0-.378.015-.756.038-1.133a.424.424,0,0,1,.392-.409q.568-.022,1.134-.022h19.81m8.66,21.412q0-3.763,0-7.527c0-.309-.015-.618-.031-.926a.425.425,0,0,0-.335-.343,4.844,4.844,0,0,0-1.231-.074q-7.114,0-14.229,0c-.274,0-.55,0-.824.012a2.952,2.952,0,0,0-.407.058.476.476,0,0,0-.39.422c-.021.342-.036.686-.036,1.029q0,5,0,10,0,2.32,0,4.639c0,.309.015.618.037.926a.481.481,0,0,0,.4.413c.376.029.753.051,1.13.052q7.167,0,14.332,0c.275,0,.55,0,.825-.012.593-.029.736-.169.752-.732.008-.274.005-.55.005-.825v-7.114" transform="translate(-19.338 -11.929)" fill="#5a3d84"/>
      <path id="Path_17586" data-name="Path 17586" d="M330.9,256.683V276.39c0,.344,0,.688-.014,1.032a.479.479,0,0,1-.527.506c-.412.019-.825.021-1.237.022H292.6c-1.067,0-2.133.005-3.2,0a6.055,6.055,0,0,1-.817-.074.341.341,0,0,1-.276-.274,2.03,2.03,0,0,1-.065-.4c-.012-.31-.011-.619-.011-.929V236.851c0-.275,0-.55.007-.826.022-.614.138-.734.719-.75.24-.006.481,0,.722,0H329.4c.378,0,.756.013,1.134.027a.4.4,0,0,1,.338.337c.015.343.027.686.027,1.03q0,5.364,0,10.731Zm-12.634-.112q0-3.66,0-7.32c0-.309-.005-.618-.019-.927a.455.455,0,0,0-.456-.463q-.565-.046-1.132-.047-7.114-.005-14.229,0c-.309,0-.618,0-.927.022a1.491,1.491,0,0,0-.4.086.368.368,0,0,0-.264.291,9.763,9.763,0,0,0-.056,1.027q-.006,5.31,0,10.62c0,1.375,0,2.75,0,4.124,0,.309.016.618.039.925a.489.489,0,0,0,.409.409c.342.027.686.048,1.029.048q7.269,0,14.538,0c.275,0,.55,0,.824-.019.46-.029.622-.191.636-.63.011-.309.009-.618.009-.928v-7.217" transform="translate(-40.321 -32.913)" fill="#5a3d84"/>
      <path id="Path_17587" data-name="Path 17587" d="M188.217,56.571q0-9.9,0-19.807c0-.377.028-.753.05-1.13a.365.365,0,0,1,.274-.274,3.266,3.266,0,0,1,.407-.051c.31-.009.619-.008.929-.008h39.305c.275,0,.55,0,.825,0,.755.019.848.1.866.819.009.344,0,.688,0,1.031V71.4q0,2.527,0,5.056c0,.274,0,.55-.009.825-.02.536-.14.652-.685.667-.275.008-.55.005-.826.005q-19.807,0-39.615,0c-1.671,0-1.526.163-1.527-1.577q-.005-9.9,0-19.807m21.308,8.74q3.714,0,7.43,0c.309,0,.618-.01.927-.028a.444.444,0,0,0,.4-.4c.028-.376.049-.754.049-1.131q.005-6.759,0-13.517c0-.447,0-.895,0-1.341,0-.206-.019-.412-.041-.617a.508.508,0,0,0-.4-.416c-.273-.021-.549-.037-.823-.037q-7.482,0-14.962,0c-.241,0-.483,0-.723.016-.355.028-.534.132-.578.587-.033.341-.035.686-.035,1.03q0,7.119,0,14.239c0,.31,0,.619.02.928a1.586,1.586,0,0,0,.085.4.345.345,0,0,0,.3.25c.308.026.618.036.926.036q3.716,0,7.43,0" transform="translate(-26.33 -4.938)" fill="#5a3d84"/>
      <path id="Path_17588" data-name="Path 17588" d="M59.6,85.271q9.9,0,19.81,0c.377,0,.753.024,1.13.044a.36.36,0,0,1,.279.268,3.112,3.112,0,0,1,.052.407c.009.31.008.619.008.929q0,19.656,0,39.31c0,.412-.01.825-.031,1.237a.459.459,0,0,1-.473.449c-.377.021-.755.031-1.133.032q-8.977,0-17.953,0-10.73,0-21.461,0c-.412,0-.824-.024-1.235-.049a.411.411,0,0,1-.338-.343c-.015-.137-.031-.274-.034-.41-.006-.31,0-.619,0-.928q0-19.656,0-39.311c0-.412.01-.825.026-1.237a.408.408,0,0,1,.413-.379c.343-.013.687-.018,1.031-.018q9.956,0,19.913,0m.007,30.1q3.561,0,7.121,0c.344,0,.688-.009,1.03-.034a.548.548,0,0,0,.543-.519c.023-.309.033-.618.034-.927q.005-2.219,0-4.438,0-5.056,0-10.113c0-.343-.018-.687-.042-1.03a.469.469,0,0,0-.39-.424,8.321,8.321,0,0,0-.924-.065q-7.43-.006-14.861,0c-.274,0-.55.017-.823.043a.482.482,0,0,0-.476.457c-.031.41-.05.823-.051,1.235q0,7.017,0,14.035c0,.31,0,.619.011.929a3.117,3.117,0,0,0,.05.409.491.491,0,0,0,.423.395c.341.027.686.047,1.029.047q3.664.006,7.327,0" transform="translate(-5.346 -11.929)" fill="#5a3d84"/>
      <path id="Path_17589" data-name="Path 17589" d="M209.6,235.271q9.906,0,19.81,0c.378,0,.754.024,1.131.044a.36.36,0,0,1,.278.269,3.112,3.112,0,0,1,.052.407c.009.31.007.619.007.929q0,19.654,0,39.31,0,.618-.03,1.237a.459.459,0,0,1-.474.448c-.377.021-.755.031-1.134.032q-10.369,0-20.738,0-9.338,0-18.676,0c-.411,0-.823-.025-1.235-.049a.41.41,0,0,1-.336-.344c-.016-.137-.032-.274-.034-.41-.005-.31,0-.619,0-.929q0-19.654,0-39.31c0-.378,0-.756.015-1.134.012-.338.164-.478.526-.49.343-.01.687-.009,1.031-.009H209.6m-.067,30.1h2.58c1.617,0,3.233,0,4.85,0,.309,0,.618-.026.925-.056a.5.5,0,0,0,.4-.423c.026-.377.046-.754.047-1.132q0-7.173,0-14.346c0-.241,0-.482-.007-.722a4.1,4.1,0,0,0-.041-.409.5.5,0,0,0-.414-.4c-.307-.03-.617-.056-.925-.057q-7.38-.005-14.759,0c-.206,0-.413,0-.618.012a2.229,2.229,0,0,0-.406.064.413.413,0,0,0-.332.354,10.8,10.8,0,0,0-.065,1.13q-.006,7.224,0,14.448c0,.206,0,.413.008.619a4.121,4.121,0,0,0,.04.41.506.506,0,0,0,.465.472c.342.027.686.042,1.03.043q3.612.005,7.224,0" transform="translate(-26.33 -32.913)" fill="#5a3d84"/>
      <path id="Path_17590" data-name="Path 17590" d="M61.7,150.295q3.607,0,7.215,0c1.194,0,1.2-.014,1.2,1.191q-.006,7.216,0,14.431c0,.138,0,.275,0,.412-.012.717-.1.8-.853.815-.206,0-.412,0-.618,0q-7.009,0-14.018,0c-.343,0-.686-.012-1.03-.029a.445.445,0,0,1-.408-.4c-.018-.206-.028-.412-.028-.618q0-7.369,0-14.74c0-.206.007-.412.024-.618a.465.465,0,0,1,.483-.434c.309-.012.618-.014.927-.014q3.556,0,7.112,0" transform="translate(-7.436 -21.025)" fill="#5a3d84"/>
      <path id="Path_17591" data-name="Path 17591" d="M61.7,50.246h6.909c.241,0,.482,0,.721,0,.67.012.765.108.776.782.005.241,0,.482,0,.722V65.57c0,.31,0,.619-.006.928-.014.438-.18.6-.643.625-.24.015-.481.015-.722.015q-7.115,0-14.23,0c-.309,0-.618-.021-.925-.046a.469.469,0,0,1-.4-.415c-.022-.274-.034-.548-.034-.822q0-7.218,0-14.438c0-.172,0-.343,0-.515,0-.069.011-.137.019-.206a.477.477,0,0,1,.483-.438c.31-.009.619-.01.928-.01H61.7" transform="translate(-7.436 -7.029)" fill="#5a3d84"/>
      <path id="Path_17592" data-name="Path 17592" d="M61.607,267.177H54.594c-.274,0-.55,0-.825-.006-.444-.012-.592-.168-.609-.642-.009-.24-.005-.481-.005-.722q0-7.065,0-14.129c0-.309.009-.618.029-.926a.458.458,0,0,1,.395-.416c.274-.024.548-.042.822-.044,1.066-.005,2.131,0,3.2,0H68.428c.31,0,.619,0,.928.008.6.022.736.157.753.725,0,.1,0,.206,0,.31q0,7.425,0,14.851c0,.957-.033.99-.975.992q-3.765.006-7.529,0" transform="translate(-7.436 -35.014)" fill="#5a3d84"/>
      <path id="Path_17593" data-name="Path 17593" d="M211.7,200.246c2.475,0,4.95,0,7.424,0,.908,0,.992.072.991.987q-.008,7.425,0,14.85c0,.206-.01.412-.027.617a.454.454,0,0,1-.413.395c-.377.026-.754.045-1.132.046q-5.826,0-11.653,0c-.859,0-1.718,0-2.578,0-.24,0-.48-.021-.718-.045a.47.47,0,0,1-.4-.413c-.022-.307-.035-.617-.036-.925q0-7.117,0-14.231c0-.138,0-.275,0-.413,0-.1,0-.206.009-.309.032-.436.238-.544.6-.55.275-.006.55-.005.825-.005H211.7" transform="translate(-28.42 -28.012)" fill="#5a3d84"/>
      <path id="Path_17594" data-name="Path 17594" d="M211.617,300.295q3.556,0,7.112,0c.309,0,.618.006.927.021a.435.435,0,0,1,.442.467c.011.274.013.55.013.824q0,7.113,0,14.225c0,1.336.046,1.313-1.287,1.313q-7.216,0-14.431,0c-.274,0-.55-.013-.823-.031a.446.446,0,0,1-.391-.413c-.016-.2-.026-.411-.026-.618q0-7.369,0-14.74c0-.206.009-.412.027-.618a.438.438,0,0,1,.4-.405c.274-.016.549-.025.823-.025q3.607,0,7.215,0" transform="translate(-28.42 -42.009)" fill="#5a3d84"/>
      <path id="Path_17595" data-name="Path 17595" d="M211.588,117.177q-3.713,0-7.425,0c-.851,0-1.012-.005-1.011-.975q.009-7.426,0-14.851c0-.138,0-.275.008-.412a1.5,1.5,0,0,1,.061-.3.412.412,0,0,1,.275-.282,1.1,1.1,0,0,1,.3-.051c.309-.01.618-.014.927-.015q6.91,0,13.82,0c.377,0,.755.018,1.131.044a.443.443,0,0,1,.409.4c.015.2.022.411.022.618q0,7.425,0,14.851c0,.138,0,.275-.006.413-.016.4-.164.544-.576.555-.31.009-.619.007-.928.007h-7.013" transform="translate(-28.419 -14.03)" fill="#5a3d84"/>
      <path id="Path_17596" data-name="Path 17596" d="M153.2,58.677q0-3.713,0-7.425c0-.977.026-1,.961-1q7.426,0,14.851,0c.206,0,.412.006.618.019a.439.439,0,0,1,.4.409c.022.239.038.48.038.72q0,7.27,0,14.541c0,.1,0,.206,0,.31-.027.749-.147.866-.937.89-.274.009-.55,0-.825,0h-6.5q-3.61,0-7.219,0c-.342,0-.686-.031-1.027-.061a.413.413,0,0,1-.325-.357c-.017-.308-.031-.618-.032-.926q0-3.557,0-7.116" transform="translate(-21.431 -7.029)" fill="#5a3d84"/>
      <path id="Path_17597" data-name="Path 17597" d="M11.59,300.295q3.557,0,7.113,0c.309,0,.618.01.926.027a.436.436,0,0,1,.4.407c.022.239.037.479.037.719q0,7.268,0,14.536a5.784,5.784,0,0,1-.067.817.338.338,0,0,1-.267.281,1.514,1.514,0,0,1-.3.051c-.309.009-.618.012-.927.012q-6.908,0-13.814,0c-.377,0-.754-.02-1.131-.041a.4.4,0,0,1-.329-.347c-.014-.24-.025-.48-.025-.721q0-7.319,0-14.638c0-1.091.006-1.1,1.073-1.1q3.66-.007,7.32,0" transform="translate(-0.447 -42.009)" fill="#5a3d84"/>
      <path id="Path_17598" data-name="Path 17598" d="M120.084,208.74q0,3.505,0,7.012c0,.309-.009.618-.026.927a.448.448,0,0,1-.4.409c-.341.028-.685.049-1.027.05q-3.507.005-7.012,0-3.455,0-6.908,0c-.343,0-.686-.02-1.029-.047a.452.452,0,0,1-.412-.4c-.02-.239-.034-.48-.034-.72q0-7.32,0-14.642c0-.034,0-.069,0-.1.015-.945.043-.981.994-.981q7.424,0,14.848,0c.968,0,1,.029,1,.965q.008,3.763,0,7.527Z" transform="translate(-14.442 -28.013)" fill="#5a3d84"/>
      <path id="Path_17599" data-name="Path 17599" d="M261.705,50.246q3.557,0,7.115,0c.308,0,.617.02.925.037a.375.375,0,0,1,.286.262,1.65,1.65,0,0,1,.037.2c.009.172.015.343.015.515q0,7.372,0,14.745c0,.24-.019.48-.038.719a.438.438,0,0,1-.333.353,3.279,3.279,0,0,1-.408.051c-.241.009-.482.009-.722.009q-6.909,0-13.818,0c-.377,0-.753-.028-1.13-.056a.431.431,0,0,1-.347-.337,6.13,6.13,0,0,1-.048-.614c-.007-.654,0-1.307,0-1.959q0-6.238,0-12.477c0-.376.029-.753.053-1.129a.347.347,0,0,1,.274-.273c.307-.02.615-.043.923-.044q3.61-.005,7.218,0" transform="translate(-35.426 -7.029)" fill="#5a3d84"/>
      <path id="Path_17600" data-name="Path 17600" d="M261.609,267.177q-3.557,0-7.115,0c-.308,0-.617-.022-.925-.041a.353.353,0,0,1-.278-.268,5.884,5.884,0,0,1-.053-.613c-.007-.722,0-1.443,0-2.165q0-6.136,0-12.271c0-.377.024-.754.047-1.13a.429.429,0,0,1,.341-.342,3.465,3.465,0,0,1,.409-.046c.24-.009.481-.008.722-.008q6.909,0,13.818,0c.377,0,.754.028,1.131.053a.408.408,0,0,1,.337.344c.02.308.039.617.039.925q.005,3.507,0,7.012,0,3.66,0,7.321c0,.308-.028.616-.05.923a.347.347,0,0,1-.28.266c-.308.018-.616.039-.925.039q-3.609.005-7.218,0" transform="translate(-35.426 -35.014)" fill="#5a3d84"/>
      <path id="Path_17601" data-name="Path 17601" d="M311.7,300.295q3.505,0,7.01,0c.309,0,.618.01.927.028a.434.434,0,0,1,.391.411c.021.239.036.479.037.719q0,7.267,0,14.536a7.683,7.683,0,0,1-.066.817.386.386,0,0,1-.273.279,2.05,2.05,0,0,1-.3.048c-.309.009-.618.012-.927.012q-6.908,0-13.814,0c-.377,0-.754-.021-1.131-.043a.4.4,0,0,1-.325-.35c-.013-.24-.023-.48-.023-.721q0-7.319,0-14.638c0-1.086.006-1.093,1.079-1.095q3.71-.007,7.422,0" transform="translate(-42.415 -42.009)" fill="#5a3d84"/>
      <path id="Path_17602" data-name="Path 17602" d="M11.7,200.246h6.91c.274,0,.55,0,.825.006.449.013.593.162.617.638.012.24.012.481.013.722q0,7.064,0,14.129a9.259,9.259,0,0,1-.073,1.023.35.35,0,0,1-.268.285,1.792,1.792,0,0,1-.4.077c-.274.015-.55.015-.825.015H4.674c-.275,0-.55,0-.825-.016-.471-.026-.626-.18-.645-.62-.006-.137-.006-.274-.006-.412q0-7.426,0-14.851c0-.962.03-.992.973-.993q3.765-.006,7.529,0" transform="translate(-0.447 -28.013)" fill="#5a3d84"/>
      <path id="Path_17603" data-name="Path 17603" d="M111.674,300.295q3.607,0,7.215,0c1.2,0,1.2-.011,1.2,1.191q0,7.215,0,14.429c0,.241,0,.482-.015.722-.017.329-.175.477-.53.495-.274.013-.55.014-.824.014q-7.06,0-14.12,0c-.342,0-.685-.03-1.026-.054a.369.369,0,0,1-.276-.272,2.44,2.44,0,0,1-.046-.3c-.009-.24-.01-.481-.01-.722q0-7.06,0-14.12c0-.309.008-.618.026-.926a.435.435,0,0,1,.476-.433c.309-.014.618-.017.927-.017q3.5,0,7.008,0" transform="translate(-14.442 -42.009)" fill="#5a3d84"/>
      <path id="Path_17604" data-name="Path 17604" d="M270.084,158.815q0,3.556,0,7.111c0,1.2.02,1.22-1.175,1.22q-7.266,0-14.532,0c-.273,0-.546-.033-.819-.058a.356.356,0,0,1-.268-.279c-.023-.238-.05-.477-.052-.716-.006-.79,0-1.58,0-2.37q0-5.977,0-11.955c0-.343.01-.686.028-1.03a.416.416,0,0,1,.383-.412c.273-.016.549-.026.823-.026q7.215,0,14.429,0c.206,0,.413,0,.618.009.4.018.543.158.556.574.011.31.01.618.01.928v7.008" transform="translate(-35.426 -21.025)" fill="#5a3d84"/>
      <path id="Path_17605" data-name="Path 17605" d="M153.2,158.6q0-3.66,0-7.319c0-.955.029-.986.978-.987q4.535-.008,9.072,0,2.68,0,5.36,0c.31,0,.618,0,.927.017a.482.482,0,0,1,.507.526c.016.274.021.55.021.824q0,7.062,0,14.123c0,.341-.038.683-.068,1.024a.381.381,0,0,1-.274.275,2.171,2.171,0,0,1-.3.048c-.274.009-.55.011-.825.011q-7.009,0-14.02,0c-.309,0-.618-.008-.926-.026a.432.432,0,0,1-.433-.474c-.011-.309-.014-.618-.014-.927q0-3.557,0-7.113" transform="translate(-21.431 -21.025)" fill="#5a3d84"/>
      <path id="Path_17606" data-name="Path 17606" d="M311.586,117.177q-3.507,0-7.013,0c-.31,0-.619,0-.928-.016a.428.428,0,0,1-.434-.47c-.011-.274-.013-.55-.013-.825q0-7.117,0-14.233v-.206c.009-1.1.028-1.133,1.177-1.134q7.22-.006,14.439,0c.24,0,.481.011.72.033a.519.519,0,0,1,.506.544c.019.274.025.55.025.824q0,7.065,0,14.13c0,.309-.015.618-.038.926a.429.429,0,0,1-.395.407q-.463.021-.927.021-3.558,0-7.117,0" transform="translate(-42.415 -14.03)" fill="#5a3d84"/>
      <path id="Path_17607" data-name="Path 17607" d="M103.235,108.673q0-3.455,0-6.909c0-.343.013-.686.033-1.03a.446.446,0,0,1,.409-.4c.342-.025.686-.044,1.029-.044q5.052-.005,10.105,0c1.375,0,2.75,0,4.125,0a5.413,5.413,0,0,1,.816.075.339.339,0,0,1,.275.274,1.66,1.66,0,0,1,.046.3c.008.275.009.55.009.825q0,7.012,0,14.024c0,.343-.017.686-.035,1.029a.4.4,0,0,1-.346.329c-.24.014-.48.023-.721.023q-7.32,0-14.642,0c-1.091,0-1.1-.007-1.1-1.079q-.008-3.712,0-7.424" transform="translate(-14.442 -14.03)" fill="#5a3d84"/>
      <path id="Path_17608" data-name="Path 17608" d="M11.491,117.177q-3.455,0-6.91,0c-.31,0-.619,0-.928-.015a.427.427,0,0,1-.441-.464c-.011-.274-.014-.55-.014-.824q0-7.117,0-14.233c0-.206,0-.413,0-.619.015-.544.144-.688.65-.716.24-.013.481-.014.722-.014q7.013,0,14.026,0c.343,0,.687.023,1.028.05a.465.465,0,0,1,.394.417c.024.342.042.686.042,1.03q.005,5.105,0,10.21,0,1.908,0,3.816c0,.274,0,.55-.019.824a.48.48,0,0,1-.508.524c-.31.012-.619.013-.928.013q-3.56,0-7.117,0" transform="translate(-0.447 -14.03)" fill="#5a3d84"/>
      <path id="Path_17609" data-name="Path 17609" d="M311.6,200.246h7.013c.274,0,.55,0,.825.006.449.013.592.162.616.638.012.241.013.482.013.722q0,7.065,0,14.129a9.279,9.279,0,0,1-.075,1.024.347.347,0,0,1-.268.284,1.783,1.783,0,0,1-.4.077c-.274.015-.55.015-.824.015q-6.91,0-13.82,0c-.274,0-.55,0-.824-.016-.471-.026-.626-.18-.645-.62-.006-.138-.006-.275-.006-.413q0-7.425,0-14.851c0-.962.03-.991.974-.992q3.713-.006,7.425,0" transform="translate(-42.415 -28.013)" fill="#5a3d84"/>
      <path id="Path_17610" data-name="Path 17610" d="M161.617,267.177q-3.713,0-7.426,0c-.967,0-.992-.025-.993-.969q0-7.427,0-14.852,0-.31.021-.618a.439.439,0,0,1,.405-.4c.342-.025.686-.042,1.029-.044q5.26,0,10.52,0c1.169,0,2.338,0,3.507,0,.309,0,.618.019.925.045a.468.468,0,0,1,.414.4c.024.342.044.685.045,1.029q.005,3.97,0,7.941,0,3.041,0,6.084c0,.343-.026.686-.052,1.028a.4.4,0,0,1-.351.327c-.309.017-.618.03-.926.03h-7.117" transform="translate(-21.431 -35.014)" fill="#5a3d84"/>
      <path id="Path_17611" data-name="Path 17611" d="M714.551,178.057a4.255,4.255,0,0,0-1.332-.08q-14.757-.005-29.515,0c-.344,0-.688,0-1.032,0a2.841,2.841,0,0,1-.307-.025.453.453,0,0,1-.339-.346c-.013-.378-.023-.756-.023-1.134q0-19.866,0-39.731c0-.275,0-.55,0-.826,0-.1.01-.206.021-.309a.451.451,0,0,1,.344-.341c.377-.022.754-.04,1.132-.04q14.757,0,29.515,0c.344,0,.688.007,1.031-.008a3.782,3.782,0,0,0,.5-.089Zm-18.7-30.221c-1.212,0-1.212-.008-1.212,1.183q0,7.535,0,15.068c0,1.217-.01,1.233,1.282,1.233q4.128,0,8.257,0,3.354,0,6.709,0c1.135,0,1.24-.031,1.239-1.2q-.005-7.535,0-15.068c0-1.2-.023-1.215-1.2-1.217q-3.818-.005-7.637,0h-7.431" transform="translate(-95.407 -18.902)" fill="#5a3d84"/>
      <path id="Path_17612" data-name="Path 17612" d="M714.552,78.01c-.482-.019-.961-.053-1.442-.053q-14.651,0-29.3,0c-.345,0-.688,0-1.033,0-.136,0-.273-.015-.41-.028a.4.4,0,0,1-.334-.343c-.015-.378-.026-.755-.026-1.134q0-19.812,0-39.623c0-.275,0-.55,0-.826a3.055,3.055,0,0,1,.023-.308.409.409,0,0,1,.329-.347c.412-.022.824-.043,1.236-.043q14.757,0,29.512,0c.482,0,.963-.011,1.445-.017ZM694.638,63.874c0,.343.011.686.028,1.03a.415.415,0,0,0,.409.382c.275.014.549.022.824.022q7.473,0,14.946,0a8.665,8.665,0,0,0,.921-.055.352.352,0,0,0,.282-.268,1.2,1.2,0,0,0,.058-.3c.011-.275.016-.55.016-.825q0-7.318,0-14.636c0-.309-.013-.618-.035-.926a.5.5,0,0,0-.482-.45c-.274-.018-.549-.027-.824-.027q-7.422,0-14.842,0c-.309,0-.618.027-.925.051a.417.417,0,0,0-.341.34c-.018.308-.035.617-.035.925q0,3.711,0,7.421,0,3.66,0,7.319" transform="translate(-95.407 -4.935)" fill="#5a3d84"/>
      <path id="Path_17613" data-name="Path 17613" d="M714.551,277.93c-.275,0-.55.009-.826.009H683.488c-.275,0-.55,0-.826-.012a2.471,2.471,0,0,1-.306-.04.421.421,0,0,1-.325-.356c-.015-.378-.028-.755-.028-1.134q0-15.583,0-31.166,0-4.334,0-8.668c0-.31.009-.619.023-.928a.4.4,0,0,1,.333-.342c.378-.016.756-.03,1.134-.03q14.861,0,29.722,0c.446,0,.891-.038,1.337-.058Zm-19.914-13.963c0,.309.01.618.027.926a.443.443,0,0,0,.4.406,8.194,8.194,0,0,0,.821.053c1,.007,1.994,0,2.991,0H710.42c.343,0,.687,0,1.03-.017.445-.024.636-.21.657-.627.013-.24.014-.481.014-.722q0-7.424,0-14.847c0-.274-.008-.55-.033-.823-.023-.248-.14-.407-.467-.467a2.3,2.3,0,0,0-.306-.037c-.206-.009-.413-.013-.618-.013q-7.32,0-14.642,0a8.008,8.008,0,0,0-1.024.071.389.389,0,0,0-.372.421c-.018.309-.021.618-.021.927q0,3.66,0,7.32,0,3.712,0,7.424" transform="translate(-95.407 -32.903)" fill="#5a3d84"/>
      <path id="Path_17614" data-name="Path 17614" d="M431.845,0a3.745,3.745,0,0,1,.089.5c.016.343.009.687.009,1.031q0,13.512,0,27.024c0,.377.023.753.047,1.13a.457.457,0,0,0,.346.341c.1.011.2.022.308.023.275,0,.55,0,.825,0h39.71c.378,0,.756-.01,1.134-.023a.493.493,0,0,0,.353-.338,3.081,3.081,0,0,0,.026-.307c0-.31,0-.619,0-.929q0-13.563,0-27.127A4.2,4.2,0,0,1,474.782,0h-12.8a3.547,3.547,0,0,1,.075,1.127q.005,5.313,0,10.627c0,1.479,0,2.958,0,4.436,0,.274-.02.549-.04.822a.4.4,0,0,1-.341.338c-.377.024-.753.047-1.131.047q-5.984.005-11.968,0c-.963,0-1.927,0-2.889,0-.24,0-.48-.022-.718-.046a.425.425,0,0,1-.345-.338c-.022-.274-.045-.548-.045-.821q0-7.635,0-15.27c0-.308.04-.615.063-.923Z" transform="translate(-60.412)" fill="#5a3d84"/>
      <path id="Path_17615" data-name="Path 17615" d="M531.925,0c.022.41.063.821.064,1.232q.006,8.1,0,16.194,0,5.623,0,11.243c0,.343.014.687.029,1.03a.448.448,0,0,0,.351.335c.1.01.206.018.308.019.275,0,.551,0,.826,0q19.8,0,39.609,0c.378,0,.755-.013,1.133-.028a.46.46,0,0,0,.362-.323,2.631,2.631,0,0,0,.04-.306c.009-.24.011-.481.011-.722q0-14.08,0-28.159c0-.172,0-.344-.006-.516H562.063c.016.446.046.892.046,1.338q.005,7.171,0,14.341c0,.31,0,.619-.008.928a3.092,3.092,0,0,1-.051.407.455.455,0,0,1-.348.341c-.342.022-.685.043-1.029.043q-6.5.005-13,0c-.688,0-1.375,0-2.063,0-.206,0-.41-.025-.615-.047a.414.414,0,0,1-.336-.342c-.018-.343-.034-.686-.034-1.03q0-7.377,0-14.754c0-.275,0-.55.011-.825a2.537,2.537,0,0,1,.087-.4Z" transform="translate(-74.412)" fill="#5a3d84"/>
      <path id="Path_17616" data-name="Path 17616" d="M632,0c.007.481.019.962.019,1.443q0,13.46,0,26.921,0,.618.028,1.236a.454.454,0,0,0,.474.442c.1.007.206.011.309.012.241,0,.482,0,.722,0h39.607c.378,0,.756-.01,1.134-.024a.438.438,0,0,0,.353-.33c.015-.136.028-.274.031-.41,0-.344,0-.688,0-1.031q0-13.409,0-26.818c0-.48.03-.96.047-1.441H662.143c0,.446-.007.893-.007,1.339q0,7.107,0,14.215c0,.343,0,.687-.015,1.03a2.235,2.235,0,0,1-.094.5.354.354,0,0,1-.289.263,6.887,6.887,0,0,1-.82.048q-7.572,0-15.142,0c-.172,0-.344,0-.515-.009-.49-.022-.654-.188-.68-.705-.014-.274-.013-.55-.013-.824q0-7.416,0-14.833c0-.342.019-.686.029-1.029Z" transform="translate(-88.413)" fill="#5a3d84"/>
      <path id="Path_17617" data-name="Path 17617" d="M624.781,356.545a4.449,4.449,0,0,1-.077-.506c-.013-.343-.007-.687-.007-1.031q0-9.076,0-18.153c0-.344,0-.688-.013-1.031-.011-.324-.184-.484-.526-.507-.138-.009-.275-.012-.412-.014-.206,0-.413,0-.619,0H583.52c-.378,0-.756.012-1.134.03a.436.436,0,0,0-.41.394q-.031.462-.032.926,0,5.105,0,10.211,0,4.279,0,8.561a2.716,2.716,0,0,1-.095,1.121h12.8a2.878,2.878,0,0,1-.058-.407q-.006-3.762,0-7.526a2.846,2.846,0,0,1,.042-.408.438.438,0,0,1,.35-.335c.377-.024.753-.047,1.13-.048q7.217,0,14.434,0c.24,0,.481,0,.722.005.658.021.775.14.8.79,0,.069,0,.138,0,.206q0,3.505,0,7.011a6.918,6.918,0,0,1-.073.713h12.8" transform="translate(-81.396 -46.906)" fill="#5a3d84"/>
      <path id="Path_17618" data-name="Path 17618" d="M424.655,356.545q0-2.011.007-4.022v-15.78c0-1.469.024-1.443-1.4-1.442h-39.4c-.344,0-.687,0-1.031,0-.138,0-.274.014-.411.027a.434.434,0,0,0-.413.387c-.011.137-.017.274-.019.412,0,.31,0,.618,0,.928q0,9.076,0,18.152a5.423,5.423,0,0,1-.064,1.335h12.8a2.841,2.841,0,0,1-.089-.5q-.01-3.712,0-7.423a3.657,3.657,0,0,1,.033-.41.421.421,0,0,1,.342-.337c.377-.025.753-.051,1.13-.052q5.928-.005,11.856,0c1,0,1.993,0,2.99,0,.239,0,.479.021.718.044a.446.446,0,0,1,.35.337c.03.306.059.614.06.922q.008,3.247,0,6.495c0,.308-.029.617-.046.925h12.592" transform="translate(-53.428 -46.906)" fill="#5a3d84"/>
      <path id="Path_17619" data-name="Path 17619" d="M524.735,356.545c-.016-.446-.047-.892-.047-1.337q0-9.18,0-18.357c0-.344,0-.688-.016-1.031s-.175-.484-.526-.5-.687-.017-1.03-.017H483.821c-.378,0-.757,0-1.134.011-.483.018-.629.156-.649.607-.014.309-.012.618-.012.928q0,4.692,0,9.385,0,4.589,0,9.179c0,.378-.012.756-.019,1.134H494.6c-.01-.378-.028-.756-.029-1.134q0-2.992,0-5.983c0-.275,0-.551.01-.825a2.6,2.6,0,0,1,.061-.405.479.479,0,0,1,.354-.337c.308-.02.618-.04.926-.04q7.426,0,14.854,0c.274,0,.55.009.824.026a.488.488,0,0,1,.482.45c.034.375.054.753.055,1.131q.01,3.558.009,7.117h12.592" transform="translate(-67.429 -46.906)" fill="#5a3d84"/>
      <path id="Path_17620" data-name="Path 17620" d="M359.845,328.057a4.618,4.618,0,0,1,.506-.075c.309-.014.618-.008.928-.008q7.99,0,15.98,0c1.355,0,1.324.044,1.324-1.273q0-20.1,0-40.207c0-.309-.019-.618-.035-.925a.411.411,0,0,0-.268-.287,1.671,1.671,0,0,0-.3-.058c-.309-.009-.618-.008-.928-.008q-7.99,0-15.979,0a3.162,3.162,0,0,1-1.224-.094v12.8a6.423,6.423,0,0,1,.71-.077c1.509-.008,3.017,0,4.527,0,.1,0,.206,0,.308.008.069,0,.137.013.2.021a.4.4,0,0,1,.351.324,7.313,7.313,0,0,1,.081.918q.008,7.458,0,14.917c0,.1,0,.206,0,.308-.03.932-.192.985-1.042.985-1.51,0-3.018,0-4.527,0-.2,0-.409-.037-.612-.057Z" transform="translate(-50.34 -39.886)" fill="#5a3d84"/>
      <path id="Path_17621" data-name="Path 17621" d="M359.845,228.01c.446-.018.892-.052,1.337-.052q8-.006,16,0c.344,0,.687-.014,1.03-.03a.4.4,0,0,0,.339-.336c.014-.137.026-.274.028-.411.005-.275,0-.55,0-.826q0-19.714,0-39.427c0-.412-.016-.825-.034-1.237a.407.407,0,0,0-.333-.345,4.08,4.08,0,0,0-.41-.038c-.309-.006-.619-.005-.929-.005H361.187c-.447,0-.895-.011-1.342-.017v12.592a3.461,3.461,0,0,1,.408-.047q2.469-.006,4.94,0a3.277,3.277,0,0,1,.409.038.492.492,0,0,1,.348.34,4.458,4.458,0,0,1,.081,1.227q0,7.153,0,14.3c0,.308,0,.618-.024.925a1.07,1.07,0,0,1-.1.393.414.414,0,0,1-.214.2,1.243,1.243,0,0,1-.4.055q-2.469.005-4.94,0a2.909,2.909,0,0,1-.5-.089Z" transform="translate(-50.34 -25.919)" fill="#5a3d84"/>
      <path id="Path_17622" data-name="Path 17622" d="M359.845,127.93c.31,0,.618.009.928.009q8.143,0,16.289,0c.377,0,.754-.023,1.131-.046a.414.414,0,0,0,.347-.333,4.091,4.091,0,0,0,.038-.409c.006-.274,0-.55,0-.824q0-19.743,0-39.485c0-.378-.005-.756-.021-1.134a.425.425,0,0,0-.472-.432c-.343-.011-.686-.014-1.03-.014q-7.99,0-15.979,0c-.411,0-.821-.038-1.233-.058V97.792c1.543,0,3.087,0,4.63.011.342,0,.685.017,1.026.044a.481.481,0,0,1,.477.452c.03.375.05.753.05,1.128q.005,7.151,0,14.3c0,.206,0,.411,0,.618-.028.874-.142,1-1.037,1-1.715.007-3.429-.007-5.144-.012Z" transform="translate(-50.34 -11.919)" fill="#5a3d84"/>
      <path id="Path_17623" data-name="Path 17623" d="M714.54,335.28c-.481.006-.962.017-1.441.017q-14.732,0-29.464,0c-.411,0-.823.014-1.234.034a.418.418,0,0,0-.39.4q-.019.515-.019,1.03,0,9.221,0,18.441a5.413,5.413,0,0,1-.064,1.333h12.8a2.844,2.844,0,0,1-.089-.5q-.01-3.712,0-7.423a3.466,3.466,0,0,1,.033-.41.422.422,0,0,1,.342-.337c.377-.025.753-.051,1.13-.052q5.927-.005,11.856,0c1,0,1.993,0,2.99,0,.239,0,.479.022.718.044a.446.446,0,0,1,.35.337c.03.306.059.614.06.922q.008,3.247,0,6.495c0,.308-.029.617-.046.925h2.477Z" transform="translate(-95.396 -46.903)" fill="#5a3d84"/>
      <path id="Path_17624" data-name="Path 17624" d="M359.845,30.138a4.61,4.61,0,0,1,.507-.075c.309-.014.618-.008.928-.008q7.994,0,15.988,0c1.354,0,1.315.037,1.314-1.282q0-13.667,0-27.334c0-.48.03-.961.046-1.441H366.038c0,.447-.007.894-.007,1.341V15.469c0,.31,0,.619-.006.928-.027.947-.181,1-1.029,1q-2.268,0-4.537,0c-.2,0-.409-.037-.614-.057Z" transform="translate(-50.34)" fill="#5a3d84"/>
      <path id="Path_17625" data-name="Path 17625" d="M496.885,0a4.037,4.037,0,0,1,.075,1.228q.005,6.908,0,13.814c0,.412,0,.825,0,1.237,0,.138.007.275.018.412a.439.439,0,0,0,.415.386c.1.009.206.02.308.022.206,0,.413,0,.618,0q7.114,0,14.227,0c.342,0,.685-.016,1.026-.049a.344.344,0,0,0,.278-.272,1.256,1.256,0,0,0,.058-.3c.009-.309.008-.618.008-.927q0-7.164,0-14.329A3.142,3.142,0,0,1,514.018,0Z" transform="translate(-69.51)" fill="#5a3d84"/>
      <path id="Path_17626" data-name="Path 17626" d="M397.044,0q0,7.936-.005,15.871c0,.274.02.549.044.822a.444.444,0,0,0,.421.382c.274.017.549.028.823.028q7.163,0,14.325,0c.308,0,.616-.027.924-.049a.362.362,0,0,0,.281-.266,2.146,2.146,0,0,0,.041-.3c.007-.309.007-.618.007-.927q0-7.163,0-14.325c0-.41.041-.821.064-1.231Z" transform="translate(-55.543)" fill="#5a3d84"/>
      <path id="Path_17627" data-name="Path 17627" d="M596.965,0c.016.446.046.891.046,1.337q.005,7.162,0,14.323c0,.343.01.686.026,1.03a.419.419,0,0,0,.409.387c.274.017.549.028.823.028q7.16,0,14.322,0c.308,0,.615-.028.923-.051a.366.366,0,0,0,.284-.263,3.257,3.257,0,0,0,.053-.406c.01-.309.007-.618.007-.927q0-7.058,0-14.117c0-.446.019-.892.029-1.338Z" transform="translate(-83.511)" fill="#5a3d84"/>
      <path id="Path_17628" data-name="Path 17628" d="M697.044,0q0,7.936,0,15.871c0,.274.019.549.043.822a.444.444,0,0,0,.421.382c.274.017.549.028.823.028q7.163,0,14.325,0c.308,0,.616-.027.924-.049a.362.362,0,0,0,.281-.266,2.128,2.128,0,0,0,.041-.3c.007-.309.007-.618.007-.927q0-7.163,0-14.325c0-.41.041-.821.064-1.231Z" transform="translate(-97.511)" fill="#5a3d84"/>
      <path id="Path_17629" data-name="Path 17629" d="M664.018,358.635a2.443,2.443,0,0,1-.1-1.018c-.005-1.994,0-3.987,0-5.98,0-.241,0-.482-.006-.722a2.331,2.331,0,0,0-.037-.306.475.475,0,0,0-.346-.341c-.206-.012-.412-.021-.617-.021q-7.476,0-14.952,0c-.909,0-1.005.06-1,.975q.013,3.144,0,6.29a3.541,3.541,0,0,1-.075,1.126h17.133" transform="translate(-90.494 -48.997)" fill="#5a3d84"/>
      <path id="Path_17630" data-name="Path 17630" d="M563.971,358.635c-.022-.376-.062-.752-.063-1.128-.007-1.958,0-3.917,0-5.876,0-.274,0-.55-.008-.824-.013-.4-.161-.543-.574-.556-.24-.007-.481-.005-.722-.005H548.168c-1.109.007-1.127.017-1.128,1.173,0,2.4,0,4.811,0,7.216Z" transform="translate(-76.527 -48.997)" fill="#5a3d84"/>
      <path id="Path_17631" data-name="Path 17631" d="M463.892,358.635c-.01-.412-.028-.824-.029-1.236q0-2.835,0-5.668c0-.31,0-.619-.013-.928-.018-.4-.166-.538-.582-.552-.24-.008-.481-.005-.721-.005q-7.113,0-14.224,0c-1.346,0-1.309-.063-1.308,1.282q0,2.989,0,5.978c0,.378-.03.754-.047,1.131h16.927" transform="translate(-62.527 -48.997)" fill="#5a3d84"/>
      <path id="Path_17632" data-name="Path 17632" d="M359.845,167.167q2.165-.014,4.331-.03.566,0,1.133-.03a.441.441,0,0,0,.4-.407c.017-.206.027-.412.027-.618q0-7.373,0-14.747c0-.206-.009-.412-.027-.618a.438.438,0,0,0-.4-.4q-.412-.023-.824-.025c-1.168,0-2.337,0-3.506,0-.378,0-.754-.03-1.132-.046Z" transform="translate(-50.34 -21.017)" fill="#5a3d84"/>
      <path id="Path_17633" data-name="Path 17633" d="M359.845,267.244c.342-.021.684-.06,1.026-.063,1.239-.008,2.477,0,3.716,0,.24,0,.481-.007.722-.02a.454.454,0,0,0,.4-.407c.011-.1.021-.206.023-.308,0-.206,0-.413,0-.619q0-7.07,0-14.139c0-.309-.009-.618-.029-.927a.471.471,0,0,0-.392-.421,3.141,3.141,0,0,0-.409-.04q-2.529.006-5.057.02Z" transform="translate(-50.34 -35.015)" fill="#5a3d84"/>
      <path id="Path_17634" data-name="Path 17634" d="M359.845,67.087c.274.013.55.037.824.038q1.909.006,3.819,0c.24,0,.482-.007.722-.025a.533.533,0,0,0,.507-.548c.008-.1.013-.206.015-.309,0-.172,0-.344,0-.516q0-7.07,0-14.139c0-.31-.009-.619-.028-.927a.451.451,0,0,0-.4-.409c-.24-.013-.481-.018-.722-.018-1.239,0-2.477,0-3.716,0a3.336,3.336,0,0,1-1.024-.072Z" transform="translate(-50.34 -7.017)" fill="#5a3d84"/>
      <path id="Path_17635" data-name="Path 17635" d="M365.831,358.623a2.436,2.436,0,0,1-.1-1.013c0-2.053,0-4.107,0-6.16,0-.273-.011-.548-.032-.82a.447.447,0,0,0-.421-.38c-.274-.011-.548-.015-.821-.016-1.2,0-2.4,0-3.594,0a3.33,3.33,0,0,1-1.019-.072v8.463h5.986" transform="translate(-50.34 -48.985)" fill="#5a3d84"/>
      <path id="Path_17636" data-name="Path 17636" d="M474.713,326.521c0,.344-.005.688-.018,1.031a.452.452,0,0,1-.391.415q-.515.022-1.031.022H433.441q-.516,0-1.031-.021a.443.443,0,0,1-.414-.392c-.022-.342-.035-.686-.035-1.03q0-19.916,0-39.832c0-.241,0-.482,0-.722,0-.1.014-.206.025-.308a.476.476,0,0,1,.4-.416c.274-.021.549-.034.823-.034q20.123,0,40.245,0c.241,0,.482,0,.722.015a.5.5,0,0,1,.529.513c.012.343.012.687.012,1.031V306.6q0,9.958,0,19.916m-30.118-12.6c0,.342.022.685.046,1.027a.423.423,0,0,0,.344.337c.239.023.479.044.718.045.962.005,1.924,0,2.886,0q5.979,0,11.956,0c.377,0,.753-.02,1.13-.041a.422.422,0,0,0,.354-.327,2.452,2.452,0,0,0,.039-.305c.007-.309.009-.618.009-.927q0-7.163,0-14.327c0-.378-.012-.755-.028-1.133a.439.439,0,0,0-.405-.394c-.274-.015-.55-.026-.824-.026H445.874c-.241,0-.482,0-.722.015-.347.018-.519.173-.537.493s-.021.618-.021.927q0,3.659,0,7.318t0,7.318" transform="translate(-60.428 -39.902)" fill="#5a3d84"/>
      <path id="Path_17637" data-name="Path 17637" d="M624.713,176.521c0,.344-.005.688-.019,1.031a.451.451,0,0,1-.391.415q-.515.022-1.031.021H583.439q-.516,0-1.031-.021a.442.442,0,0,1-.413-.393c-.021-.377-.035-.755-.035-1.133q0-19.813,0-39.627c0-.274,0-.55,0-.825a3.039,3.039,0,0,1,.026-.307.476.476,0,0,1,.4-.417c.273-.02.549-.033.823-.033q20.123,0,40.245,0c.241,0,.482,0,.722.015a.5.5,0,0,1,.527.513c.012.343.012.687.012,1.031q0,9.906,0,19.813,0,9.957,0,19.916m-12.638-27.449c0-1.212-.007-1.22-1.177-1.22q-7.576-.005-15.151,0c-.273,0-.546.031-.819.055a.384.384,0,0,0-.276.273,2.152,2.152,0,0,0-.049.3c-.009.274-.01.55-.01.824q0,7.266,0,14.532c0,.31,0,.618.016.927.019.368.2.534.6.552.274.013.549.012.824.012q2.165,0,4.329,0,5.153,0,10.307,0c.342,0,.685-.023,1.026-.049a.4.4,0,0,0,.338-.341c.021-.342.04-.686.04-1.028q.005-3.711,0-7.421t0-7.421" transform="translate(-81.412 -18.918)" fill="#5a3d84"/>
      <path id="Path_17638" data-name="Path 17638" d="M433.409,227.957c-.343,0-.687-.009-1.031-.023a.437.437,0,0,1-.392-.41q-.026-.515-.026-1.031,0-19.868,0-39.737c0-.24,0-.482,0-.722a2.833,2.833,0,0,1,.026-.308.452.452,0,0,1,.414-.394c.343-.017.687-.029,1.03-.029q19.92,0,39.84,0c.275,0,.55,0,.825.012a2.029,2.029,0,0,1,.3.049.384.384,0,0,1,.265.287c.021.377.045.753.045,1.13q0,19.868,0,39.737c0,.275,0,.55-.006.826a2.026,2.026,0,0,1-.045.3.376.376,0,0,1-.281.27c-.378.019-.755.04-1.132.04q-9.908,0-19.817,0H433.409m27.446-12.645c1.209,0,1.221.012,1.22-1.175q0-7.577,0-15.154a6.345,6.345,0,0,0-.06-.818.341.341,0,0,0-.272-.276,1.361,1.361,0,0,0-.3-.056c-.274-.01-.55-.012-.824-.012H446.078c-.309,0-.618,0-.927.021a.506.506,0,0,0-.536.5c-.014.206-.021.412-.021.618q0,7.578,0,15.155c0,.172,0,.344.007.515.022.529.147.654.687.67.309.009.618.007.928.007h14.639" transform="translate(-60.428 -25.922)" fill="#5a3d84"/>
      <path id="Path_17639" data-name="Path 17639" d="M532,299.957q0-6.655,0-13.308c0-.344.011-.687.024-1.031a.433.433,0,0,1,.34-.342c.377-.022.753-.041,1.131-.041q19.807,0,39.613,0c.275,0,.55,0,.826,0a2.646,2.646,0,0,1,.307.029.462.462,0,0,1,.392.416c.021.377.035.755.035,1.133q0,19.807,0,39.613c0,.241,0,.482-.005.723,0,.137-.017.273-.034.41a.455.455,0,0,1-.4.407c-.344.016-.687.021-1.031.021q-19.91,0-39.82,0c-1.489,0-1.38.062-1.38-1.418q0-9.955,0-19.91Zm13.976-2.1c-.342,0-.685.03-1.027.053a.348.348,0,0,0-.264.28c-.021.273-.047.547-.048.821-.006,1.067,0,2.133,0,3.2q0,5.883,0,11.766c0,.341.031.684.055,1.025a.38.38,0,0,0,.274.275,2.072,2.072,0,0,0,.3.049c.31.009.619.011.929.011q7.172,0,14.346,0c.378,0,.756-.015,1.134-.034a.485.485,0,0,0,.4-.414c.022-.378.038-.755.038-1.134q0-6.14,0-12.282c0-.895,0-1.789-.006-2.684a3.174,3.174,0,0,0-.072-.611.329.329,0,0,0-.281-.267,8.7,8.7,0,0,0-.923-.055c-1.788-.005-3.577,0-5.366,0h-2.167q-3.664,0-7.328,0" transform="translate(-74.423 -39.902)" fill="#5a3d84"/>
      <path id="Path_17640" data-name="Path 17640" d="M382,136.694q0-.516.019-1.031a.434.434,0,0,1,.4-.4q.566-.027,1.134-.027,19.754,0,39.51,0c.275,0,.551,0,.825,0a3.1,3.1,0,0,1,.407.05.42.42,0,0,1,.329.352c.022.342.044.686.044,1.029q0,19.91,0,39.82c0,.241,0,.482-.006.722a4.1,4.1,0,0,1-.042.409.436.436,0,0,1-.348.335c-.376.019-.754.034-1.131.034q-19.808,0-39.614,0h-.413c-.1,0-.206,0-.31,0-.7-.012-.792-.1-.8-.753,0-.275,0-.55,0-.826q0-9.852,0-19.7,0-10.007,0-20.013m13.845,11.157c-1.212,0-1.213-.008-1.212,1.183q0,7.535,0,15.068c0,1.217-.01,1.233,1.282,1.233q4.13,0,8.257,0,3.356,0,6.709,0c1.134,0,1.24-.031,1.239-1.2q-.005-7.533,0-15.068c0-1.2-.024-1.215-1.2-1.217q-3.82-.005-7.637,0h-7.432" transform="translate(-53.439 -18.918)" fill="#5a3d84"/>
      <path id="Path_17641" data-name="Path 17641" d="M624.715,76.671c0,1.351.019,1.288-1.31,1.287h-40.15c-.275,0-.551-.006-.825-.017a.458.458,0,0,1-.451-.468c-.016-.344-.02-.687-.02-1.031q0-19.818,0-39.635c0-.274,0-.55.006-.824a2.2,2.2,0,0,1,.041-.306.432.432,0,0,1,.345-.337c.343-.019.686-.038,1.03-.038h39.943c.241,0,.482,0,.723.008a2.84,2.84,0,0,1,.307.034.455.455,0,0,1,.33.355c.016.342.028.686.028,1.03q0,9.96,0,19.919,0,10.012,0,20.023M610.542,65.312c.275,0,.55,0,.825-.006.593-.019.685-.119.7-.753.007-.241.005-.482.005-.721q0-7.269,0-14.537c0-.377-.026-.753-.06-1.128a.34.34,0,0,0-.269-.279,1.343,1.343,0,0,0-.3-.055c-.274-.011-.549-.013-.825-.013q-7.268,0-14.536,0c-.275,0-.55,0-.825.011-.458.02-.632.187-.654.613-.008.173-.009.345-.009.515q0,7.63,0,15.259c0,.1,0,.206,0,.308.022.669.116.774.79.778,1.238.01,2.475.006,3.711.006h11.444" transform="translate(-81.412 -4.938)" fill="#5a3d84"/>
      <path id="Path_17642" data-name="Path 17642" d="M483.673,177.991c-.31,0-.619,0-.928,0-.55-.012-.691-.138-.707-.649-.013-.378-.01-.756-.01-1.134V137c0-.31,0-.619,0-.929,0-.137.014-.274.027-.41a.442.442,0,0,1,.405-.4c.377-.019.755-.028,1.133-.028h39.51c.31,0,.619,0,.928.006a2.144,2.144,0,0,1,.3.043.422.422,0,0,1,.323.357c.015.343.027.687.027,1.03q0,19.91,0,39.82c0,.274,0,.55-.005.825,0,.1-.013.206-.024.308a.444.444,0,0,1-.345.339c-.342.015-.686.028-1.029.028q-9.9,0-19.807,0H483.673m12.2-30.136a9.231,9.231,0,0,0-.925.046.355.355,0,0,0-.288.263,1.655,1.655,0,0,0-.076.4c-.014.309-.014.618-.014.928q0,7.119,0,14.237a10.8,10.8,0,0,0,.044,1.132.464.464,0,0,0,.483.446c.274.019.55.024.825.024q7.427,0,14.856,0c.309,0,.617-.019.925-.04a.431.431,0,0,0,.348-.335,2.611,2.611,0,0,0,.069-.405c.015-.274.017-.55.017-.825q0-7.171,0-14.34c0-.377-.03-.754-.065-1.129a.429.429,0,0,0-.415-.384c-.309-.014-.618-.023-.927-.023q-3.663,0-7.325,0-3.766,0-7.531,0" transform="translate(-67.432 -18.918)" fill="#5a3d84"/>
      <path id="Path_17643" data-name="Path 17643" d="M674.69,309.878q0,8.3,0,16.608c0,.378-.015.756-.03,1.134a.427.427,0,0,1-.341.339c-.309.016-.618.029-.926.03H633.364c-.172,0-.343,0-.515,0-.712-.012-.8-.1-.819-.856-.006-.31,0-.619,0-.929V287c0-.31,0-.618,0-.928,0-.138.014-.274.028-.411a.442.442,0,0,1,.4-.4q.566-.028,1.134-.027,19.755,0,39.51,0c.31,0,.618,0,.928.006a2.045,2.045,0,0,1,.3.042.423.423,0,0,1,.323.356c.015.378.027.755.027,1.134q0,9.9,0,19.807,0,1.65,0,3.3m-14.234,5.456c.275,0,.55,0,.826,0,.679-.017.813-.154.847-.866.012-.241.009-.482.009-.723q0-7.169,0-14.34c0-.377-.028-.754-.063-1.129a.429.429,0,0,0-.406-.394c-.274-.015-.55-.026-.824-.026H645.885c-.274,0-.55.007-.824.023a.434.434,0,0,0-.431.373,2.229,2.229,0,0,0-.052.407c-.009.275-.009.55-.009.825q0,7.119,0,14.237c0,.378.006.757.042,1.132a.47.47,0,0,0,.473.458c.308.017.617.025.927.025q3.713,0,7.428,0h7.015" transform="translate(-88.416 -39.902)" fill="#5a3d84"/>
      <path id="Path_17644" data-name="Path 17644" d="M473.14,85.271c.343,0,.687,0,1.031.009s.519.169.53.495c.012.344.012.687.012,1.031v39.512c0,.31,0,.619,0,.929a2.819,2.819,0,0,1-.03.306.441.441,0,0,1-.339.346c-.446.024-.892.049-1.337.049q-19.653,0-39.305,0c-.31,0-.619,0-.929-.006a3.646,3.646,0,0,1-.409-.04.42.42,0,0,1-.346-.336c-.027-.376-.052-.753-.052-1.129q0-19.858,0-39.718c0-.241,0-.481,0-.722a3.091,3.091,0,0,1,.024-.309.442.442,0,0,1,.405-.4q.515-.021,1.031-.021H473.14M444.593,113.8c0,.275,0,.55.006.825.018.555.172.705.76.733.274.012.55.01.825.01q7.168,0,14.335,0c.377,0,.755-.024,1.13-.055a.444.444,0,0,0,.4-.408c.017-.24.028-.48.028-.721q0-7.58,0-15.16a7.477,7.477,0,0,0-.042-.822.347.347,0,0,0-.264-.286,1.771,1.771,0,0,0-.4-.082c-.309-.015-.618-.017-.927-.017H446.2c-.274,0-.55,0-.825.011a1.94,1.94,0,0,0-.307.034c-.321.064-.439.2-.457.471-.021.308-.022.618-.022.927q0,3.713,0,7.425V113.8" transform="translate(-60.428 -11.929)" fill="#5a3d84"/>
      <path id="Path_17645" data-name="Path 17645" d="M623.033,235.271c.275,0,.55,0,.826,0,.76.011.843.089.854.808,0,.206,0,.413,0,.619v39.82c0,.241,0,.482,0,.722a3.068,3.068,0,0,1-.029.306.445.445,0,0,1-.335.35c-.411.024-.823.05-1.234.05q-19.756,0-39.512,0c-.241,0-.482,0-.723,0-.138,0-.275-.009-.412-.021a.486.486,0,0,1-.478-.452c-.02-.378-.026-.756-.027-1.134q0-19.756,0-39.512c0-.275,0-.55,0-.826a2.871,2.871,0,0,1,.023-.308.444.444,0,0,1,.4-.4q.515-.021,1.03-.021,9.955,0,19.911,0h19.7m-10.958,13.966c0-.343-.014-.687-.04-1.029a.344.344,0,0,0-.256-.293,1.63,1.63,0,0,0-.4-.083c-.309-.017-.618-.019-.928-.019q-7.115,0-14.232,0c-.343,0-.689,0-1.03.031-.456.043-.557.208-.581.576-.015.24-.012.482-.012.722q0,7.426,0,14.851c0,.275,0,.55.019.825a.511.511,0,0,0,.531.515c.274.022.55.031.824.031q7.373,0,14.748,0a9.243,9.243,0,0,0,.925-.051.473.473,0,0,0,.419-.5c.013-.31.016-.618.016-.928q0-3.661,0-7.323t0-7.322" transform="translate(-81.412 -32.913)" fill="#5a3d84"/>
      <path id="Path_17646" data-name="Path 17646" d="M382,46q0-4.695,0-9.388c0-.309.013-.618.029-.926a.4.4,0,0,1,.335-.343c.342-.021.686-.04,1.029-.04q5.108-.005,10.214,0h29.3c.378,0,.757,0,1.134.014.441.018.593.18.615.65.016.343.014.687.014,1.031q0,19.653,0,39.306c0,.309,0,.618-.009.928a2.847,2.847,0,0,1-.059.406.373.373,0,0,1-.279.271c-.342.021-.685.048-1.027.048q-19.963,0-39.925,0c-1.487,0-1.371.084-1.372-1.421q0-9.955,0-19.911Zm28.83,19.309a9.189,9.189,0,0,0,.923-.05.357.357,0,0,0,.289-.261,1.069,1.069,0,0,0,.06-.3c.012-.309.017-.618.017-.927q0-7.216,0-14.431c0-.377-.029-.753-.057-1.128a.466.466,0,0,0-.346-.344,2.446,2.446,0,0,0-.305-.038c-.275-.008-.55-.009-.825-.009q-7.215,0-14.43,0c-.377,0-.754.024-1.13.048a.4.4,0,0,0-.348.33c-.021.308-.04.616-.04.925q-.005,2.783,0,5.566,0,4.638,0,9.277c0,.342.029.685.052,1.026a.343.343,0,0,0,.273.267c.342.021.685.047,1.027.048q3.711.006,7.421,0t7.422,0" transform="translate(-53.439 -4.938)" fill="#5a3d84"/>
      <path id="Path_17647" data-name="Path 17647" d="M532,186.951q0-.464,0-.929c0-.1.009-.206.017-.309a.426.426,0,0,1,.317-.361,3.3,3.3,0,0,1,.409-.045c.344-.008.688-.006,1.032-.006h32.29q3.559,0,7.119,0c.343,0,.686.015,1.03.034a.444.444,0,0,1,.409.395c.024.377.042.755.042,1.133q0,19.756,0,39.512c0,.275,0,.55-.007.826a3.419,3.419,0,0,1-.05.408.426.426,0,0,1-.36.32c-.412.015-.824.028-1.236.028q-19.7,0-39.409,0c-.31,0-.619,0-.928,0-.1,0-.206-.011-.309-.021a.408.408,0,0,1-.341-.335c-.016-.343-.028-.686-.028-1.03q0-9.9,0-19.807V186.951m28.612,28.36c.309,0,.618,0,.927-.013.374-.015.536-.19.564-.588.01-.137.013-.274.015-.412,0-.206,0-.412,0-.618q0-7.164,0-14.328c0-.377-.027-.753-.052-1.129a.469.469,0,0,0-.339-.35,2.178,2.178,0,0,0-.3-.042c-.275-.008-.55-.01-.825-.01H546.169c-.309,0-.618,0-.927.015-.408.02-.573.177-.592.556-.012.24-.013.481-.013.722q0,7.473,0,14.946c0,.308.027.616.048.924a.343.343,0,0,0,.264.275c.308.022.616.051.924.052q3.711.006,7.421,0h7.319" transform="translate(-74.423 -25.922)" fill="#5a3d84"/>
      <path id="Path_17648" data-name="Path 17648" d="M633.6,227.957q-.568,0-1.134-.022a.419.419,0,0,1-.405-.39c-.02-.411-.034-.824-.034-1.236q0-19.653,0-39.305c0-.31,0-.619.006-.929a3.668,3.668,0,0,1,.044-.409.413.413,0,0,1,.354-.326c.445-.02.893-.038,1.339-.038q19.6,0,39.2,0c.31,0,.619,0,.928.005a4.112,4.112,0,0,1,.411.034.406.406,0,0,1,.339.339c.019.342.036.686.036,1.029q0,5.881,0,11.761,0,13.927,0,27.854c0,.378,0,.757-.016,1.134-.012.336-.165.477-.528.489-.343.012-.687.011-1.031.011H633.6m26.766-12.645h.723c.894,0,1.029-.016,1.047-1.072,0-.138,0-.275,0-.413q0-7.222,0-14.445c0-.377-.032-.754-.069-1.129a.452.452,0,0,0-.412-.4c-.239-.019-.48-.034-.72-.034q-7.585,0-15.168,0a6.058,6.058,0,0,0-.819.061.374.374,0,0,0-.287.268,1.1,1.1,0,0,0-.072.3c-.015.24-.019.481-.019.722q0,7.377,0,14.755c0,.341.036.685.07,1.025a.417.417,0,0,0,.353.329c.309.016.618.03.927.03q3.714,0,7.429,0h7.017" transform="translate(-88.416 -25.922)" fill="#5a3d84"/>
      <path id="Path_17649" data-name="Path 17649" d="M573.106,85.272q.566,0,1.134.022a.424.424,0,0,1,.393.408c.022.378.038.755.038,1.133q0,19.707,0,39.414c0,.241,0,.482,0,.722,0,.137-.01.274-.021.412a.512.512,0,0,1-.512.534c-.378.022-.756.031-1.134.031H533.589c-.275,0-.55,0-.825-.008a3.473,3.473,0,0,1-.409-.046.421.421,0,0,1-.324-.357c-.015-.377-.028-.755-.028-1.133q0-14.7,0-29.406,0-5.158,0-10.318c0-.343.009-.687.022-1.03a.4.4,0,0,1,.328-.347c.378-.016.755-.032,1.133-.032q9.906,0,19.81,0t19.811,0M544.636,113.8c0,.275,0,.55.005.825.016.563.158.7.752.732.274.013.55.011.825.011q7.165,0,14.332,0c.377,0,.754-.022,1.13-.051a.482.482,0,0,0,.4-.414c.021-.308.036-.617.037-.925q.005-2.32,0-4.64,0-5,0-10c0-.342-.016-.686-.036-1.029a.476.476,0,0,0-.39-.421,2.825,2.825,0,0,0-.407-.058c-.274-.012-.55-.012-.825-.012q-7.114,0-14.228,0a4.843,4.843,0,0,0-1.231.073.424.424,0,0,0-.335.344c-.017.308-.031.618-.032.926q0,3.763,0,7.527V113.8" transform="translate(-74.423 -11.929)" fill="#5a3d84"/>
      <path id="Path_17650" data-name="Path 17650" d="M382,247.4q0-5.365,0-10.73c0-.344.011-.687.027-1.03a.4.4,0,0,1,.338-.337c.378-.015.755-.028,1.134-.028q18.262,0,36.525,0h3.2c.241,0,.482,0,.723,0,.581.016.7.136.719.75.009.274.006.55.006.825q0,19.707,0,39.414c0,.31,0,.619-.01.928a2.032,2.032,0,0,1-.065.405.34.34,0,0,1-.276.273,5.942,5.942,0,0,1-.817.075c-1.067.008-2.132,0-3.2,0H383.78c-.413,0-.826,0-1.238-.021a.479.479,0,0,1-.526-.507c-.013-.343-.014-.687-.014-1.031q0-9.853,0-19.707Zm12.634,16.392c0,.31,0,.618.009.928.016.438.177.6.637.63.274.018.55.019.825.019q7.269,0,14.538,0c.342,0,.686-.021,1.028-.048a.49.49,0,0,0,.41-.409c.021-.308.038-.617.039-.925,0-1.374,0-2.75,0-4.124q0-5.31,0-10.62a10,10,0,0,0-.056-1.027.369.369,0,0,0-.264-.291,1.539,1.539,0,0,0-.4-.087c-.308-.017-.618-.021-.927-.021q-7.114,0-14.228,0c-.378,0-.756.016-1.132.046a.456.456,0,0,0-.457.464c-.014.309-.018.618-.018.927q0,3.66,0,7.32,0,3.609,0,7.217" transform="translate(-53.439 -32.913)" fill="#5a3d84"/>
      <path id="Path_17651" data-name="Path 17651" d="M524.688,76.378c0,1.742.145,1.577-1.527,1.578q-19.806,0-39.615,0c-.275,0-.55,0-.825-.005-.545-.015-.665-.132-.685-.667-.01-.275-.008-.55-.009-.826V37.154c0-.344,0-.688.005-1.031.018-.715.11-.8.865-.819.275-.007.55,0,.826,0h39.305c.309,0,.618,0,.928.007a3.437,3.437,0,0,1,.407.052.362.362,0,0,1,.274.274c.022.376.05.753.05,1.129q.005,9.9,0,19.807t0,19.807M510.81,65.31c.309,0,.618-.011.926-.036a.348.348,0,0,0,.3-.251,1.609,1.609,0,0,0,.085-.4c.016-.309.019-.619.019-.928q0-7.12,0-14.24c0-.343,0-.688-.035-1.03-.044-.456-.223-.56-.578-.587-.24-.019-.481-.016-.722-.016q-7.482,0-14.962,0c-.275,0-.55.015-.824.036a.507.507,0,0,0-.4.416c-.023.2-.039.411-.042.617-.006.447,0,.895,0,1.342q0,6.758,0,13.517c0,.378.021.755.05,1.132a.442.442,0,0,0,.4.4c.308.017.618.028.927.028q3.714,0,7.429,0t7.43,0" transform="translate(-67.432 -4.938)" fill="#5a3d84"/>
      <path id="Path_17652" data-name="Path 17652" d="M673.219,85.271q.516,0,1.031.019a.406.406,0,0,1,.412.379c.016.412.026.824.026,1.237q0,19.656,0,39.31c0,.31,0,.619,0,.929,0,.137-.018.274-.034.409a.412.412,0,0,1-.338.344c-.411.024-.823.048-1.235.048q-10.73.005-21.461,0-8.977,0-17.953,0-.566,0-1.134-.031a.459.459,0,0,1-.472-.45c-.021-.411-.031-.824-.031-1.236q0-19.656,0-39.311c0-.309,0-.619.007-.928a3.279,3.279,0,0,1,.052-.407.36.36,0,0,1,.278-.269c.377-.019.754-.043,1.131-.044q9.906,0,19.81,0h19.913m-12.593,30.093c.343,0,.686-.021,1.029-.047a.49.49,0,0,0,.422-.395,3.027,3.027,0,0,0,.051-.409c.01-.309.01-.618.01-.928q0-7.018,0-14.036c0-.412-.019-.824-.05-1.235a.483.483,0,0,0-.476-.456c-.273-.026-.549-.044-.823-.044q-7.43,0-14.861,0a8.3,8.3,0,0,0-.924.065.467.467,0,0,0-.39.423c-.024.342-.042.686-.042,1.03q-.005,5.057,0,10.114,0,2.219,0,4.438c0,.309.011.618.034.926a.548.548,0,0,0,.543.52c.342.024.686.033,1.03.034q3.56,0,7.121,0,3.663,0,7.327,0" transform="translate(-88.416 -11.929)" fill="#5a3d84"/>
      <path id="Path_17653" data-name="Path 17653" d="M523.116,235.271c.343,0,.687,0,1.031.01.362.011.514.151.526.49.014.378.015.756.015,1.134q0,19.654,0,39.31c0,.31,0,.619,0,.928a4.09,4.09,0,0,1-.034.41.411.411,0,0,1-.337.344c-.411.025-.823.049-1.235.049q-9.337,0-18.675,0-10.369,0-20.739,0c-.378,0-.756-.01-1.133-.031a.461.461,0,0,1-.474-.449c-.021-.412-.03-.824-.031-1.237q0-19.656,0-39.31c0-.31,0-.619.007-.928a3.26,3.26,0,0,1,.052-.408.36.36,0,0,1,.278-.269c.377-.02.753-.044,1.13-.044q9.906,0,19.81,0h19.811M510.6,265.364c.343,0,.687-.016,1.03-.042a.508.508,0,0,0,.465-.473,4.078,4.078,0,0,0,.04-.41c.008-.206.008-.412.008-.618q0-7.225,0-14.449a11,11,0,0,0-.065-1.13.414.414,0,0,0-.332-.354,2.315,2.315,0,0,0-.406-.064c-.206-.013-.413-.012-.619-.012q-7.378,0-14.758,0a9.227,9.227,0,0,0-.925.057.494.494,0,0,0-.414.4,3.649,3.649,0,0,0-.041.41c-.008.241-.007.482-.007.723q0,7.172,0,14.345c0,.378.021.755.047,1.132a.5.5,0,0,0,.4.423c.307.03.617.055.926.056,1.616.005,3.233,0,4.85,0h2.58q3.612,0,7.224,0" transform="translate(-67.432 -32.913)" fill="#5a3d84"/>
      <path id="Path_17654" data-name="Path 17654" d="M655.385,150.295q-3.607,0-7.215,0c-1.194,0-1.2-.014-1.2,1.191q.007,7.216,0,14.431c0,.138,0,.275,0,.412.012.717.1.8.853.815.206,0,.412,0,.618,0q7.009,0,14.018,0c.343,0,.686-.012,1.029-.029a.445.445,0,0,0,.408-.4c.018-.206.028-.412.028-.618q0-7.369,0-14.74c0-.206-.007-.412-.024-.618a.465.465,0,0,0-.483-.434c-.309-.012-.618-.014-.927-.014q-3.556,0-7.112,0" transform="translate(-90.507 -21.025)" fill="#5a3d84"/>
      <path id="Path_17655" data-name="Path 17655" d="M655.382,50.246h-6.909c-.24,0-.482,0-.722,0-.67.012-.764.108-.775.782-.005.241,0,.482,0,.722V65.57c0,.31,0,.619.007.928.014.438.18.6.642.625.24.015.482.015.722.015q7.115,0,14.23,0c.309,0,.618-.021.925-.046a.47.47,0,0,0,.4-.415c.021-.274.034-.548.034-.822q0-7.218,0-14.438c0-.172,0-.343,0-.515,0-.069-.011-.137-.018-.206a.478.478,0,0,0-.483-.438c-.31-.009-.618-.01-.928-.01h-7.116" transform="translate(-90.507 -7.029)" fill="#5a3d84"/>
      <path id="Path_17656" data-name="Path 17656" d="M655.48,267.177h7.013c.274,0,.55,0,.825-.006.444-.012.592-.168.609-.642.009-.24.005-.481.005-.722q0-7.065,0-14.129c0-.309-.01-.618-.029-.926a.458.458,0,0,0-.395-.416c-.273-.024-.548-.042-.822-.044-1.066-.005-2.131,0-3.2,0H648.659c-.31,0-.619,0-.928.008-.6.022-.736.157-.753.725,0,.1,0,.206,0,.31q0,7.425,0,14.851c0,.957.033.99.975.992q3.765.006,7.529,0" transform="translate(-90.507 -35.014)" fill="#5a3d84"/>
      <path id="Path_17657" data-name="Path 17657" d="M505.387,200.246c-2.475,0-4.95,0-7.424,0-.908,0-.992.072-.991.987q.008,7.425,0,14.85c0,.206.01.412.027.617a.454.454,0,0,0,.413.395c.377.026.754.045,1.132.046q5.826,0,11.653,0c.859,0,1.718,0,2.578,0,.24,0,.48-.021.718-.045a.47.47,0,0,0,.4-.413c.022-.307.035-.617.036-.925q0-7.117,0-14.231c0-.138,0-.275,0-.413,0-.1,0-.206-.009-.309-.032-.436-.238-.544-.6-.55-.275-.006-.55-.005-.825-.005h-7.116" transform="translate(-69.523 -28.012)" fill="#5a3d84"/>
      <path id="Path_17658" data-name="Path 17658" d="M505.469,300.295q-3.556,0-7.112,0c-.309,0-.618.006-.927.021a.435.435,0,0,0-.442.467c-.011.274-.013.55-.013.824q0,7.113,0,14.225c0,1.336-.046,1.313,1.287,1.313q7.216,0,14.431,0c.274,0,.55-.013.823-.031a.446.446,0,0,0,.391-.413c.016-.2.026-.411.026-.618q0-7.369,0-14.74c0-.206-.009-.412-.027-.618a.438.438,0,0,0-.4-.405c-.274-.016-.549-.025-.823-.025q-3.607,0-7.215,0" transform="translate(-69.523 -42.009)" fill="#5a3d84"/>
      <path id="Path_17659" data-name="Path 17659" d="M505.5,117.177q3.713,0,7.425,0c.851,0,1.012-.005,1.011-.975q-.009-7.426,0-14.851c0-.138,0-.275-.008-.412a1.492,1.492,0,0,0-.061-.3.412.412,0,0,0-.275-.282,1.1,1.1,0,0,0-.3-.051c-.309-.01-.618-.014-.927-.015q-6.91,0-13.82,0c-.377,0-.755.018-1.131.044a.443.443,0,0,0-.409.4c-.015.2-.022.411-.022.618q0,7.425,0,14.851c0,.138,0,.275.006.413.016.4.164.544.576.555.31.009.619.007.928.007H505.5" transform="translate(-69.523 -14.03)" fill="#5a3d84"/>
      <path id="Path_17660" data-name="Path 17660" d="M563.9,58.677q0-3.713,0-7.425c0-.977-.026-1-.961-1q-7.426,0-14.852,0c-.206,0-.412.006-.618.019a.439.439,0,0,0-.4.409c-.021.239-.038.48-.038.72q0,7.27,0,14.541c0,.1,0,.206,0,.31.027.749.147.866.937.89.274.009.55,0,.825,0h6.5q3.61,0,7.219,0c.342,0,.685-.031,1.027-.061a.413.413,0,0,0,.325-.357c.017-.308.031-.618.032-.926q0-3.557,0-7.116" transform="translate(-76.526 -7.029)" fill="#5a3d84"/>
      <path id="Path_17661" data-name="Path 17661" d="M705.512,300.295q-3.557,0-7.113,0c-.309,0-.618.01-.926.027a.436.436,0,0,0-.4.407c-.021.239-.037.479-.038.719q0,7.268,0,14.536a5.776,5.776,0,0,0,.067.817.338.338,0,0,0,.267.281,1.531,1.531,0,0,0,.3.051c.309.009.618.012.927.012q6.908,0,13.814,0c.377,0,.754-.02,1.131-.041a.4.4,0,0,0,.329-.347c.014-.24.025-.48.025-.721q0-7.319,0-14.638c0-1.091-.006-1.1-1.073-1.1q-3.66-.007-7.32,0" transform="translate(-97.51 -42.009)" fill="#5a3d84"/>
      <path id="Path_17662" data-name="Path 17662" d="M597.021,208.74q0,3.505,0,7.012c0,.309.01.618.026.927a.448.448,0,0,0,.4.409c.341.028.685.049,1.027.05q3.507.005,7.011,0,3.455,0,6.909,0c.342,0,.686-.02,1.028-.047a.452.452,0,0,0,.412-.4c.02-.239.034-.48.034-.72q0-7.32,0-14.642c0-.034,0-.069,0-.1-.015-.945-.043-.981-.994-.981q-7.424,0-14.848,0c-.968,0-1,.029-1,.965q-.008,3.763,0,7.527Z" transform="translate(-83.519 -28.013)" fill="#5a3d84"/>
      <path id="Path_17663" data-name="Path 17663" d="M455.4,50.246q-3.557,0-7.115,0c-.308,0-.617.02-.925.037a.375.375,0,0,0-.286.262,1.656,1.656,0,0,0-.037.2c-.009.172-.015.343-.015.515q0,7.372,0,14.745c0,.24.019.48.038.719a.438.438,0,0,0,.333.353,3.28,3.28,0,0,0,.408.051c.241.009.482.009.722.009q6.909,0,13.818,0c.377,0,.753-.028,1.13-.056a.431.431,0,0,0,.347-.337,6.116,6.116,0,0,0,.048-.614c.007-.654,0-1.307,0-1.959q0-6.238,0-12.477c0-.376-.029-.753-.053-1.129a.347.347,0,0,0-.274-.273c-.307-.02-.615-.043-.923-.044q-3.61-.005-7.218,0" transform="translate(-62.535 -7.029)" fill="#5a3d84"/>
      <path id="Path_17664" data-name="Path 17664" d="M455.5,267.177q3.557,0,7.115,0c.308,0,.617-.022.925-.041a.353.353,0,0,0,.278-.268,5.892,5.892,0,0,0,.053-.613c.007-.722,0-1.443,0-2.165q0-6.136,0-12.271c0-.377-.024-.754-.047-1.13a.429.429,0,0,0-.341-.342,3.466,3.466,0,0,0-.409-.046c-.24-.009-.481-.008-.722-.008q-6.909,0-13.818,0c-.377,0-.754.028-1.131.053a.408.408,0,0,0-.337.344c-.02.308-.039.617-.039.925q-.005,3.507,0,7.012,0,3.66,0,7.321c0,.308.028.616.05.923a.347.347,0,0,0,.28.266c.308.018.616.039.925.039q3.609.005,7.218,0" transform="translate(-62.535 -35.014)" fill="#5a3d84"/>
      <path id="Path_17665" data-name="Path 17665" d="M405.4,300.295q-3.505,0-7.01,0c-.309,0-.618.01-.927.028a.434.434,0,0,0-.391.411c-.021.239-.036.479-.037.719q0,7.267,0,14.536a7.667,7.667,0,0,0,.066.817.386.386,0,0,0,.273.279,2.051,2.051,0,0,0,.3.048c.309.009.618.012.927.012q6.908,0,13.814,0c.377,0,.754-.021,1.131-.043a.4.4,0,0,0,.325-.35c.013-.24.023-.48.023-.721q0-7.319,0-14.638c0-1.086-.006-1.093-1.079-1.095q-3.711-.007-7.422,0" transform="translate(-55.543 -42.009)" fill="#5a3d84"/>
      <path id="Path_17666" data-name="Path 17666" d="M705.4,200.246h-6.91c-.274,0-.55,0-.825.006-.449.013-.593.162-.617.638-.012.24-.012.481-.012.722q0,7.064,0,14.129a9.044,9.044,0,0,0,.074,1.023.348.348,0,0,0,.267.285,1.793,1.793,0,0,0,.4.077c.274.015.55.015.825.015h13.819c.275,0,.55,0,.825-.016.471-.026.626-.18.645-.62.006-.137.006-.274.006-.412q0-7.426,0-14.851c0-.962-.03-.992-.973-.993q-3.765-.006-7.529,0" transform="translate(-97.51 -28.013)" fill="#5a3d84"/>
      <path id="Path_17667" data-name="Path 17667" d="M605.431,300.295q-3.607,0-7.215,0c-1.205,0-1.2-.011-1.2,1.191q0,7.215,0,14.429c0,.241,0,.482.015.722.017.329.175.477.53.495.274.013.55.014.824.014q7.06,0,14.12,0c.342,0,.685-.03,1.026-.054a.369.369,0,0,0,.276-.272,2.444,2.444,0,0,0,.046-.3c.009-.24.01-.481.01-.722q0-7.06,0-14.12c0-.309-.008-.618-.026-.926a.435.435,0,0,0-.476-.433c-.309-.014-.618-.017-.927-.017q-3.5,0-7.008,0" transform="translate(-83.519 -42.009)" fill="#5a3d84"/>
      <path id="Path_17668" data-name="Path 17668" d="M447.021,158.815q0,3.556,0,7.111c0,1.2-.02,1.22,1.175,1.22q7.266,0,14.532,0c.273,0,.546-.033.819-.058a.356.356,0,0,0,.268-.279c.023-.238.05-.477.052-.716.006-.79,0-1.58,0-2.37q0-5.977,0-11.955c0-.343-.01-.686-.028-1.03a.416.416,0,0,0-.383-.412c-.273-.016-.549-.026-.823-.026q-7.215,0-14.429,0c-.206,0-.413,0-.618.009-.4.018-.543.158-.556.574-.011.31-.009.618-.009.928v7.008" transform="translate(-62.535 -21.025)" fill="#5a3d84"/>
      <path id="Path_17669" data-name="Path 17669" d="M563.9,158.6q0-3.66,0-7.319c0-.955-.029-.986-.978-.987q-4.535-.008-9.072,0-2.68,0-5.36,0c-.31,0-.618,0-.927.017a.482.482,0,0,0-.507.526c-.016.274-.021.55-.021.824q0,7.062,0,14.123c0,.341.038.683.068,1.024a.381.381,0,0,0,.274.275,2.191,2.191,0,0,0,.3.048c.275.009.55.011.825.011q7.009,0,14.02,0c.309,0,.618-.008.926-.026a.432.432,0,0,0,.434-.474c.011-.309.014-.618.014-.927q0-3.557,0-7.113" transform="translate(-76.526 -21.025)" fill="#5a3d84"/>
      <path id="Path_17670" data-name="Path 17670" d="M405.515,117.177q3.507,0,7.013,0c.31,0,.619,0,.928-.016a.428.428,0,0,0,.434-.47c.011-.274.013-.55.013-.825q0-7.117,0-14.233v-.206c-.009-1.1-.028-1.133-1.177-1.134q-7.22-.006-14.439,0c-.24,0-.481.011-.72.033a.519.519,0,0,0-.506.544c-.019.274-.025.55-.025.824q0,7.065,0,14.13c0,.309.016.618.038.926a.429.429,0,0,0,.395.407q.463.021.927.021,3.558,0,7.117,0" transform="translate(-55.542 -14.03)" fill="#5a3d84"/>
      <path id="Path_17671" data-name="Path 17671" d="M613.87,108.673q0-3.455,0-6.909c0-.343-.013-.686-.033-1.03a.446.446,0,0,0-.409-.4c-.342-.025-.685-.044-1.029-.044q-5.052-.005-10.105,0c-1.375,0-2.75,0-4.125,0a5.413,5.413,0,0,0-.816.075.339.339,0,0,0-.275.274,1.66,1.66,0,0,0-.046.3c-.008.275-.009.55-.009.825q0,7.012,0,14.024c0,.343.017.686.035,1.029a.4.4,0,0,0,.346.329c.24.014.48.023.721.023q7.32,0,14.642,0c1.091,0,1.1-.007,1.1-1.079q.008-3.712,0-7.424" transform="translate(-83.519 -14.03)" fill="#5a3d84"/>
      <path id="Path_17672" data-name="Path 17672" d="M705.611,117.177q3.455,0,6.91,0c.31,0,.619,0,.928-.015a.427.427,0,0,0,.441-.464c.011-.274.014-.55.014-.824q0-7.117,0-14.233c0-.206,0-.413,0-.619-.015-.544-.144-.688-.65-.716-.24-.013-.481-.014-.722-.014q-7.013,0-14.027,0c-.342,0-.686.023-1.028.05a.466.466,0,0,0-.394.417c-.024.342-.041.686-.041,1.03q-.005,5.105,0,10.21,0,1.908,0,3.816c0,.274,0,.55.02.824a.48.48,0,0,0,.508.524c.309.012.618.013.928.013q3.558,0,7.117,0" transform="translate(-97.51 -14.03)" fill="#5a3d84"/>
      <path id="Path_17673" data-name="Path 17673" d="M405.5,200.246H398.49c-.274,0-.55,0-.825.006-.449.013-.592.162-.616.638-.012.241-.013.482-.013.722q0,7.065,0,14.129a9.279,9.279,0,0,0,.075,1.024.347.347,0,0,0,.268.284,1.783,1.783,0,0,0,.4.077c.274.015.55.015.824.015q6.91,0,13.82,0c.274,0,.55,0,.824-.016.471-.026.626-.18.645-.62.006-.138.006-.275.006-.413q0-7.425,0-14.851c0-.962-.03-.991-.974-.992q-3.713-.006-7.425,0" transform="translate(-55.542 -28.013)" fill="#5a3d84"/>
      <path id="Path_17674" data-name="Path 17674" d="M555.484,267.177q3.713,0,7.426,0c.967,0,.992-.025.992-.969q0-7.427,0-14.852,0-.31-.021-.618a.439.439,0,0,0-.405-.4c-.342-.025-.686-.042-1.029-.044q-5.26,0-10.52,0c-1.169,0-2.338,0-3.507,0-.309,0-.618.019-.925.045a.468.468,0,0,0-.414.4c-.025.342-.044.685-.045,1.029q-.005,3.97,0,7.941,0,3.041,0,6.084c0,.343.026.686.052,1.028a.4.4,0,0,0,.351.327c.309.017.617.03.926.03h7.117" transform="translate(-76.526 -35.014)" fill="#5a3d84"/>
    </g>
  </g>
</svg>
