<svg id="Group_1029" data-name="Group 1029" xmlns="http://www.w3.org/2000/svg" xmlns:xlink="http://www.w3.org/1999/xlink" width="44.942" height="41.077" viewBox="0 0 44.942 41.077">
  <defs>
    <clipPath id="clip-path">
      <rect id="Rectangle_214" data-name="Rectangle 214" width="44.942" height="41.077" fill="#53823b"/>
    </clipPath>
  </defs>
  <g id="Group_1" data-name="Group 1" clip-path="url(#clip-path)">
    <path id="Path_17" data-name="Path 17" d="M0,41.077v-.938H4.616V18.78l-.815.213-.4-1.484c1.218-.366,2.415-.727,3.613-1.084q7.08-2.112,14.156-4.23a.738.738,0,0,0,.378-.314,1.716,1.716,0,0,1,2.31-.671.689.689,0,0,0,.457.045c3.239-.957,6.475-1.927,9.714-2.888a.387.387,0,0,0,.331-.407c.178-2.267.379-4.531.566-6.8a.383.383,0,0,1,.321-.39c.841-.238,1.681-.48,2.513-.745a.3.3,0,0,1,.4.147c1.3,1.863,2.648,3.7,3.895,5.6a3.593,3.593,0,0,1,.517,1.814c.073,3.4.069,6.8.107,10.2,0,.279-.135.332-.338.39-.533.154-.531.157-.531.7q0,7.112,0,14.225v.47H43.8v6.543h1.144v.961ZM39.915,18.9c-.076-.131-.136-.233-.195-.335q-2.4-4.229-4.793-8.461a.407.407,0,0,0-.576-.229q-4.525,1.371-9.061,2.709c-.346.1-.643.2-.649.641,0,.108-.109.211-.134.324a1.079,1.079,0,0,0-.047.49c.345,1.2.71,2.4,1.069,3.6q3.317,11.047,6.627,22.1a.481.481,0,0,0,.562.411c1.825-.019,3.65-.009,5.475-.009h.446V33.586h2.12V18.657l-.844.239M8.823,40.133h.389c1.434,0,2.869-.006,4.3.007a.376.376,0,0,0,.436-.329q3.853-12.851,7.719-25.7a1.841,1.841,0,0,0,.035-.366,1.686,1.686,0,0,0-.365.028q-4.839,1.438-9.676,2.885l-2.841.848Zm-3.59-5.29a1.917,1.917,0,0,1,1.531-.673,1.956,1.956,0,0,1,1.444.636V17.693c-.892.266-1.748.532-2.61.77a.41.41,0,0,0-.368.478q.015,6.5,0,13.006c0,.933,0,1.866,0,2.9m17.674-7.409c-.089.05-.171.1-.252.142-1.259.728-2.5,1.495-3.785,2.165a1.794,1.794,0,0,0-1.063,1.405c0,.012-.014.025-.011.033.046.113.061.28.145.329q2.339,1.372,4.7,2.714a.374.374,0,0,0,.312.013q2.6-1.486,5.19-2.993c.065-.038.165-.13.154-.165-.091-.28-.077-.6-.4-.782-1.594-.9-3.176-1.825-4.764-2.74-.071-.041-.143-.08-.219-.122m7.776,12.682.012-.056q-3.852-2.224-7.707-4.441a.453.453,0,0,0-.379.006q-3.632,2.08-7.251,4.184a1.918,1.918,0,0,0-.3.308ZM26.345,24.539c-.132-.429-.239-.817-.373-1.2a.635.635,0,0,0-.244-.313c-.854-.507-1.714-1.006-2.582-1.49a.489.489,0,0,0-.405-.006c-.767.422-1.523.862-2.276,1.308a.575.575,0,0,0-.242.281c-.158.47-.3.945-.425,1.426a.349.349,0,0,0,.126.3q1.4.834,2.825,1.636a.375.375,0,0,0,.314,0c1.039-.589,2.072-1.19,3.1-1.792a1.137,1.137,0,0,0,.179-.161M23.823,34.916l6.821,3.938-2.017-6.712-4.8,2.774M15.6,38.484l6.179-3.569L17.432,32.4,15.6,38.484m5.591-18.6c.555.32,1.093.636,1.639.939a.307.307,0,0,0,.25-.02c.547-.306,1.092-.614,1.624-.944a.37.37,0,0,0,.117-.325c-.169-.626-.363-1.245-.55-1.867q-.491-1.641-.982-3.278c-.25-.014-.446-.065-.539.255-.5,1.734-1.027,3.461-1.559,5.238m5.381,5.431-2.932,1.7,4.163,2.4c-.425-1.415-.821-2.735-1.231-4.1m-7.062.159L18.4,29.187l3.775-2.18-2.66-1.536m6.219-2.97-.7-2.3-1.642.952L25.732,22.5m-5.268-.185,2.019-1.167-1.423-.822c-.2.666-.387,1.292-.6,1.988" transform="translate(0 0)" fill="#53823b"/>
  </g>
</svg>
