<svg xmlns="http://www.w3.org/2000/svg" width="33.009" height="33.009" viewBox="0 0 33.009 33.009">
  <path id="Icon_awesome-linkedin" data-name="Icon awesome-linkedin" d="M30.651,2.25H2.35A2.368,2.368,0,0,0,0,4.63V32.879a2.368,2.368,0,0,0,2.35,2.38h28.3a2.374,2.374,0,0,0,2.358-2.38V4.63A2.374,2.374,0,0,0,30.651,2.25ZM9.976,30.543H5.084V14.79h4.9V30.543ZM7.53,12.639A2.837,2.837,0,1,1,10.367,9.8,2.838,2.838,0,0,1,7.53,12.639Zm20.785,17.9H23.423V22.88c0-1.827-.037-4.178-2.542-4.178-2.549,0-2.94,1.989-2.94,4.045v7.8H13.049V14.79h4.693v2.151h.066A5.153,5.153,0,0,1,22.443,14.4c4.951,0,5.872,3.264,5.872,7.508Z" transform="translate(0 -2.25)" fill="#fff"/>
</svg>
