<svg xmlns="http://www.w3.org/2000/svg" width="33.009" height="33.009" viewBox="0 0 33.009 33.009">
  <path id="Icon_awesome-facebook-square" data-name="Icon awesome-facebook-square" d="M29.472,2.25H3.537A3.537,3.537,0,0,0,0,5.787V31.722a3.537,3.537,0,0,0,3.537,3.537H13.649V24.037H9.007V18.754h4.642V14.728c0-4.579,2.726-7.109,6.9-7.109a28.121,28.121,0,0,1,4.091.357v4.494h-2.3a2.641,2.641,0,0,0-2.978,2.854v3.43h5.068l-.81,5.282H19.36V35.259H29.472a3.537,3.537,0,0,0,3.537-3.537V5.787A3.537,3.537,0,0,0,29.472,2.25Z" transform="translate(0 -2.25)" fill="#fff"/>
</svg>
