<svg xmlns="http://www.w3.org/2000/svg" xmlns:xlink="http://www.w3.org/1999/xlink" width="118.426" height="26.786" viewBox="0 0 118.426 26.786">
  <defs>
    <clipPath id="clip-path">
      <path id="Path_1345" data-name="Path 1345" d="M0-491.5H118.426v26.786H0Z" transform="translate(0 491.496)" fill="none"/>
    </clipPath>
  </defs>
  <g id="Group_952" data-name="Group 952" clip-path="url(#clip-path)">
    <g id="Group_933" data-name="Group 933" transform="translate(0.186 0)">
      <path id="Path_1326" data-name="Path 1326" d="M-174.171-38.359c-.452.417-.95.777-1.438,1.149-.554.4-1.14.758-1.7,1.147-.638.411-1.283.809-1.908,1.238-.4.274-.81.541-1.2.835s-.771.566-1.133.878a13.064,13.064,0,0,0-1.322,1.241,4.985,4.985,0,0,0-.593.732,8.54,8.54,0,0,0-.544,2.248,9.452,9.452,0,0,1,1.93-2.6l.011.006a16.29,16.29,0,0,1,1.388-1.2c.4-.3.8-.6,1.207-.88s.814-.551,1.225-.821c.638-.4,1.277-.81,1.9-1.244l.02.01c.553-.374,1.107-.747,1.628-1.165a1.745,1.745,0,0,0,.25-.173A7.511,7.511,0,0,0-173.11-38.3a3.062,3.062,0,0,0-.715-.317,1.126,1.126,0,0,0-.346.255m-.711.1a7.921,7.921,0,0,0,2.645-2.313,2.929,2.929,0,0,1-.5,2.018,8.664,8.664,0,0,1-2.119,2.08c-1.589,1.172-3.309,2.151-4.915,3.3a15.978,15.978,0,0,0-3.017,2.66,7.019,7.019,0,0,0-1.426,2.606,9.718,9.718,0,0,1,.488-2.953,7.834,7.834,0,0,1,1.432-2.534,11.066,11.066,0,0,1,2.461-2.113c1.58-1.037,3.323-1.785,4.946-2.748" transform="translate(184.21 40.57)" fill="#52823a"/>
    </g>
    <g id="Group_934" data-name="Group 934" transform="translate(1.891 0.384)">
      <path id="Path_1327" data-name="Path 1327" d="M-222.236,0a5.69,5.69,0,0,1,.331,3.269,6.119,6.119,0,0,1-1.149,2.277,19.811,19.811,0,0,1-3.47,3.338c-1.59,1.277-3.267,2.455-4.731,3.883a8.942,8.942,0,0,0-2.094,2.909,4.172,4.172,0,0,0,.018,3.169,14.483,14.483,0,0,0,2.585,4.168,18.08,18.08,0,0,1-2.009-1.9,8.374,8.374,0,0,1-1.389-1.9,6.959,6.959,0,0,1-.894-2.593,3.621,3.621,0,0,1,.5-2.016,13.11,13.11,0,0,1,3.084-3.5c1.436-1.214,2.933-2.352,4.455-3.455a18.789,18.789,0,0,0,3.1-2.664,4.694,4.694,0,0,0,.831-1.24A14.986,14.986,0,0,0-222.236,0" transform="translate(235.045)" fill="#e21e25"/>
    </g>
    <g id="Group_935" data-name="Group 935" transform="translate(8.787 1.956)">
      <path id="Path_1328" data-name="Path 1328" d="M-24.952-4.425a1.127,1.127,0,0,1,.346-.255,3.062,3.062,0,0,1,.715.317,7.512,7.512,0,0,1-1.344,1.348,1.746,1.746,0,0,1-.25.173,2.564,2.564,0,0,0-.9-.434c.488-.372.986-.732,1.438-1.149" transform="translate(26.39 4.68)" fill="#628946"/>
    </g>
    <g id="Group_936" data-name="Group 936" transform="translate(19.322 2.002)">
      <path id="Path_1329" data-name="Path 1329" d="M-1660.2-288.79h.8c.3.683.6,1.368.9,2.051q.464-1.024.925-2.05c.26,0,.522,0,.783,0v3.34c-.256,0-.512,0-.767,0,0-.541,0-1.082,0-1.622-.242.541-.481,1.083-.723,1.623h-.438q-.367-.817-.731-1.635c0,.545,0,1.09,0,1.635h-.749q0-1.673,0-3.346m-2.911,0h2.451c0,.243,0,.485,0,.728h-.843c0,.873,0,1.746,0,2.62h-.763q0-1.31,0-2.62c-.282,0-.563,0-.844,0,0-.242,0-.485,0-.728m-50.983-7.871a3.3,3.3,0,0,0-2.17,1.417,7.726,7.726,0,0,0-1.189,3,6.273,6.273,0,0,0-.084,2.413,2.055,2.055,0,0,0,.82,1.339,2.617,2.617,0,0,0,1.839.3,3.248,3.248,0,0,0,1.994-1.213,7.416,7.416,0,0,0,1.36-3.31,5.869,5.869,0,0,0,.025-2.357,2.081,2.081,0,0,0-.838-1.293,2.548,2.548,0,0,0-1.759-.3m.056-2.727a7.926,7.926,0,0,1,3.759.425,4.391,4.391,0,0,1,2.137,1.791,5.736,5.736,0,0,1,.7,3.311,9.86,9.86,0,0,1-1.9,5.265,7.91,7.91,0,0,1-3.558,2.654,9.033,9.033,0,0,1-3.843.5,6.028,6.028,0,0,1-2.737-.838,4.243,4.243,0,0,1-1.59-1.8,6.091,6.091,0,0,1-.479-3.074,9.9,9.9,0,0,1,1.846-5.037,7.941,7.941,0,0,1,3.44-2.66,8.457,8.457,0,0,1,2.225-.547m-24.623.281a7.049,7.049,0,0,1,2.748-.3,2.869,2.869,0,0,1,1.77.768,3.1,3.1,0,0,1,.786,1.94,10.921,10.921,0,0,1-.3,3.17q-.834,3.921-1.668,7.844h-3.966q.843-3.976,1.689-7.951a2.238,2.238,0,0,0-.117-1.487,1.224,1.224,0,0,0-.918-.578,3.332,3.332,0,0,0-2.083.417,4.527,4.527,0,0,0-1.533,1.463.833.833,0,0,0-.142.28q-.835,3.926-1.67,7.854-1.983,0-3.966,0,1.428-6.73,2.86-13.46h3.967c-.1.463-.2.925-.294,1.389a11.6,11.6,0,0,1,2.839-1.347m55.1,3.483a3.76,3.76,0,0,0-1.591,1.793,7.07,7.07,0,0,0-.612,2.47,2.659,2.659,0,0,0,.468,1.858,2.006,2.006,0,0,0,1.588.629,7.75,7.75,0,0,0,2.776-.585q.626-2.95,1.253-5.9a5.95,5.95,0,0,0-2.288-.592,3,3,0,0,0-1.594.329m-1.119-3.52a6.136,6.136,0,0,1,3.323-.18,4.312,4.312,0,0,1,2.26,1.251c.284-.354.542-.735.844-1.071,1.1-.01,2.207,0,3.311,0q-1.108,5.154-2.218,10.309a2.744,2.744,0,0,0-.021.532q0,1.31,0,2.62h-3.292q-.279-.536-.557-1.073a7.491,7.491,0,0,1-2.9,1.2,6.27,6.27,0,0,1-3.13-.146,3.928,3.928,0,0,1-1.9-1.329,4.951,4.951,0,0,1-.934-2.635,10.69,10.69,0,0,1,.5-3.865,9.611,9.611,0,0,1,2.365-4.132,6.3,6.3,0,0,1,2.342-1.473m14.154,0q.6-1.813,1.186-3.629h3.552q-.383,1.814-.77,3.628c1.005,0,2.011,0,3.016,0q-.347,1.635-.695,3.269h-3.016q-.621,2.917-1.24,5.834a1.3,1.3,0,0,0,.1.973,1.164,1.164,0,0,0,.876.447,6.854,6.854,0,0,0,1.764-.134q-.319,1.55-.641,3.1a9.3,9.3,0,0,1-2.108.331,12.5,12.5,0,0,1-1.308-.075,4.5,4.5,0,0,1-1.642-.4,2.044,2.044,0,0,1-.913-.879,3.378,3.378,0,0,1-.318-1.63,17.376,17.376,0,0,1,.51-3.1q.474-2.235.949-4.47c-.652,0-1.3,0-1.957,0q.346-1.635.694-3.269h1.958m-29.889,3.993a5.1,5.1,0,0,0-1.361,2.577,5.415,5.415,0,0,0-.14,2.1,1.883,1.883,0,0,0,.687,1.223,2.317,2.317,0,0,0,1.5.378,8.481,8.481,0,0,0,2.694-.583q.625-2.95,1.254-5.9a6.445,6.445,0,0,0-2.424-.6,2.965,2.965,0,0,0-2.209.8m6.725-10.042q1.964,0,3.93,0-1.724,8.036-3.445,16.073a2.233,2.233,0,0,0-.085.542c0,.965,0,1.929,0,2.894h-3.289c-.187-.358-.371-.716-.557-1.074a7.489,7.489,0,0,1-2.857,1.189,6.338,6.338,0,0,1-3.115-.12,3.955,3.955,0,0,1-1.917-1.3,4.895,4.895,0,0,1-.964-2.616,10.519,10.519,0,0,1,.469-3.835,9.755,9.755,0,0,1,2.323-4.158,6.44,6.44,0,0,1,2.074-1.411,6.1,6.1,0,0,1,3.678-.3,4.313,4.313,0,0,1,2.24,1.243q.758-3.56,1.514-7.12m-58.052,0h4.818q-2.073,9.755-4.147,19.51h-4.818q2.071-9.756,4.147-19.511m25.97.71a6.1,6.1,0,0,1,3.26-.94,7.744,7.744,0,0,1,2.718.383q-.562,1.444-1.125,2.887a4.056,4.056,0,0,0-2.232.124,1.782,1.782,0,0,0-.95,1.245c-.125.545-.234,1.093-.352,1.64h2.849q-.347,1.635-.7,3.27h-2.849l-3.234,15.228c-1.322,0-2.644,0-3.966,0q1.614-7.614,3.232-15.227h-1.957q.345-1.635.695-3.269c.653,0,1.306,0,1.958,0a17.164,17.164,0,0,1,.768-2.966,5.208,5.208,0,0,1,1.88-2.373" transform="translate(1755.89 305.436)" fill="#fff"/>
    </g>
    <g id="Group_937" data-name="Group 937" transform="translate(0 2.124)">
      <path id="Path_1330" data-name="Path 1330" d="M-237.311,0a11.013,11.013,0,0,1-.529,1.706,7.738,7.738,0,0,1-1.768,2.262,30.832,30.832,0,0,1-2.545,2.089c-1.489,1.117-2.982,2.235-4.4,3.445a13.113,13.113,0,0,0-2.961,3.363,3.679,3.679,0,0,0-.537,2.071,7,7,0,0,0,.9,2.616,7.808,7.808,0,0,0,1.23,1.713,19.819,19.819,0,0,0,2.135,2.062,16.927,16.927,0,0,1-3.769-3.423,6.4,6.4,0,0,1-1.443-3.593v-.454A7.092,7.092,0,0,1-249.261,9.9a22.448,22.448,0,0,1,3.775-3.528c1.952-1.514,4.031-2.855,5.984-4.368a15.372,15.372,0,0,0,2.191-2" transform="translate(250.99)" fill="#5a3c84"/>
    </g>
    <g id="Group_938" data-name="Group 938" transform="translate(7.086 3.36)">
      <path id="Path_1331" data-name="Path 1331" d="M0-19.9c.562-.39,1.148-.744,1.7-1.147a2.564,2.564,0,0,1,.9.434c-.52.419-1.075.791-1.628,1.165l-.02-.01A7.5,7.5,0,0,0,0-19.9" transform="translate(0 21.05)" fill="#6c904f"/>
    </g>
    <g id="Group_939" data-name="Group 939" transform="translate(5.178 4.507)">
      <path id="Path_1332" data-name="Path 1332" d="M0-21.482c.625-.429,1.27-.827,1.908-1.238a7.5,7.5,0,0,1,.958.441c-.619.434-1.257.84-1.9,1.244A2.453,2.453,0,0,0,0-21.482" transform="translate(0 22.72)" fill="#759458"/>
    </g>
    <g id="Group_940" data-name="Group 940" transform="translate(3.98 5.745)">
      <path id="Path_1333" data-name="Path 1333" d="M0-14.495c.387-.294.8-.562,1.2-.835a2.453,2.453,0,0,1,.971.447c-.411.27-.816.548-1.225.821-.311-.152-.626-.294-.943-.432" transform="translate(0 15.33)" fill="#7c9b61"/>
    </g>
    <g id="Group_941" data-name="Group 941" transform="translate(2.847 6.581)">
      <path id="Path_1334" data-name="Path 1334" d="M0-15.232c.362-.312.747-.6,1.133-.878.317.138.632.281.943.432-.41.283-.808.582-1.207.88A8.241,8.241,0,0,1,0-15.232" transform="translate(0 16.11)" fill="#849f6a"/>
    </g>
    <g id="Group_942" data-name="Group 942" transform="translate(4.72 7.281)">
      <path id="Path_1335" data-name="Path 1335" d="M-139.467-39.219a9.13,9.13,0,0,1-.652,1.065,11.275,11.275,0,0,1-1.638,1.537c-.594.465-1.218.892-1.813,1.355-.4.3-.793.6-1.158.939a8.611,8.611,0,0,0-1.109,1.137,5.54,5.54,0,0,0-.995,1.812,5.35,5.35,0,0,0-.191,2.126,2.429,2.429,0,0,0,.2.581,9.608,9.608,0,0,0,.935,1.676c-.086-.289-.195-.571-.269-.864a5.72,5.72,0,0,1-.044-3.111,5.6,5.6,0,0,1,1.032-1.923,12.7,12.7,0,0,1,1.287-1.3c.374-.277.734-.592,1.113-.869.557-.4,1.11-.813,1.65-1.238a8.855,8.855,0,0,0,1.656-1.568,3.366,3.366,0,0,0,.507-.779c.036-.1.116-.217.048-.318a2.84,2.84,0,0,0-.561-.254m.835-2.261a4.062,4.062,0,0,1,.066,2.226,4.722,4.722,0,0,1-1.26,2.024c-1.239,1.237-2.772,2.119-4.085,3.27A6.542,6.542,0,0,0-146.07-30.9a6.16,6.16,0,0,0,.335,3.883c.153.408.337.8.529,1.192a13.182,13.182,0,0,1-1.641-2.544,5.6,5.6,0,0,1-.562-3.56,6.275,6.275,0,0,1,1.948-3.147c1.444-1.382,3.169-2.418,4.7-3.7a6.727,6.727,0,0,0,2.134-2.706" transform="translate(147.506 41.48)" fill="#1a85c7"/>
    </g>
    <g id="Group_943" data-name="Group 943" transform="translate(1.525 7.459)">
      <path id="Path_1336" data-name="Path 1336" d="M0-21.539A13.066,13.066,0,0,1,1.322-22.78a8.241,8.241,0,0,0,.87.434A16.286,16.286,0,0,0,.8-21.149l-.011-.006c-.262-.133-.524-.264-.792-.384" transform="translate(0 22.78)" fill="#8ba371"/>
    </g>
    <g id="Group_944" data-name="Group 944" transform="translate(0.387 8.7)">
      <path id="Path_1337" data-name="Path 1337" d="M-9.436-12.708a4.985,4.985,0,0,1,.593-.732c.268.12.531.251.792.384a9.452,9.452,0,0,0-1.93,2.6,8.54,8.54,0,0,1,.544-2.248" transform="translate(9.98 13.44)" fill="#94ab7c"/>
    </g>
    <g id="Group_945" data-name="Group 945" transform="translate(12.107 9.542)">
      <path id="Path_1338" data-name="Path 1338" d="M-11.308,0a2.84,2.84,0,0,1,.561.254c.068.1-.012.22-.049.318a3.366,3.366,0,0,1-.507.779q-.325-.15-.657-.286A9.131,9.131,0,0,0-11.308,0" transform="translate(11.96)" fill="#318bcc"/>
    </g>
    <g id="Group_946" data-name="Group 946" transform="translate(10.47 10.607)">
      <path id="Path_1339" data-name="Path 1339" d="M0-26.673A11.275,11.275,0,0,0,1.638-28.21q.332.136.657.286A8.855,8.855,0,0,1,.639-26.355,4.307,4.307,0,0,0,0-26.673" transform="translate(0 28.21)" fill="#4391ce"/>
    </g>
    <g id="Group_947" data-name="Group 947" transform="translate(8.657 12.145)">
      <path id="Path_1340" data-name="Path 1340" d="M0-23.505c.6-.463,1.219-.889,1.813-1.355a4.307,4.307,0,0,1,.639.317c-.541.425-1.093.835-1.65,1.238a2.908,2.908,0,0,0-.8-.2" transform="translate(0 24.86)" fill="#5296d1"/>
    </g>
    <g id="Group_948" data-name="Group 948" transform="translate(7.499 13.499)">
      <path id="Path_1341" data-name="Path 1341" d="M0-16.291c.365-.338.762-.638,1.158-.939a2.908,2.908,0,0,1,.8.2c-.38.277-.739.592-1.113.869A6.842,6.842,0,0,0,0-16.291" transform="translate(0 17.23)" fill="#5f9bd2"/>
    </g>
    <g id="Group_949" data-name="Group 949" transform="translate(6.39 14.438)">
      <path id="Path_1342" data-name="Path 1342" d="M0-19.733A8.611,8.611,0,0,1,1.109-20.87a6.842,6.842,0,0,1,.846.13,12.694,12.694,0,0,0-1.287,1.3,7.108,7.108,0,0,0-.669-.3" transform="translate(0 20.87)" fill="#689fd5"/>
    </g>
    <g id="Group_950" data-name="Group 950" transform="translate(5.395 15.576)">
      <path id="Path_1343" data-name="Path 1343" d="M-17.255,0a7.108,7.108,0,0,1,.669.3A5.605,5.605,0,0,0-17.619,2.22a1.416,1.416,0,0,0-.631-.408A5.54,5.54,0,0,1-17.255,0" transform="translate(18.25)" fill="#74a6d9"/>
    </g>
    <g id="Group_951" data-name="Group 951" transform="translate(5.172 17.387)">
      <path id="Path_1344" data-name="Path 1344" d="M-3.88,0a1.417,1.417,0,0,1,.631.408A5.719,5.719,0,0,0-3.2,3.519c.074.293.183.574.269.864a9.608,9.608,0,0,1-.935-1.676,2.428,2.428,0,0,1-.2-.581A5.35,5.35,0,0,1-3.88,0" transform="translate(4.104)" fill="#84addd"/>
    </g>
  </g>
</svg>
