<svg xmlns="http://www.w3.org/2000/svg" xmlns:xlink="http://www.w3.org/1999/xlink" width="119.983" height="30.69" viewBox="0 0 119.983 30.69">
  <defs>
    <clipPath id="clip-path">
      <rect id="Rectangle_1295" data-name="Rectangle 1295" width="119.983" height="30.69" fill="none"/>
    </clipPath>
  </defs>
  <g id="Group_1009" data-name="Group 1009" transform="translate(0 0)">
    <g id="Group_1008" data-name="Group 1008" transform="translate(0 -0.001)" clip-path="url(#clip-path)">
      <path id="Path_17726" data-name="Path 17726" d="M22.126,7.342c0,2.2,0,4.405,0,6.606,0,.846-.085.714-.7.716l-13.354,0c-.077,0-.151,0-.228-.006a.293.293,0,0,1-.3-.273,3.28,3.28,0,0,1-.038-.677q0-6,0-12c0-.39,0-.782,0-1.172,0-.449.07-.513.533-.524.064,0,.126,0,.19,0H21.546c.051,0,.1,0,.151,0,.362.015.42.068.426.422,0,.377,0,.754,0,1.133V7.342Z" transform="translate(8.483 0.012)" fill="#7bae2d"/>
      <path id="Path_17727" data-name="Path 17727" d="M0,7.311V.593C0,.011,0,.011.59.011q6.6,0,13.2,0a3.628,3.628,0,0,1,.528.026c.226.034.268.1.273.328.058,2.944.013,5.886.026,8.83.006,1.106-.009,2.211.006,3.317.009.6-.064,1.206-.06,1.809,0,.277-.055.32-.337.339-.077,0-.151,0-.228,0l-13.388,0c-.611,0-.609,0-.609-.6V7.311" transform="translate(0 0.014)" fill="#e43c17"/>
      <path id="Path_17728" data-name="Path 17728" d="M0,14.838V8.117c0-.562,0-.565.573-.565q6.713,0,13.431,0c.6,0,.618.021.616.611q0,6.739,0,13.478a2.175,2.175,0,0,1-.009.264.233.233,0,0,1-.215.226,3.17,3.17,0,0,1-.377.017H.469C.03,22.143,0,22.115,0,21.672Q0,18.256,0,14.838Z" transform="translate(0.002 8.537)" fill="#1b8cce"/>
      <path id="Path_17729" data-name="Path 17729" d="M22.085,14.835v6.759c0,.075,0,.151,0,.226-.021.258-.085.322-.351.343-.1.009-.2,0-.3,0H8.262c-.726,0-.726,0-.726-.737V8.329c0-.177,0-.351.011-.528s.1-.266.294-.264c4.2.072,8.4.013,12.6.032.454,0,.907,0,1.361-.011.194,0,.283.06.279.253,0,.126,0,.253,0,.379v6.644Z" transform="translate(8.517 8.519)" fill="#feaa00"/>
      <path id="Path_17730" data-name="Path 17730" d="M19.019,4.163v.565q0,5.135,0,10.268c0,.56-.009.569-.569.567-.541,0-1.084,0-1.625,0-.317,0-.334-.038-.334-.356q0-2.793.006-5.587,0-4.058,0-8.114c0-.228-.013-.454-.019-.68C16.467.553,16.5.51,16.767.5c.454-.009.907,0,1.361,0,.594,0,1.187,0,1.779,0,.345,0,.4.021.492.347.183.643.543,1.221.692,1.875a1.117,1.117,0,0,0,.143.307,3.338,3.338,0,0,1,.345.795c.166.539.407,1.054.613,1.578q.329.824.637,1.653c.256.684.567,1.342.824,2.024.288.763.567,1.529.878,2.284.021.058.038.121.115.147.124-.043.141-.166.17-.266.211-.688.594-1.3.827-1.981s.492-1.321.782-1.96c.271-.6.494-1.212.718-1.823.251-.686.588-1.331.858-2.009A13.168,13.168,0,0,1,28.684,1.8c.164-.292.213-.641.354-.952A.531.531,0,0,1,29.593.5c.92.009,1.84,0,2.761.006.411,0,.439.032.439.464q0,3.885,0,7.775v6.267c0,.547,0,.552-.543.552s-1.084,0-1.625,0c-.369,0-.4-.043-.415-.415,0-.113,0-.226,0-.339q0-5.058,0-10.116a2.027,2.027,0,0,0-.04-.59c-.153.068-.177.211-.207.33A3.45,3.45,0,0,1,29.508,5.5a.611.611,0,0,0-.094.2,7.216,7.216,0,0,1-.59,1.587c-.454,1.076-.773,2.2-1.319,3.242l-.017.034a16.1,16.1,0,0,1-.628,1.689,16.514,16.514,0,0,1-.662,1.683,4.434,4.434,0,0,0-.281.739,3.759,3.759,0,0,1-.3.692.344.344,0,0,1-.362.209c-.415-.017-.833-.013-1.248-.023-.309-.009-.373-.051-.462-.343a3.905,3.905,0,0,0-.4-.89,1,1,0,0,1-.1-.2c-.294-1-.737-1.951-1.114-2.923-.249-.641-.473-1.3-.786-1.917-.26-.513-.418-1.076-.641-1.608-.26-.613-.473-1.244-.75-1.851-.228-.5-.407-1.027-.607-1.542-.017-.045-.038-.087-.058-.132l-.062.017" transform="translate(18.619 0.561)" fill="#1a1818"/>
      <path id="Path_17731" data-name="Path 17731" d="M51.876,11.8V8.481c0-.162,0-.326,0-.49,0-.488-.015-.5-.52-.5-.251,0-.5,0-.756,0-.089,0-.177,0-.264-.011a.245.245,0,0,1-.262-.262c0-.528,0-1.057,0-1.585,0-.185.109-.268.29-.268.366,0,.733,0,1.1-.006s.409-.045.413-.42q.01-.773,0-1.547a2.106,2.106,0,0,1,.164-.809,5.664,5.664,0,0,1,.7-1.327,2.73,2.73,0,0,1,.773-.652,3.4,3.4,0,0,1,1.512-.56,6.608,6.608,0,0,1,1.845.038c.334.064.381.117.386.447q.013.754,0,1.51c0,.288-.036.3-.311.222a2.359,2.359,0,0,0-1.338-.117,1.253,1.253,0,0,0-.935.782A5.861,5.861,0,0,0,54.46,5.09c0,.19.1.273.283.271.3,0,.607.023.907-.006.68-.064,1.361-.03,2.041-.04.075,0,.151,0,.226,0,.256-.021.3-.06.309-.326.011-.452,0-.905.006-1.359.009-.807-.1-.631.667-.961a1.118,1.118,0,0,1,.251-.081,6.158,6.158,0,0,0,1.267-.366c.253-.107.3-.066.345.207a2.916,2.916,0,0,1,.038.452c-.009.716.032,1.434-.026,2.149-.019.249.038.32.294.33.364.015.731.006,1.1.009.226,0,.454,0,.682,0,.52.006.537.023.539.528,0,.339,0,.68,0,1.018,0,.56-.019.582-.565.584H61.313c-.089,0-.177,0-.264,0-.234.019-.288.06-.288.3,0,.288.038.577.04.865,0,.933.015,1.864,0,2.795a7.228,7.228,0,0,0,.015,1.391,3.124,3.124,0,0,0,.232.795.9.9,0,0,0,.72.547,1.975,1.975,0,0,0,1.289-.164c.241-.138.322-.092.328.177.011.49,0,.98.006,1.472a.42.42,0,0,1-.266.415,3.414,3.414,0,0,1-.865.264,3.717,3.717,0,0,1-2.891-.558,1.993,1.993,0,0,1-.722-.85,5.064,5.064,0,0,1-.418-2.092c.021-1.572.006-3.144.006-4.718,0-.1,0-.2,0-.3-.017-.285-.055-.337-.334-.339q-1.55-.01-3.1,0c-.279,0-.32.055-.337.337-.006.126,0,.251,0,.379v7.211c0,.062,0,.126,0,.187,0,.492-.019.509-.511.509H52.392c-.5,0-.518-.017-.518-.5V11.8Z" transform="translate(56.589 0.001)" fill="#1a1818"/>
      <path id="Path_17732" data-name="Path 17732" d="M35.156,7.99a5.561,5.561,0,0,1,.5-2.5,2.88,2.88,0,0,1,.675-1.123.394.394,0,0,0,.072-.085,2.839,2.839,0,0,1,1.142-1,6.638,6.638,0,0,1,3.566-.939,4.507,4.507,0,0,1,1.408.266,6.067,6.067,0,0,1,1.521.643A4.742,4.742,0,0,1,45.3,4.537a6.212,6.212,0,0,1,.912,4.435,10.858,10.858,0,0,1-.381,1.536,3.174,3.174,0,0,1-.622,1.027,4.572,4.572,0,0,1-.773.916,6,6,0,0,1-.827.588,6.482,6.482,0,0,1-4.294.62,5.508,5.508,0,0,1-1.525-.55,4.649,4.649,0,0,1-1.777-1.632,5.96,5.96,0,0,1-.858-3.487m8.389.113a5.786,5.786,0,0,0-.271-1.938.933.933,0,0,0-.111-.279A2.59,2.59,0,0,0,41.785,4.73a3.059,3.059,0,0,0-1.6-.147,2.494,2.494,0,0,0-1.425.7,2.846,2.846,0,0,0-.743,1.24,6.5,6.5,0,0,0-.006,3.1,2.5,2.5,0,0,0,2.011,1.911,3.088,3.088,0,0,0,2.134-.236,2.132,2.132,0,0,0,1.116-1.31A4.411,4.411,0,0,0,43.545,8.1" transform="translate(39.703 2.65)" fill="#1a1818"/>
      <path id="Path_17733" data-name="Path 17733" d="M50.341,13.763a5.212,5.212,0,0,1-2.776-.607,3.574,3.574,0,0,1-1.483-1.189c-.143-.207-.339-.362-.473-.582a7.111,7.111,0,0,1-.861-3.1,3.475,3.475,0,0,1,.094-1.048,10.891,10.891,0,0,1,.362-1.5A3.335,3.335,0,0,1,46,4.386a1.15,1.15,0,0,0,.156-.166A3.636,3.636,0,0,1,48.08,2.867c.373-.117.741-.249,1.116-.354a5.346,5.346,0,0,1,3.163.151c.288.094.569.2.858.292a2.1,2.1,0,0,1,.56.375A5.013,5.013,0,0,1,55.04,4.614a6.908,6.908,0,0,1,.767,1.917,1.271,1.271,0,0,1,.062.332,10.772,10.772,0,0,1-.009,2.145,5.345,5.345,0,0,1-.954,2.552,6.418,6.418,0,0,1-1.321,1.263,7.493,7.493,0,0,1-2.117.869,3.568,3.568,0,0,1-1.127.07M53.21,8.122a4.762,4.762,0,0,0-.262-1.894,2.128,2.128,0,0,0-.705-1.04,3.448,3.448,0,0,0-1-.5,2.543,2.543,0,0,0-1.378-.109,2.848,2.848,0,0,0-1.152.445,2.914,2.914,0,0,0-.873,1.112A3.561,3.561,0,0,0,47.512,7.6a4.114,4.114,0,0,0,.584,2.88,2.65,2.65,0,0,0,1.657,1.074,3.156,3.156,0,0,0,2.088-.281,2.193,2.193,0,0,0,1.172-1.438,4.56,4.56,0,0,0,.2-1.713" transform="translate(50.562 2.645)" fill="#1a1818"/>
      <path id="Path_17734" data-name="Path 17734" d="M40.87,11.921c0-.315-.011-.631,0-.944.013-.271.109-.324.328-.17a6.63,6.63,0,0,0,1.517.677,4,4,0,0,0,1.981.111.852.852,0,0,0,.771-.682,1.171,1.171,0,0,0-.447-1.208A6.918,6.918,0,0,0,43.3,8.874a5.249,5.249,0,0,1-1.525-.995,2.71,2.71,0,0,1-.835-2.36,2.809,2.809,0,0,1,.707-1.745,4.672,4.672,0,0,1,2.3-1.276,4.333,4.333,0,0,1,2.388.03c.317.083.628.187.946.273a.322.322,0,0,1,.258.36c0,.592.006,1.184,0,1.774,0,.279-.064.29-.322.158a4.517,4.517,0,0,0-2.345-.613,1.533,1.533,0,0,0-.907.322,1.057,1.057,0,0,0,.06,1.659,9.019,9.019,0,0,0,1.764.848,3.553,3.553,0,0,1,1.38.893,6.656,6.656,0,0,1,.458.488,2.994,2.994,0,0,1,.522,2.113,1.183,1.183,0,0,1-.077.366,3.727,3.727,0,0,1-.893,1.423,2.8,2.8,0,0,1-.922.639c-.2.07-.4.162-.594.249a2.833,2.833,0,0,1-.982.26,6.692,6.692,0,0,1-2.475-.187c-.322-.107-.65-.2-.971-.311s-.354-.16-.36-.49c-.006-.277,0-.554,0-.831Z" transform="translate(46.185 2.651)" fill="#1a1818"/>
      <path id="Path_17735" data-name="Path 17735" d="M35.735,4.189c0,.29.009.579,0,.869s-.132.354-.356.183a4.363,4.363,0,0,0-1.685-.622,2.39,2.39,0,0,0-1.519.136,3.065,3.065,0,0,0-1.01.5,3.016,3.016,0,0,0-.91,1.221,5.092,5.092,0,0,0-.345,1.879,4.131,4.131,0,0,0,.456,1.74,2.582,2.582,0,0,0,1.276,1.182,3.82,3.82,0,0,0,1.653.3,2.586,2.586,0,0,0,.993-.2,3.979,3.979,0,0,0,1.123-.52c.175-.151.315-.07.32.16.011.59,0,1.182,0,1.774a.343.343,0,0,1-.236.351,10.187,10.187,0,0,1-1.832.584,5.975,5.975,0,0,1-3.672-.594,4.772,4.772,0,0,1-1.826-1.653,5.647,5.647,0,0,1-.9-2.993,6.659,6.659,0,0,1,.675-3.18,3.575,3.575,0,0,1,.737-1.04c.228-.209.435-.449.671-.654a3.333,3.333,0,0,1,.332-.245,7.931,7.931,0,0,1,2.648-.961,3.667,3.667,0,0,1,1.355-.017,8.838,8.838,0,0,1,1.679.449c.337.119.369.17.375.52,0,.277,0,.554,0,.831Z" transform="translate(30.814 2.639)" fill="#1a1818"/>
      <path id="Path_17736" data-name="Path 17736" d="M25.411,16.965c0,.692-.006,1.385,0,2.075a.5.5,0,0,1-.328.528,8.286,8.286,0,0,1-1.6.573,8.612,8.612,0,0,1-1.826.258,5.9,5.9,0,0,1-2.019-.409A4.783,4.783,0,0,1,17.253,18a4.422,4.422,0,0,1-.771-2.22,8.756,8.756,0,0,1,.2-2.959,1.178,1.178,0,0,1,.1-.283,10.959,10.959,0,0,1,.95-1.574,3.342,3.342,0,0,1,.784-.746c.379-.224.714-.507,1.112-.709a5.781,5.781,0,0,1,2.192-.516,8.517,8.517,0,0,1,2.1.168,6.057,6.057,0,0,1,.967.322.3.3,0,0,1,.217.279c.017.288.038.577.053.865a.608.608,0,0,1-.053.294c-.045.1-.107.136-.209.066a4.429,4.429,0,0,0-2.539-.711,3.743,3.743,0,0,1-.379-.006,4.263,4.263,0,0,0-2.117.464,2.406,2.406,0,0,0-.618.473,3.858,3.858,0,0,0-1.176,1.885,5.449,5.449,0,0,0-.213,2.2,4.776,4.776,0,0,0,.72,2.275,3.735,3.735,0,0,0,3.568,1.508,5.553,5.553,0,0,0,1.306-.187c.511-.168.577-.245.582-.773.006-.654.006-1.308,0-1.962,0-.471-.072-.541-.526-.486a9.583,9.583,0,0,1-1.285.034c-.52-.006-.6-.1-.607-.633-.011-.635,0-.65.652-.652q1.3,0,2.609,0c.481,0,.524.045.528.511,0,.68,0,1.359,0,2.039Z" transform="translate(18.588 10.141)" fill="#d29017"/>
      <path id="Path_17737" data-name="Path 17737" d="M34.7,4.26a.686.686,0,0,0,.264-.328,2.781,2.781,0,0,1,2.241-1.525,2.165,2.165,0,0,1,1,.136.352.352,0,0,1,.268.366c0,.654.009,1.308,0,1.962,0,.258-.07.3-.3.192a2.625,2.625,0,0,0-.831-.236,1.984,1.984,0,0,0-2.16.984,5.975,5.975,0,0,0-.486,1.73c.011,1.749,0,3.5,0,5.247,0,.633,0,.631-.618.628-.516,0-1.033.006-1.551,0-.337,0-.388-.06-.407-.4,0-.075,0-.151,0-.226V3.283c0-.613,0-.616.6-.62A7.943,7.943,0,0,0,33.9,2.618c.026,0,.051,0,.077,0,.639-.015.724.066.726.694V4.26" transform="translate(36.309 2.702)" fill="#1a1818"/>
      <path id="Path_17738" data-name="Path 17738" d="M33.428,19.366a.268.268,0,0,0-.232.145,3.007,3.007,0,0,1-2.051,1.078,2.707,2.707,0,0,1-2.011-.477,3.737,3.737,0,0,1-1.574-2.833,5.74,5.74,0,0,1,.1-1.947,3.439,3.439,0,0,1,.5-1.333,3.217,3.217,0,0,1,2.774-1.621c.175.006.351,0,.528,0a2.269,2.269,0,0,1,1.591.68c.1.094.19.268.326.215.17-.064.092-.264.092-.4.006-1.12,0-2.241,0-3.359,0-.739.011-.746.726-.748.613,0,.643.028.643.633q0,5.208,0,10.419c0,.036,0,.075,0,.113-.009.415-.062.469-.49.477-.187,0-.377,0-.567,0a.279.279,0,0,1-.3-.307c0-.126,0-.251-.006-.377a.684.684,0,0,0-.051-.349m.045-3.091c0-.213,0-.428,0-.641a1.938,1.938,0,0,0-1.4-2,2.213,2.213,0,0,0-2.98,1.6,5.664,5.664,0,0,0-.1,2.134,2.6,2.6,0,0,0,.481,1.246,2.254,2.254,0,0,0,1.77.854.44.44,0,0,0,.149-.017,2.716,2.716,0,0,0,1.253-.565,2.508,2.508,0,0,0,.758-1.3,6.484,6.484,0,0,0,.068-1.316" transform="translate(31.1 9.904)" fill="#d29017"/>
      <path id="Path_17739" data-name="Path 17739" d="M32.977,14.522V9.5c0-.682.015-.7.7-.7.554,0,1.11.015,1.664,0a10.256,10.256,0,0,1,2.107.17,3.134,3.134,0,0,1,1.83.986,3.223,3.223,0,0,1,.807,2.58c-.017.162-.045.324-.066.486a3.012,3.012,0,0,1-.895,1.625,3.883,3.883,0,0,1-2.454,1.206,17.168,17.168,0,0,1-1.811.066c-.4.009-.428.028-.428.432,0,1.069,0,2.139,0,3.208,0,.1,0,.2,0,.3-.019.268-.07.328-.345.341a7.461,7.461,0,0,1-.756,0c-.245-.013-.3-.072-.328-.324a4.17,4.17,0,0,1-.015-.49q0-2.435,0-4.867m1.449-2.145c0,.654,0,1.306,0,1.96,0,.313.04.345.351.349.415.006.831,0,1.246,0a5.573,5.573,0,0,0,1.493-.366.753.753,0,0,0,.339-.23c.141-.162.281-.322.415-.488a1.148,1.148,0,0,0,.228-.511,4.7,4.7,0,0,0,.009-1.536,1.339,1.339,0,0,0-.743-1.031,3.39,3.39,0,0,0-1.436-.42c-.5-.017-1.008-.006-1.51,0-.354.006-.39.043-.394.394,0,.626,0,1.255,0,1.883" transform="translate(37.27 9.94)" fill="#606061"/>
      <path id="Path_17740" data-name="Path 17740" d="M41.908,17.58a.487.487,0,0,0-.33.23,2.3,2.3,0,0,1-2.015.9,5.592,5.592,0,0,1-.98-.058,2.051,2.051,0,0,1-1.676-1.638,3.244,3.244,0,0,1-.019-1.274A2.027,2.027,0,0,1,38,14.262a5.469,5.469,0,0,1,2.424-.637,10.46,10.46,0,0,0,1.125-.138c.364-.066.373-.124.394-.475a1.517,1.517,0,0,0-1.564-1.568,3.976,3.976,0,0,0-2.324.65,1.6,1.6,0,0,1-.194.115c-.132.064-.228.028-.241-.126a4.346,4.346,0,0,1,0-.865.4.4,0,0,1,.277-.332,5.857,5.857,0,0,1,2.876-.656,2.967,2.967,0,0,1,2.007,1.005,2.263,2.263,0,0,1,.509,1.244c.043.473.094.948.089,1.427-.013,1.385,0,2.767-.006,4.152,0,.526-.026.552-.554.556-.162,0-.328,0-.49,0-.337-.015-.379-.064-.4-.409a2.834,2.834,0,0,0-.032-.622m.034-2.169c0-.194,0-.332,0-.471-.011-.371-.083-.437-.462-.373-.36.062-.72.113-1.082.147a5.874,5.874,0,0,0-.931.138A1.531,1.531,0,0,0,38.253,15.9a1.384,1.384,0,0,0,.654,1.532,2.059,2.059,0,0,0,1.858-.062,1.938,1.938,0,0,0,1.178-1.953" transform="translate(41.629 11.536)" fill="#606061"/>
      <path id="Path_17741" data-name="Path 17741" d="M54.378,14.848c-.82,0-1.64,0-2.458,0-.373,0-.437.053-.392.415A2.471,2.471,0,0,0,52.976,17.4a1.413,1.413,0,0,0,.364.1,4.061,4.061,0,0,0,3.072-.586c.224-.151.309-.109.326.168.013.213,0,.426.006.641a.422.422,0,0,1-.264.411,5.731,5.731,0,0,1-3.715.488,2.218,2.218,0,0,1-1.191-.541,3.632,3.632,0,0,1-1.3-2.015,12.333,12.333,0,0,1-.207-1.34,7.116,7.116,0,0,1,.362-2.147,2.31,2.31,0,0,1,.467-.724,3.188,3.188,0,0,1,1.28-1.142,2.691,2.691,0,0,0,.266-.145,3.34,3.34,0,0,1,4.216,1.091,4.252,4.252,0,0,1,.6,2c.017.29.017.579.009.867-.009.258-.058.309-.32.317-.441.011-.882,0-1.323.006H54.378m-.711-1.161h0c.215,0,.428,0,.643,0,.415,0,.831.006,1.246,0,.285-.009.334-.068.3-.349a4.164,4.164,0,0,0-.117-.705,1.436,1.436,0,0,0-.571-.82,2.368,2.368,0,0,0-1.921-.3,1.923,1.923,0,0,0-.758.33,3.4,3.4,0,0,0-.924,1.568c-.053.145.015.247.175.264a2.4,2.4,0,0,0,.3.013h1.625" transform="translate(56.582 11.54)" fill="#606061"/>
      <path id="Path_17742" data-name="Path 17742" d="M25.62,10.478a3.278,3.278,0,0,1,2.7,1.108,2.7,2.7,0,0,1,.662,1.174,5.555,5.555,0,0,1,.013,3.451,2.706,2.706,0,0,1-.76,1.227,4.209,4.209,0,0,1-1.086.846,4.015,4.015,0,0,1-2.722.3,3.849,3.849,0,0,1-1.5-.671,4.738,4.738,0,0,1-.692-.782c-.089-.113-.151-.251-.249-.369a1.517,1.517,0,0,1-.3-.6,5.463,5.463,0,0,1-.136-2.2c.034-.236.058-.475.1-.709a1.751,1.751,0,0,1,.334-.79,3.5,3.5,0,0,0,.187-.326,3.343,3.343,0,0,1,1.883-1.485,4.032,4.032,0,0,1,1.57-.164m2.273,4.182a3.328,3.328,0,0,0-.778-2.441,2.135,2.135,0,0,0-.782-.507,2.665,2.665,0,0,0-1.564-.064,2.008,2.008,0,0,0-1.5,1.084A4.2,4.2,0,0,0,23.1,16a2.414,2.414,0,0,0,1.385,1.344,2.517,2.517,0,0,0,1.845.047,1.82,1.82,0,0,0,1.2-1.054,3.346,3.346,0,0,0,.364-1.674" transform="translate(24.292 11.816)" fill="#d29017"/>
      <path id="Path_17743" data-name="Path 17743" d="M47.6,11.408a.913.913,0,0,0,.454-.313,1.2,1.2,0,0,1,.5-.39c.115-.055.228-.113.339-.168a2.64,2.64,0,0,1,2.665.062,2.712,2.712,0,0,1,1.3,1.97,9.313,9.313,0,0,1,.128,1.917c-.009,1.144,0,2.29,0,3.436a3,3,0,0,1-.009.339c-.028.258-.094.33-.358.345s-.5,0-.756,0a.272.272,0,0,1-.3-.307c0-.113,0-.226,0-.341V13.732a4.849,4.849,0,0,0-.107-1.048,1.565,1.565,0,0,0-1.557-1.229,2.81,2.81,0,0,0-.788.04,2.262,2.262,0,0,0-1.568,1.926c-.094,1.272-.026,2.541-.051,3.811-.006.341,0,.68-.006,1.02-.009.277-.064.339-.33.354s-.5,0-.758,0a.272.272,0,0,1-.3-.3c0-.089,0-.177,0-.264q0-3.55,0-7.1c0-.562,0-.562.571-.562h.226c.7,0,.669-.028.673.65a.645.645,0,0,0,.047.383" transform="translate(52.079 11.536)" fill="#606061"/>
      <path id="Path_17744" data-name="Path 17744" d="M27.788,7.88v4.867c0,.545,0,.545-.545.545l-1.512,0c-.437,0-.467-.03-.467-.477v-9.7q0-.169.006-.339a.223.223,0,0,1,.239-.239c.692.006,1.382-.092,2.075-.017.121.013.187.064.194.185s.009.251.009.377V7.88Z" transform="translate(28.553 2.825)" fill="#1a1818"/>
      <path id="Path_17745" data-name="Path 17745" d="M45.943,15.3c0,.692,0,1.382,0,2.075a2.294,2.294,0,0,0,.115.667.775.775,0,0,0,.78.592,2.352,2.352,0,0,0,.893-.111c.262-.087.313-.043.341.224.081.788.009.886-.769,1.016a3.758,3.758,0,0,1-1.093.021,1.837,1.837,0,0,1-1.638-1.749c-.011-.136-.009-.275-.009-.413q0-2.115,0-4.226c0-.643-.051-.692-.682-.7-.19,0-.379,0-.567-.006a.224.224,0,0,1-.241-.236c0-.239-.006-.477,0-.716a.264.264,0,0,1,.3-.273c.264,0,.528,0,.795-.009.294-.009.356-.051.375-.349.023-.351.017-.705.011-1.057-.009-.4.009-.435.369-.6a5.062,5.062,0,0,1,.767-.2c.168-.049.234.04.245.192.006.113.009.226.009.339,0,.441,0,.882,0,1.321,0,.313.043.349.351.354.454.009.907,0,1.361,0,.375,0,.4.036.413.413,0,.164.006.328,0,.49-.017.271-.068.315-.349.332-.087,0-.177,0-.264,0-.379,0-.756,0-1.135,0-.33.006-.371.04-.373.373-.006.741,0,1.485,0,2.226" transform="translate(48.676 10.446)" fill="#606061"/>
      <path id="Path_17746" data-name="Path 17746" d="M42.469,11.714a2.1,2.1,0,0,0,.29-.426,2.654,2.654,0,0,1,1.76-1.05A1,1,0,0,1,45,10.28a.392.392,0,0,1,.3.388c0,.251.006.5,0,.754s-.055.281-.309.228a2.546,2.546,0,0,0-1.046-.06,1.624,1.624,0,0,0-1.227,1.095,5.655,5.655,0,0,0-.373,2.36c.028,1.031.006,2.062,0,3.093,0,.418-.034.447-.456.452-.226,0-.452,0-.68,0a.274.274,0,0,1-.307-.3q-.006-.15-.006-.3V10.821c.009-.443.028-.464.473-.469.23,0,.458-.006.682.006s.279.058.294.3c.011.2,0,.4,0,.6a.621.621,0,0,0,.115.454" transform="translate(46.228 11.558)" fill="#606061"/>
      <path id="Path_17747" data-name="Path 17747" d="M55.7,11.814a3.488,3.488,0,0,1,.594-.869,2.45,2.45,0,0,1,1.621-.714,1.035,1.035,0,0,1,.473.117.4.4,0,0,1,.264.379c.006.226.013.454,0,.68-.013.285-.068.328-.349.258a3.274,3.274,0,0,0-.863-.089,1.508,1.508,0,0,0-1.431.988,4.129,4.129,0,0,0-.388,1.717c.009,1.218,0,2.439,0,3.66q0,.169-.006.339a.28.28,0,0,1-.311.3c-.251,0-.5,0-.756,0a.257.257,0,0,1-.281-.283q-.006-.169-.006-.339,0-3.508,0-7.017c0-.592,0-.592.577-.592.151,0,.3,0,.454,0,.273.015.32.062.33.345.006.226,0,.454,0,.68a.815.815,0,0,0,.072.441" transform="translate(61.326 11.564)" fill="#606061"/>
      <path id="Path_17748" data-name="Path 17748" d="M27.3,14.59c0,1.836,0,3.672,0,5.509,0,.187-.058.294-.249.3-.251.006-.5,0-.756,0a.286.286,0,0,1-.309-.307q-.006-.15-.006-.3,0-5.247,0-10.491c0-.077,0-.151.009-.226a.29.29,0,0,1,.313-.3c.226,0,.454-.013.68,0,.273.013.32.079.32.351V14.59h0" transform="translate(29.359 9.904)" fill="#d29017"/>
      <path id="Path_17749" data-name="Path 17749" d="M28.248,1.927A1.5,1.5,0,0,1,26.717,3.32a1.414,1.414,0,0,1-1.553-1.483,1.513,1.513,0,0,1,1.521-1.5,1.544,1.544,0,0,1,1.564,1.589" transform="translate(28.438 0.383)" fill="#1a1818"/>
    </g>
  </g>
</svg>
