<svg xmlns="http://www.w3.org/2000/svg" xmlns:xlink="http://www.w3.org/1999/xlink" width="113.754" height="19.835" viewBox="0 0 113.754 19.835">
  <defs>
    <clipPath id="clip-path">
      <rect id="Rectangle_1296" data-name="Rectangle 1296" width="113.754" height="19.835" fill="none"/>
    </clipPath>
  </defs>
  <g id="Group_1011" data-name="Group 1011" transform="translate(0 0)">
    <g id="Group_1010" data-name="Group 1010" transform="translate(0 0)" clip-path="url(#clip-path)">
      <path id="Path_17750" data-name="Path 17750" d="M41.307,7.263c-.367-.539-.7-1.063-1.063-1.56a6.916,6.916,0,0,0-4.72-2.873,7.115,7.115,0,0,0-2.45,14.013A6.9,6.9,0,0,0,40.49,13.7c1.732-2.518,3.386-5.09,5.081-7.634a7.1,7.1,0,1,1,7.306,10.813,7.151,7.151,0,0,1-7.293-3.13c-.278-.421-.555-.843-.856-1.3-.075.1-.129.177-.181.252C43.8,13.8,43.11,14.952,42.3,16.012a9.479,9.479,0,0,1-6.253,3.7,9.916,9.916,0,1,1,6.822-15.14.288.288,0,0,1,0,.376c-.483.708-.955,1.423-1.431,2.136-.037.056-.077.108-.132.184m10.288,6.9c.186-.019.424-.031.659-.068a4.234,4.234,0,0,0,3.488-5.087,4.089,4.089,0,0,0-3.362-3.334A4.268,4.268,0,0,0,47.95,7.53c-.482.718-.951,1.445-1.433,2.162a.268.268,0,0,0,0,.356c.506.737,1,1.485,1.5,2.221a4.244,4.244,0,0,0,3.574,1.89" transform="translate(18.139 0)" fill="#44328a"/>
      <path id="Path_17751" data-name="Path 17751" d="M13.1,9.506q0-2.942,0-5.883a1.993,1.993,0,0,1,3.429-1.4C18.014,3.731,19.515,5.23,21,6.741c.506.516.65.527,1.17,0q2.249-2.275,4.53-4.525a1.976,1.976,0,0,1,2.935.08,1.786,1.786,0,0,1,.471,1.2c0,3.415.009,6.831,0,10.245a2.035,2.035,0,0,1-1.977,2.005c-.207.01-.417,0-.628.01-.13.005-.2-.042-.188-.179.005-.061,0-.12,0-.179V6.384a.767.767,0,0,0-.005-.2c-.03-.122-.042-.289-.125-.348-.146-.1-.252.059-.35.157-1.226,1.223-2.447,2.449-3.678,3.668a2.086,2.086,0,0,1-2.838.23A3.064,3.064,0,0,1,20,9.605q-1.792-1.787-3.582-3.574a1.009,1.009,0,0,0-.183-.163.209.209,0,0,0-.341.165,1.61,1.61,0,0,0,0,.224q0,3.678,0,7.358a2.063,2.063,0,0,1-1.689,2.1,4.976,4.976,0,0,1-.981.037c-.042,0-.1-.082-.122-.137a.5.5,0,0,1-.005-.177V9.506" transform="translate(9.674 1.186)" fill="#44328a"/>
      <path id="Path_17752" data-name="Path 17752" d="M59.953,15.727c-.092.012-.143.026-.191.026h-2.2a1.393,1.393,0,0,1-1.275-.765c-.614-1.073-1.236-2.141-1.84-3.221a.48.48,0,0,0-.49-.282c-1.687.012-3.375.007-5.062.007-.3,0-.3,0-.3.3,0,.663.009,1.327-.01,1.989a2.047,2.047,0,0,1-1.949,1.963c-.209.009-.417,0-.626.01-.143.005-.21-.049-.2-.195.005-.052,0-.1,0-.157q0-5.736.007-11.471a2.869,2.869,0,0,1,.155-1.005,1.9,1.9,0,0,1,1.81-1.3c1.539-.033,3.078-.017,4.615-.017.948,0,1.9-.01,2.845.016a5.076,5.076,0,0,1,4.638,3.961,4.872,4.872,0,0,1-2.49,5.32c-.043.024-.087.054-.155.1l2.713,4.721M52.01,8.7c1.009,0,2.016,0,3.024,0a2.527,2.527,0,0,0,.487-.049,2.113,2.113,0,0,0,1.617-2.5A2.2,2.2,0,0,0,54.9,4.4c-1.9-.014-3.807-.007-5.711,0-.423,0-.581.163-.583.586,0,1.156,0,2.311,0,3.466,0,.193.052.256.252.254C49.9,8.693,50.958,8.7,52.01,8.7" transform="translate(33.857 1.189)" fill="#44328a"/>
      <path id="Path_17753" data-name="Path 17753" d="M55.624,8.671q0-2.426,0-4.854a2.11,2.11,0,0,1,.9-1.826,1.89,1.89,0,0,1,1.083-.372q.751-.008,1.5-.009,3.777,0,7.551,0c.313,0,.31,0,.315.32a2.445,2.445,0,0,1-.445,1.645,1.951,1.951,0,0,1-1.509.8c-.791.023-1.584.016-2.375.017-1.217,0-2.435,0-3.652,0-.421,0-.569.151-.569.565,0,.678,0,1.356,0,2.036,0,.292,0,.294.3.294h7.909c.339,0,.362,0,.334.339a4.076,4.076,0,0,1-.174,1.134A1.885,1.885,0,0,1,65,10.055c-1.29.035-2.584.014-3.876.016-.821,0-1.642,0-2.464,0-.165,0-.24.043-.238.23.009.722,0,1.445.005,2.169a.443.443,0,0,0,.476.5c.09.005.179,0,.27,0h7.506c.3,0,.292,0,.3.3a2.494,2.494,0,0,1-.416,1.633,1.943,1.943,0,0,1-1.579.843c-2.054.016-4.108.01-6.16.012-.426,0-.852.005-1.278-.012a2.067,2.067,0,0,1-1.876-1.749,6.126,6.126,0,0,1-.04-.69q-.005-2.314,0-4.629" transform="translate(41.107 1.19)" fill="#44328a"/>
      <path id="Path_17754" data-name="Path 17754" d="M0,9.617C0,7.68,0,5.741.005,3.8A2.1,2.1,0,0,1,.918,1.981a1.828,1.828,0,0,1,1.064-.36q2.241-.01,4.48-.01c1,0,2-.01,3,.017a5.116,5.116,0,0,1,4.634,4,4.944,4.944,0,0,1-3.77,5.74,4.717,4.717,0,0,1-.974.117c-2.076.01-4.153.005-6.229.007-.323,0-.323,0-.323.313,0,.626.005,1.252,0,1.88a2.063,2.063,0,0,1-2,2.061c-.195.009-.39,0-.583.01S0,15.7,0,15.523c.007-.969,0-1.939,0-2.908v-3M6.172,8.7c1,0,2,0,3,0a2.173,2.173,0,0,0,2.212-2.29A2.087,2.087,0,0,0,9.441,4.423C7.412,4.393,5.381,4.4,3.351,4.4c-.391,0-.546.174-.548.572,0,1.155,0,2.311,0,3.466,0,.2.045.268.259.266C4.1,8.69,5.134,8.7,6.172,8.7" transform="translate(0 1.189)" fill="#44328a"/>
      <path id="Path_17755" data-name="Path 17755" d="M12.621,7.807q0,2.906,0,5.812a2.063,2.063,0,0,1-1.694,2.09,5.113,5.113,0,0,1-.981.035c-.04,0-.092-.07-.118-.118s0-.089,0-.132q0-5.88,0-11.759a2.075,2.075,0,0,1,1.7-2.083,4.9,4.9,0,0,1,.96-.033c.043,0,.1.078.127.132a.463.463,0,0,1,.005.177v5.88" transform="translate(7.256 1.191)" fill="#44328a"/>
      <path id="Path_17756" data-name="Path 17756" d="M63.815,2.992a1.39,1.39,0,0,1,2.781.014,1.39,1.39,0,0,1-2.781-.014m2.555,0A1.164,1.164,0,0,0,64.041,3,1.2,1.2,0,0,0,65.22,4.164,1.208,1.208,0,0,0,66.37,2.989" transform="translate(47.16 1.192)" fill="#44328a"/>
    </g>
  </g>
</svg>
