<svg xmlns="http://www.w3.org/2000/svg" xmlns:xlink="http://www.w3.org/1999/xlink" width="134.649" height="31.767" viewBox="0 0 134.649 31.767">
  <defs>
    <clipPath id="clip-path">
      <rect id="Rectangle_1293" data-name="Rectangle 1293" width="134.649" height="31.767" fill="none"/>
    </clipPath>
  </defs>
  <g id="Group_1005" data-name="Group 1005" transform="translate(0 0)">
    <g id="Group_1004" data-name="Group 1004" transform="translate(0 0)" clip-path="url(#clip-path)">
      <path id="Path_17707" data-name="Path 17707" d="M9.9,20.107a2.167,2.167,0,0,1-1.292-.794,1.987,1.987,0,0,1-.391-1.175q0-2,0-3.994c0-.1.05-.234-.062-.288s-.193.055-.281.1c-1.17.672-2.335,1.351-3.508,2.016A1.967,1.967,0,0,1,2.41,12.563c.929-.548,1.866-1.079,2.8-1.616,1.213-.7,2.435-1.389,3.639-2.107a2.26,2.26,0,0,1,1.98-.293,1.948,1.948,0,0,1,1.32,1.9q.018,3.782,0,7.563a1.979,1.979,0,0,1-1.156,1.911,4.934,4.934,0,0,1-.517.183Z" transform="translate(1.989 11.661)" fill="#00a8e5"/>
      <path id="Path_17708" data-name="Path 17708" d="M9.08,20.1a3.107,3.107,0,0,1-.844-.348A1.85,1.85,0,0,1,7.4,18.2q-.007-3.953,0-7.9A1.9,1.9,0,0,1,9.261,8.434a2.3,2.3,0,0,1,1.246.341c2.157,1.253,4.323,2.495,6.482,3.748a1.956,1.956,0,0,1,.639,2.914,1.926,1.926,0,0,1-2.423.572c-.9-.479-1.78-1.013-2.671-1.52-.326-.188-.651-.377-.982-.56-.236-.131-.257-.119-.26.155,0,1.3-.033,2.609.012,3.913a2,2,0,0,1-1.525,2.054.533.533,0,0,0-.119.052Z" transform="translate(10.225 11.665)" fill="#00a8e5"/>
      <path id="Path_17709" data-name="Path 17709" d="M0,5.845a4.968,4.968,0,0,1,.226-.586,1.929,1.929,0,0,1,2.667-.77Q6.242,6.412,9.584,8.35a1.952,1.952,0,0,1,0,3.4q-3.339,1.941-6.689,3.86A1.916,1.916,0,0,1,.1,14.522c-.029-.093-.064-.181-.1-.272v-.629c.026-.067.055-.129.076-.2a2,2,0,0,1,.967-1.191L3.207,10.99c.462-.265.925-.536,1.389-.8.181-.1.183-.191,0-.286L4.48,9.841Q2.728,8.833.975,7.821A2.186,2.186,0,0,1,0,6.477V5.845" transform="translate(0 5.854)" fill="#00a8e5"/>
      <path id="Path_17710" data-name="Path 17710" d="M12.162,5.824V9.4a2.284,2.284,0,0,1-.61,1.732,1.959,1.959,0,0,1-2.39.334C7.472,10.5,5.79,9.525,4.1,8.553c-.531-.305-1.06-.615-1.594-.915A2.008,2.008,0,0,1,1.451,5.674a2,2,0,0,1,1.618-1.72,1.774,1.774,0,0,1,1.246.2C5.347,4.735,6.369,5.326,7.4,5.913c.214.124.429.241.639.365.136.081.191.048.188-.107,0-.226,0-.455,0-.682V2.021A1.875,1.875,0,0,1,9.367.194,1.886,1.886,0,0,1,11.481.5a2.028,2.028,0,0,1,.679,1.62c.007,1.234,0,2.469,0,3.7" transform="translate(1.983 0.001)" fill="#00a8e5"/>
      <path id="Path_17711" data-name="Path 17711" d="M8.849,10.068A1.89,1.89,0,0,1,9.862,8.323Q11.8,7.2,13.732,6.091c.865-.5,1.735-.991,2.6-1.5a2.091,2.091,0,0,1,1.7-.307A1.919,1.919,0,0,1,19.463,5.9a1.9,1.9,0,0,1-.934,1.966c-1.149.672-2.307,1.332-3.46,2l-.114.062c-.214.129-.219.176-.01.3.493.286.989.567,1.482.851.691.4,1.384.789,2.071,1.2a1.941,1.941,0,0,1,.927,2.183,1.98,1.98,0,0,1-1.875,1.5,2.136,2.136,0,0,1-1.144-.343q-3.242-1.873-6.486-3.744a1.9,1.9,0,0,1-1.07-1.794" transform="translate(12.238 5.825)" fill="#00a8e5"/>
      <path id="Path_17712" data-name="Path 17712" d="M7.4,5.863c0-1.3,0-2.607,0-3.91a1.947,1.947,0,1,1,3.894.007c0,1.346,0,2.7,0,4.041,0,.341.017.348.31.179,1.13-.653,2.257-1.308,3.391-1.954A1.966,1.966,0,1,1,17.061,7.57c-1.792,1.044-3.593,2.078-5.39,3.115-.41.236-.82.469-1.227.71a1.953,1.953,0,0,1-2.39-.167,1.742,1.742,0,0,1-.658-1.4q0-1.98,0-3.963Z" transform="translate(10.224 0.009)" fill="#00a8e5"/>
      <path id="Path_17713" data-name="Path 17713" d="M57.894,10.414H53.4c-.307,0-.36.06-.305.36A4.319,4.319,0,0,0,56,14.364a4.395,4.395,0,0,0,4.6-.813,6.3,6.3,0,0,0,1.008-1.2.642.642,0,0,1,1.115-.043.63.63,0,0,1,.024.763A5.927,5.927,0,0,1,51.8,11.228a5.866,5.866,0,0,1,4.673-6.975,5.4,5.4,0,0,1,4.59,1.237,6.039,6.039,0,0,1,2.107,4.1c.062.515-.229.822-.774.825-1.5,0-3,0-4.5,0m-.479-1.361h3.97c.288,0,.307-.029.226-.3a4.465,4.465,0,0,0-.479-1.106,4.141,4.141,0,0,0-4.123-2.09,4.276,4.276,0,0,0-3.748,3.086c-.136.379-.1.412.315.412h3.839" transform="translate(71.476 5.751)" fill="#00a8e5"/>
      <path id="Path_17714" data-name="Path 17714" d="M51.627,13.993c-.36.284-.6.574-.889.81a5.389,5.389,0,0,1-7.151-.348,5.965,5.965,0,0,1-1.763-3.386A5.885,5.885,0,0,1,46.4,4.254,5.281,5.281,0,0,1,51.143,5.7c.143.131.274.417.431.353.138-.057.038-.367.048-.565s0-.4,0-.605a.682.682,0,1,1,1.361.017q0,5.172,0,10.347a.681.681,0,1,1-1.358.024c-.012-.4,0-.8,0-1.28m-4.258.639a4.055,4.055,0,0,0,3.789-2.495,4.618,4.618,0,0,0-.667-5.161A3.888,3.888,0,0,0,47.338,5.5a3.983,3.983,0,0,0-3.227,1.656,4.658,4.658,0,0,0-.76,4.442,4.263,4.263,0,0,0,4.018,3.038" transform="translate(57.729 5.751)" fill="#00a8e5"/>
      <path id="Path_17715" data-name="Path 17715" d="M37.415,9.4a6.084,6.084,0,0,0-.419.927c-.686,1.63-1.365,3.262-2.049,4.895-.05.119-.1.241-.164.357a.615.615,0,0,1-.631.381.653.653,0,0,1-.615-.448q-.636-1.7-1.27-3.4-1.244-3.331-2.483-6.668a1.122,1.122,0,0,1-.136-.832.628.628,0,0,1,.565-.443.606.606,0,0,1,.651.391c.224.572.434,1.146.646,1.723q1.265,3.435,2.531,6.875a.454.454,0,0,0,.176.291c.133-.305.262-.6.386-.891q1.051-2.491,2.092-4.988a.754.754,0,0,1,.72-.548.74.74,0,0,1,.724.541q1.194,2.831,2.385,5.664c.031.069.036.183.119.186.112,0,.1-.124.131-.2Q42.338,8.957,43.9,4.693a.691.691,0,0,1,.755-.512.673.673,0,0,1,.515.941c-.174.522-.379,1.037-.57,1.551q-1.608,4.321-3.212,8.641c-.117.315-.267.6-.646.648A.664.664,0,0,1,40,15.507q-1.23-2.913-2.462-5.829c-.031-.071-.064-.143-.126-.274" transform="translate(40.942 5.77)" fill="#00a8e5"/>
      <path id="Path_17716" data-name="Path 17716" d="M47.478,10.457V3a2.7,2.7,0,0,1,.01-.341.672.672,0,0,1,.667-.589.694.694,0,0,1,.686.6,3.266,3.266,0,0,1,.007.341V13.2c0,.079,0,.157,0,.236,0,.117.05.145.143.064.119-.1.243-.2.355-.312q1.866-1.83,3.732-3.663c.822-.8,1.654-1.592,2.481-2.383a.669.669,0,0,1,.965-.01.623.623,0,0,1,0,.937c-1.013.994-2.037,1.975-3.055,2.962-.41.4-.81.8-1.22,1.2-.119.114-.1.193,0,.307q1.326,1.6,2.638,3.2c.546.662,1.094,1.323,1.63,1.992a.692.692,0,0,1-.052,1.027.772.772,0,0,1-1.022-.191q-2.052-2.477-4.106-4.952c-.212-.257-.217-.25-.45-.021-.608.593-1.211,1.191-1.825,1.778a.666.666,0,0,0-.219.534c.01.76.007,1.523,0,2.283a.682.682,0,0,1-.465.662A.7.7,0,0,1,47.6,18.6a.867.867,0,0,1-.126-.553v-7.59" transform="translate(65.659 2.862)" fill="#00a8e5"/>
      <path id="Path_17717" data-name="Path 17717" d="M35.658,10.087a5.889,5.889,0,0,1-1.8,4.361,5.381,5.381,0,0,1-7.289.248,5.755,5.755,0,0,1-2.1-4.115A5.859,5.859,0,0,1,27.46,4.838a5.364,5.364,0,0,1,5.674.286,6.013,6.013,0,0,1,2.521,4.335,5.535,5.535,0,0,1,0,.629m-1.356.548a5.04,5.04,0,0,0-.96-3.439,3.923,3.923,0,0,0-3.956-1.632,4.5,4.5,0,0,0-3.591,4.685,4.587,4.587,0,0,0,1.473,3.262,4.021,4.021,0,0,0,4.509.729A4.339,4.339,0,0,0,34.3,10.635" transform="translate(33.812 5.753)" fill="#00a8e5"/>
      <path id="Path_17718" data-name="Path 17718" d="M19.6,10.117c0-1.742,0-3.484,0-5.226a.646.646,0,0,1,.87-.674.638.638,0,0,1,.441.622c.01.174,0,.35.007.524,0,.074-.033.176.064.207.074.021.119-.06.169-.107a4.2,4.2,0,0,1,1.523-.958,4.691,4.691,0,0,1,4.756.729A4.7,4.7,0,0,1,29.273,9.1c.017,1.995,0,3.991,0,5.986a1.687,1.687,0,0,1-.029.365.641.641,0,0,1-.76.522.624.624,0,0,1-.572-.667c0-1.163,0-2.328,0-3.491,0-.929,0-1.856,0-2.786a3.487,3.487,0,0,0-6.944-.469,5.755,5.755,0,0,0-.048.81q0,2.942,0,5.881a.636.636,0,0,1-.674.727.586.586,0,0,1-.641-.634c0-1.12,0-2.24,0-3.362V10.117" transform="translate(27.105 5.759)" fill="#00a8e5"/>
      <path id="Path_17719" data-name="Path 17719" d="M19.606,15.987a6.318,6.318,0,0,1-3.746-1.063,2.337,2.337,0,0,1-.448-.405.551.551,0,0,1-.071-.741.513.513,0,0,1,.727-.119,10.033,10.033,0,0,0,1.287.653,4.486,4.486,0,0,0,3.672-.136,1.786,1.786,0,0,0,.979-1.2,1.307,1.307,0,0,0-.56-1.423,5.406,5.406,0,0,0-1.48-.724c-.865-.317-1.775-.491-2.628-.844a4.313,4.313,0,0,1-1.578-1.01,2.823,2.823,0,0,1,.479-3.856,4.765,4.765,0,0,1,6.372.572,1.542,1.542,0,0,1,.257.424.438.438,0,0,1-.081.531.483.483,0,0,1-.56.1,2.3,2.3,0,0,1-.605-.415A3.42,3.42,0,0,0,19.4,5.436a3.058,3.058,0,0,0-2.242.81,1.244,1.244,0,0,0,.312,2.142,4.252,4.252,0,0,0,.55.253c.975.341,1.954.672,2.931,1.013a6.127,6.127,0,0,1,1.43.715,2.859,2.859,0,0,1,.41,4.215,4.225,4.225,0,0,1-3.184,1.4" transform="translate(21.029 5.754)" fill="#00a8e5"/>
      <path id="Path_17720" data-name="Path 17720" d="M38.921,13.368V8.641c0-.4,0-.4-.388-.4-.334,0-.667,0-1,0a.679.679,0,0,1-.717-.705c0-.419.248-.655.71-.66.367,0,.736-.01,1.1,0,.217,0,.3-.076.293-.293a9.927,9.927,0,0,1,.141-2.3A2.634,2.634,0,0,1,41.69,2.1a6.782,6.782,0,0,1,.763,0,.68.68,0,0,1-.007,1.361,7.761,7.761,0,0,0-.97.057,1.155,1.155,0,0,0-1,.815,5.35,5.35,0,0,0-.191,1.842c.007.805-.11.693.691.7.281,0,.562,0,.844,0A.646.646,0,0,1,42.5,7.5a.671.671,0,0,1-.655.736c-.386.017-.772.007-1.158.007s-.4,0-.4.393q0,4.636,0,9.27c0,.1,0,.193,0,.291a.681.681,0,0,1-.691.705.668.668,0,0,1-.667-.724c0-1.6,0-3.205,0-4.806" transform="translate(50.916 2.885)" fill="#00a8e5"/>
      <path id="Path_17721" data-name="Path 17721" d="M5.137,8.781a1.035,1.035,0,0,1,.41-.994C6.338,7.02,7.11,6.231,7.891,5.454a1.353,1.353,0,0,1,1.785,0l2.452,2.45a1.4,1.4,0,0,1,.007,1.813Q10.924,10.942,9.7,12.15a1.455,1.455,0,0,1-1.849-.007c-.808-.8-1.606-1.611-2.419-2.407a1.065,1.065,0,0,1-.3-.956m4.926.014a.485.485,0,0,0-.124-.317C9.667,8.195,9.4,7.9,9.1,7.647a.5.5,0,0,0-.7.038c-.257.238-.508.484-.743.743a.51.51,0,0,0,.024.772c.231.238.467.474.708.705a.5.5,0,0,0,.767.007c.248-.236.484-.481.727-.722a.58.58,0,0,0,.174-.4" transform="translate(7.076 7.081)" fill="#00a8e5"/>
      <path id="Path_17722" data-name="Path 17722" d="M40.326,10.459q0-3.807,0-7.616a.686.686,0,0,1,1.356-.2,1.659,1.659,0,0,1,.017.288V18.053c0,.543-.286.846-.765.817a.623.623,0,0,1-.6-.586c-.01-.1,0-.21,0-.315V10.459" transform="translate(55.766 2.863)" fill="#00a8e5"/>
    </g>
  </g>
</svg>
